<svg width="56" height="57" viewBox="0 0 56 57" fill="none" xmlns="http://www.w3.org/2000/svg">
<g filter="url(#filter0_d)">
<rect x="12" y="1" width="32" height="32" rx="16" fill="white"/>
<path fill-rule="evenodd" clip-rule="evenodd" d="M26.0147 11.8193C28.4854 13.1832 30.3376 18.5794 30.3376 21.2082C30.3376 21.6684 30.2936 22.0988 30.21 22.4995C32.9459 22.4973 35.6797 20.6974 35.6797 17.0977C35.6797 14.8895 34.3733 10.7305 32.4914 8.64668C31.7958 7.87719 31.0221 7.39062 30.2067 7.39062C28.5239 7.39062 27.0184 9.46129 26.0147 11.8193Z" fill="#EBDDD9"/>
<path fill-rule="evenodd" clip-rule="evenodd" d="M24.8647 18.4087C26.4759 18.4087 27.7822 19.7154 27.7822 21.327C27.7822 22.9396 26.4759 24.2463 24.8647 24.2463C23.2524 24.2463 21.9461 22.9396 21.9461 21.327C21.9461 19.7154 23.2524 18.4087 24.8647 18.4087ZM19.3906 21.208C19.3906 24.2893 21.3947 26.0528 23.6871 26.4975H26.0412C27.9924 26.1188 29.7335 24.7857 30.21 22.4993C30.2936 22.0986 30.3377 21.6682 30.3377 21.208C30.3377 18.5793 28.4855 13.183 26.0147 11.8191C25.6438 11.6143 25.2587 11.501 24.8646 11.501C21.8415 11.501 19.3906 18.1841 19.3906 21.208Z" fill="#FAF7F5"/>
<path fill-rule="evenodd" clip-rule="evenodd" d="M21.9462 21.327C21.9462 22.9397 23.2525 24.2463 24.8648 24.2463C26.476 24.2463 27.7823 22.9397 27.7823 21.327C27.7823 19.7154 26.476 18.4087 24.8648 18.4087C23.2525 18.4087 21.9462 19.7154 21.9462 21.327Z" fill="#FFEA60"/>
<path d="M21.908 17.2165C21.9558 17.2358 22.0052 17.2449 22.0537 17.2449C22.2084 17.2449 22.3549 17.1524 22.4162 17C22.8294 15.9738 23.2859 15.1274 23.7729 14.4843C23.9031 14.3124 23.8693 14.0674 23.6973 13.9371C23.5253 13.8069 23.2803 13.8408 23.15 14.0127C22.6213 14.7109 22.1306 15.6178 21.6915 16.7083C21.6109 16.9084 21.7078 17.1359 21.908 17.2165Z" fill="black"/>
<path d="M34.4286 10.9402C33.9264 9.90129 33.3788 9.05352 32.8049 8.41395C32.7883 8.3916 32.7695 8.3707 32.748 8.35203C31.9347 7.46785 31.0699 7 30.2067 7C29.3028 7 28.4129 7.4925 27.5618 8.46379C26.9375 9.17617 26.3389 10.1502 25.818 11.2963C25.5027 11.1735 25.1843 11.1105 24.8647 11.1105C23.3704 11.1105 21.8708 12.5098 20.6423 15.0506C19.66 17.0822 19 19.5568 19 21.2082C19 22.9925 19.6375 24.4948 20.8435 25.5527C21.9075 26.486 23.3354 27 24.8641 27C26.3929 27 27.8208 26.486 28.8848 25.5527C29.6913 24.8453 30.2431 23.9389 30.5205 22.8826C31.9304 22.8171 33.2371 22.3114 34.2279 21.4416C35.4332 20.3837 36.0703 18.8816 36.0703 17.0977C36.0703 15.4461 35.4105 12.9716 34.4286 10.9402ZM30.6733 22.0898C30.7095 21.8045 30.7283 21.5105 30.7283 21.2082C30.7283 20.247 30.4905 18.9255 30.0759 17.5825C30.0123 17.3763 29.7935 17.2607 29.5874 17.3245C29.3813 17.3881 29.2658 17.6068 29.3294 17.8129C29.7219 19.0844 29.9471 20.322 29.9471 21.2082C29.9471 21.6353 29.9064 22.0334 29.8307 22.4033C29.8282 22.4134 29.826 22.4235 29.8243 22.4339C29.2781 25.0249 27.0002 26.2188 24.8641 26.2188C22.4161 26.2188 19.7812 24.6508 19.7812 21.2082C19.7812 19.6879 20.4246 17.2957 21.3456 15.3907C22.4208 13.167 23.7034 11.8917 24.8647 11.8917C25.8945 11.8917 27.013 12.8815 28.0143 14.6788C28.1193 14.8673 28.3572 14.935 28.5457 14.83C28.7342 14.725 28.8018 14.4871 28.6968 14.2986C28.0139 13.0729 27.2747 12.1873 26.5082 11.6649C27.6056 9.22621 28.9759 7.78125 30.2067 7.78125C30.7906 7.78125 31.4052 8.10402 32.0086 8.70742L31.1662 10.2006C31.099 10.3198 31.099 10.4654 31.1662 10.5846L32.0428 12.1374L31.1662 13.6913C31.0602 13.8792 31.1266 14.1175 31.3145 14.2235C31.3752 14.2577 31.4411 14.2739 31.5061 14.2739C31.6424 14.2739 31.7748 14.2024 31.8466 14.0752L32.8316 12.3293C32.8988 12.2101 32.8988 12.0645 32.8316 11.9453L31.955 10.3925L32.5531 9.33223C32.9595 9.85996 33.3546 10.5137 33.7252 11.2802C34.6459 13.185 35.289 15.5773 35.289 17.0977C35.2891 20.3222 32.9773 21.9025 30.6733 22.0898Z" fill="black"/>
<path d="M24.8648 18.0183C23.0401 18.0183 21.5555 19.5027 21.5555 21.3272C21.5555 23.1524 23.0401 24.6372 24.8648 24.6372C26.6889 24.6372 28.173 23.1523 28.173 21.3272C28.173 19.5027 26.6889 18.0183 24.8648 18.0183ZM24.8648 23.856C23.4709 23.856 22.3368 22.7216 22.3368 21.3272C22.3368 19.9335 23.4709 18.7996 24.8648 18.7996C26.2581 18.7996 27.3917 19.9335 27.3917 21.3272C27.3917 22.7216 26.2581 23.856 24.8648 23.856Z" fill="black"/>
<path d="M28.9325 15.7031C28.7399 15.8002 28.6625 16.0351 28.7596 16.2278L28.7607 16.2299C28.8293 16.3659 28.9662 16.4439 29.1085 16.4439C29.1679 16.4439 29.2282 16.4303 29.2849 16.4017C29.4775 16.3045 29.5543 16.0686 29.4572 15.876C29.3601 15.6833 29.1252 15.6059 28.9325 15.7031Z" fill="black"/>
</g>
<path d="M20.2229 35.835V43H19.2529V39.74H15.3879V43H14.4179V35.835H15.3879V39.03H19.2529V35.835H20.2229ZM25.9218 37.935V43H25.3918C25.2651 43 25.1851 42.9383 25.1518 42.815L25.0818 42.27C24.8618 42.5133 24.6151 42.71 24.3418 42.86C24.0684 43.0067 23.7551 43.08 23.4018 43.08C23.1251 43.08 22.8801 43.035 22.6668 42.945C22.4568 42.8517 22.2801 42.7217 22.1368 42.555C21.9934 42.3883 21.8851 42.1867 21.8118 41.95C21.7418 41.7133 21.7068 41.4517 21.7068 41.165V37.935H22.5968V41.165C22.5968 41.5483 22.6834 41.845 22.8568 42.055C23.0334 42.265 23.3018 42.37 23.6618 42.37C23.9251 42.37 24.1701 42.3083 24.3968 42.185C24.6268 42.0583 24.8384 41.885 25.0318 41.665V37.935H25.9218ZM30.7229 39.915C30.7229 39.7083 30.6929 39.52 30.6329 39.35C30.5763 39.1767 30.4913 39.0283 30.3779 38.905C30.2679 38.7783 30.1329 38.6817 29.9729 38.615C29.8129 38.545 29.6313 38.51 29.4279 38.51C29.0013 38.51 28.6629 38.635 28.4129 38.885C28.1663 39.1317 28.0129 39.475 27.9529 39.915H30.7229ZM31.4429 42.29C31.3329 42.4233 31.2013 42.54 31.0479 42.64C30.8946 42.7367 30.7296 42.8167 30.5529 42.88C30.3796 42.9433 30.1996 42.99 30.0129 43.02C29.8263 43.0533 29.6413 43.07 29.4579 43.07C29.1079 43.07 28.7846 43.0117 28.4879 42.895C28.1946 42.775 27.9396 42.6017 27.7229 42.375C27.5096 42.145 27.3429 41.8617 27.2229 41.525C27.1029 41.1883 27.0429 40.8017 27.0429 40.365C27.0429 40.0117 27.0963 39.6817 27.2029 39.375C27.3129 39.0683 27.4696 38.8033 27.6729 38.58C27.8763 38.3533 28.1246 38.1767 28.4179 38.05C28.7113 37.92 29.0413 37.855 29.4079 37.855C29.7113 37.855 29.9913 37.9067 30.2479 38.01C30.5079 38.11 30.7313 38.2567 30.9179 38.45C31.1079 38.64 31.2563 38.8767 31.3629 39.16C31.4696 39.44 31.5229 39.76 31.5229 40.12C31.5229 40.26 31.5079 40.3533 31.4779 40.4C31.4479 40.4467 31.3913 40.47 31.3079 40.47H27.9229C27.9329 40.79 27.9763 41.0683 28.0529 41.305C28.1329 41.5417 28.2429 41.74 28.3829 41.9C28.5229 42.0567 28.6896 42.175 28.8829 42.255C29.0763 42.3317 29.2929 42.37 29.5329 42.37C29.7563 42.37 29.9479 42.345 30.1079 42.295C30.2713 42.2417 30.4113 42.185 30.5279 42.125C30.6446 42.065 30.7413 42.01 30.8179 41.96C30.8979 41.9067 30.9663 41.88 31.0229 41.88C31.0963 41.88 31.1529 41.9083 31.1929 41.965L31.4429 42.29ZM36.8487 37.935L34.7837 43H33.9837L31.9187 37.935H32.6437C32.717 37.935 32.777 37.9533 32.8237 37.99C32.8704 38.0267 32.902 38.07 32.9187 38.12L34.2037 41.38C34.2437 41.5033 34.2787 41.6233 34.3087 41.74C34.3387 41.8567 34.367 41.9733 34.3937 42.09C34.4204 41.9733 34.4487 41.8567 34.4787 41.74C34.5087 41.6233 34.5454 41.5033 34.5887 41.38L35.8887 38.12C35.9087 38.0667 35.942 38.0233 35.9887 37.99C36.0354 37.9533 36.0904 37.935 36.1537 37.935H36.8487ZM39.6632 37.855C40.0332 37.855 40.3666 37.9167 40.6632 38.04C40.9599 38.1633 41.2132 38.3383 41.4232 38.565C41.6332 38.7917 41.7932 39.0667 41.9032 39.39C42.0166 39.71 42.0732 40.0683 42.0732 40.465C42.0732 40.865 42.0166 41.225 41.9032 41.545C41.7932 41.865 41.6332 42.1383 41.4232 42.365C41.2132 42.5917 40.9599 42.7667 40.6632 42.89C40.3666 43.01 40.0332 43.07 39.6632 43.07C39.2899 43.07 38.9532 43.01 38.6532 42.89C38.3566 42.7667 38.1032 42.5917 37.8932 42.365C37.6832 42.1383 37.5216 41.865 37.4082 41.545C37.2982 41.225 37.2432 40.865 37.2432 40.465C37.2432 40.0683 37.2982 39.71 37.4082 39.39C37.5216 39.0667 37.6832 38.7917 37.8932 38.565C38.1032 38.3383 38.3566 38.1633 38.6532 38.04C38.9532 37.9167 39.2899 37.855 39.6632 37.855ZM39.6632 42.375C40.1632 42.375 40.5366 42.2083 40.7832 41.875C41.0299 41.5383 41.1532 41.07 41.1532 40.47C41.1532 39.8667 41.0299 39.3967 40.7832 39.06C40.5366 38.7233 40.1632 38.555 39.6632 38.555C39.4099 38.555 39.1882 38.5983 38.9982 38.685C38.8116 38.7717 38.6549 38.8967 38.5282 39.06C38.4049 39.2233 38.3116 39.425 38.2482 39.665C38.1882 39.9017 38.1582 40.17 38.1582 40.47C38.1582 41.07 38.2816 41.5383 38.5282 41.875C38.7782 42.2083 39.1566 42.375 39.6632 42.375Z" fill="#4B513E"/>
<defs>
<filter id="filter0_d" x="10.5" y="0" width="35" height="35" filterUnits="userSpaceOnUse" color-interpolation-filters="sRGB">
<feFlood flood-opacity="0" result="BackgroundImageFix"/>
<feColorMatrix in="SourceAlpha" type="matrix" values="0 0 0 0 0 0 0 0 0 0 0 0 0 0 0 0 0 0 127 0"/>
<feMorphology radius="0.5" operator="dilate" in="SourceAlpha" result="effect1_dropShadow"/>
<feOffset dy="0.5"/>
<feGaussianBlur stdDeviation="0.5"/>
<feColorMatrix type="matrix" values="0 0 0 0 0.445833 0 0 0 0 0.13375 0 0 0 0 0.13375 0 0 0 0.1 0"/>
<feBlend mode="normal" in2="BackgroundImageFix" result="effect1_dropShadow"/>
<feBlend mode="normal" in="SourceGraphic" in2="effect1_dropShadow" result="shape"/>
</filter>
</defs>
</svg>

