<svg width="56" height="57" viewBox="0 0 56 57" fill="none" xmlns="http://www.w3.org/2000/svg">
<g filter="url(#filter0_d)">
<rect x="12" y="1" width="32" height="32" rx="16" fill="white"/>
<path fill-rule="evenodd" clip-rule="evenodd" d="M32.6754 12.5986C33.3154 13.0641 33.7639 13.7203 33.9631 14.4718C35.1025 14.8952 36.4279 14.7644 37.6094 13.9874C37.0059 12.7072 35.943 11.9037 34.7504 11.6709C34.1879 12.2085 33.4649 12.5343 32.6754 12.5986Z" fill="#FFDA8F"/>
<path fill-rule="evenodd" clip-rule="evenodd" d="M27.706 17.6407C27.7625 17.8879 27.84 18.1229 27.9352 18.3423C28.4667 19.577 29.5629 20.3507 30.824 20.4526L32.4528 19.9938L32.4462 19.9716C31.8471 17.8735 29.7422 16.856 27.706 17.6407Z" fill="#FFDA8F"/>
<path fill-rule="evenodd" clip-rule="evenodd" d="M25.435 19.046C25.9665 20.2807 27.0626 21.0543 28.3238 21.1563L30.824 20.4524C29.5628 20.3505 28.4667 19.5768 27.9352 18.3421C27.1214 18.0019 26.1625 17.9753 25.2058 18.3444C25.2633 18.5915 25.3398 18.8265 25.435 19.046Z" fill="#FFF3DA"/>
<path fill-rule="evenodd" clip-rule="evenodd" d="M22.9349 19.7498C23.4664 20.9846 24.5625 21.7582 25.8237 21.8601L28.3239 21.1563C27.0627 21.0544 25.9665 20.2807 25.4351 19.046C24.6212 18.7057 23.6623 18.6791 22.7057 19.0482C22.7633 19.2954 22.8397 19.5304 22.9349 19.7498Z" fill="#FFDA8F"/>
<path fill-rule="evenodd" clip-rule="evenodd" d="M20.2064 19.7521C20.3825 20.5213 20.7523 21.1608 21.2495 21.6363C21.8108 22.1738 22.535 22.4997 23.3234 22.564L25.8236 21.8602C24.5624 21.7582 23.4662 20.9845 22.9347 19.7498C22.1209 19.4096 21.1631 19.383 20.2064 19.7521Z" fill="#FFF3DA"/>
<path fill-rule="evenodd" clip-rule="evenodd" d="M21.2496 21.6362C20.0559 21.869 18.993 22.6726 18.3906 23.9527C19.571 24.7308 20.8963 24.8604 22.0368 24.4371C22.2361 23.6856 22.6835 23.0295 23.3235 22.564C22.5351 22.4996 21.8109 22.1738 21.2496 21.6362Z" fill="#FFDA8F"/>
<path fill-rule="evenodd" clip-rule="evenodd" d="M23.3235 22.5639C22.6835 23.0294 22.2361 23.6856 22.0357 24.4371C21.8597 25.1021 21.8774 25.8414 22.1277 26.5906C23.1353 26.4055 23.9402 25.8835 24.4562 25.1686C24.268 23.8375 24.8006 22.605 25.8237 21.8601L23.3235 22.5639Z" fill="#FFDA8F"/>
<path fill-rule="evenodd" clip-rule="evenodd" d="M25.8236 21.8601C24.8005 22.6049 24.2679 23.8374 24.4561 25.1686C24.4904 25.4047 24.5469 25.6452 24.6277 25.8868C25.6354 25.7017 26.4403 25.1796 26.9563 24.4647C26.768 23.1336 27.3007 21.9011 28.3237 21.1562L25.8236 21.8601Z" fill="#FFF3DA"/>
<path fill-rule="evenodd" clip-rule="evenodd" d="M28.3238 21.1565C27.3007 21.9013 26.7681 23.1338 26.9563 24.4649C26.9907 24.701 27.0471 24.9415 27.1269 25.1831C28.1356 24.9981 28.9405 24.476 29.4565 23.7611C29.2683 22.43 29.7998 21.1975 30.824 20.4526L28.3238 21.1565Z" fill="#FFDA8F"/>
<path fill-rule="evenodd" clip-rule="evenodd" d="M30.824 20.4525C29.7998 21.1973 29.2683 22.4298 29.4565 23.761C29.4909 23.9982 29.5473 24.2376 29.627 24.4792C31.7408 24.0913 32.961 22.2226 32.5048 20.1976V20.1965C32.4915 20.1355 32.476 20.0757 32.4594 20.0169L32.4528 19.9937L30.824 20.4525Z" fill="#FFF3DA"/>
<path fill-rule="evenodd" clip-rule="evenodd" d="M30.1751 11.8948C31.1993 12.6396 31.7308 13.871 31.5426 15.2021C32.0596 15.9181 32.8635 16.4402 33.8722 16.6252C34.1225 15.876 34.1402 15.1367 33.963 14.4717C33.7637 13.7202 33.3153 13.0641 32.6753 12.5986L30.1751 11.8948Z" fill="#FFDA8F"/>
<path fill-rule="evenodd" clip-rule="evenodd" d="M27.6749 11.1912C28.6991 11.936 29.2317 13.1685 29.0424 14.4985C29.5595 15.2145 30.3645 15.7366 31.372 15.9216C31.4529 15.68 31.5093 15.4395 31.5425 15.2023C31.7308 13.8712 31.1993 12.6398 30.1751 11.895L27.6749 11.1912Z" fill="#FFF3DA"/>
<path fill-rule="evenodd" clip-rule="evenodd" d="M25.1759 10.4871C26.199 11.2319 26.7316 12.4644 26.5423 13.7944C27.0593 14.5104 27.8643 15.0325 28.872 15.2175C28.9528 14.9759 29.0093 14.7354 29.0425 14.4982C29.2318 13.1682 28.6992 11.9357 27.675 11.1908L25.1759 10.4871Z" fill="#FFDA8F"/>
<path fill-rule="evenodd" clip-rule="evenodd" d="M23.495 10.2311C23.0388 12.2561 24.2579 14.1259 26.3717 14.5139C26.4525 14.2722 26.509 14.0317 26.5422 13.7945C26.7315 12.4645 26.1989 11.232 25.1758 10.4872L23.5459 10.0283L23.5404 10.0516C23.5238 10.1103 23.5083 10.1702 23.495 10.2311Z" fill="#FFF3DA"/>
<path fill-rule="evenodd" clip-rule="evenodd" d="M28.2928 7.67515C26.2566 6.89042 24.1528 7.90792 23.5527 10.005L23.546 10.0282L25.1759 10.4871C26.4371 10.3851 27.5332 9.61147 28.0647 8.37679C28.16 8.15729 28.2364 7.92233 28.2928 7.67515Z" fill="#FFDA8F"/>
<path fill-rule="evenodd" clip-rule="evenodd" d="M28.0647 8.3771C27.5333 9.61183 26.4371 10.3855 25.1759 10.4874L27.675 11.1912C28.9372 11.0893 30.0323 10.3156 30.5649 9.08093C30.6601 8.86147 30.7365 8.62651 30.793 8.37823C29.8364 8.01022 28.8786 8.03573 28.0647 8.3771Z" fill="#FFF3DA"/>
<path fill-rule="evenodd" clip-rule="evenodd" d="M30.5648 9.08073C30.0323 10.3155 28.9372 11.0891 27.6749 11.191L30.1751 11.8949C31.4374 11.7929 32.5325 11.0192 33.065 9.78456C33.1591 9.5651 33.2367 9.33014 33.2931 9.08186C32.3364 8.71385 31.3776 8.73932 30.5648 9.08073Z" fill="#FFDA8F"/>
<path fill-rule="evenodd" clip-rule="evenodd" d="M33.0651 9.78457C32.5325 11.0193 31.4374 11.7929 30.1752 11.8949L32.6754 12.5987C33.4649 12.5344 34.1879 12.2086 34.7504 11.671C35.2475 11.1955 35.6174 10.556 35.7934 9.7857C34.8367 9.4177 33.8778 9.4432 33.0651 9.78457Z" fill="#FFF3DA"/>
<path d="M37.8489 20.0277C37.3076 19.6074 36.4505 19.3752 35.3012 19.3377C34.5077 19.3117 33.5836 19.3864 32.7168 19.5439C32.3619 18.5855 31.6949 17.8268 30.812 17.3866C29.8186 16.8914 28.6656 16.8521 27.5655 17.2761C27.3842 17.346 27.2818 17.5384 27.3252 17.7278C27.3274 17.7373 27.33 17.7466 27.3322 17.7561C26.5965 17.6166 25.8141 17.6911 25.0652 17.98C24.884 18.0499 24.7817 18.2423 24.8251 18.4316C24.8273 18.4411 24.8298 18.4505 24.832 18.46C24.0966 18.3206 23.3143 18.395 22.5652 18.6837C22.3838 18.7536 22.2814 18.9462 22.3249 19.1356C22.3271 19.1451 22.3296 19.1543 22.3318 19.1637C21.5964 19.0243 20.8145 19.0988 20.066 19.3876C19.8848 19.4575 19.7825 19.6499 19.8258 19.8392C19.9628 20.4377 20.2116 20.9742 20.5474 21.427C19.4652 21.8205 18.57 22.6541 18.0372 23.7864C17.9545 23.9621 18.0135 24.172 18.1757 24.2788C18.9646 24.7989 19.842 25.0653 20.7116 25.0652C20.9917 25.0652 21.2709 25.0365 21.5463 24.9808C21.4951 25.5431 21.5621 26.1315 21.7572 26.7145C21.8113 26.8761 21.9622 26.9813 22.1274 26.9813C22.1508 26.9813 22.1745 26.9791 22.1982 26.9748C22.9881 26.8297 23.6939 26.4845 24.2483 25.9821C24.2514 25.9916 24.2542 26.0012 24.2574 26.0107C24.3115 26.1723 24.4624 26.2775 24.6276 26.2775C24.651 26.2775 24.6747 26.2754 24.6984 26.271C25.4884 26.1259 26.1938 25.7809 26.7476 25.2787C26.7506 25.2881 26.7533 25.2974 26.7565 25.3067C26.8104 25.4684 26.9615 25.5737 27.1267 25.5736C27.1501 25.5736 27.1738 25.5715 27.1975 25.5672C27.988 25.4221 28.6939 25.0771 29.2478 24.5749C29.2508 24.5842 29.2536 24.5936 29.2566 24.6029C29.3106 24.7646 29.4617 24.8698 29.6269 24.8698C29.6503 24.8698 29.674 24.8677 29.6977 24.8634C30.8261 24.6562 31.7726 24.0502 32.363 23.1566C32.9106 22.3277 33.107 21.3202 32.924 20.3005C34.6042 20.0048 36.574 20.0266 37.3699 20.6446C37.5403 20.7769 37.7857 20.7461 37.918 20.5757C38.0501 20.4054 38.0192 20.16 37.8489 20.0277ZM30.4634 18.0858C31.1393 18.4227 31.6575 18.9989 31.9505 19.7293L30.7883 20.0565C29.5729 19.9319 28.5841 19.1026 28.1819 17.8937C28.969 17.6739 29.7679 17.7391 30.4634 18.0858ZM27.6457 18.649C28.0282 19.4459 28.6375 20.0722 29.3883 20.4507L28.2884 20.7604C27.0728 20.6358 26.0839 19.8064 25.6817 18.5975C26.35 18.4108 27.0323 18.4281 27.6457 18.649ZM25.1455 19.3528C25.528 20.1498 26.1374 20.7761 26.8882 21.1545L25.7884 21.4641C24.5737 21.3398 23.5847 20.5104 23.1818 19.3013C23.8504 19.1148 24.5325 19.1321 25.1455 19.3528ZM22.6459 20.0568C23.0288 20.8536 23.6382 21.4799 24.3886 21.8583L23.2885 22.168C22.0734 22.0437 21.0846 21.2143 20.6825 20.0051C21.3507 19.8185 22.0327 19.8359 22.6459 20.0568ZM18.9064 23.8077C19.4176 22.9194 20.2104 22.2975 21.138 22.0615C21.5286 22.3961 21.9834 22.6485 22.4833 22.8004C22.1359 23.1907 21.8791 23.6432 21.72 24.1323C20.8045 24.4147 19.8041 24.298 18.9064 23.8077ZM22.4018 26.1261C22.1154 24.8845 22.5275 23.6607 23.5002 22.9201L24.5997 22.6105C24.1563 23.3249 23.9625 24.177 24.0509 25.0562C23.6434 25.5647 23.0702 25.9358 22.4018 26.1261ZM24.902 25.4223C24.6156 24.1806 25.0278 22.9567 26.0006 22.2161L27.1 21.9066C26.6566 22.6208 26.4625 23.4728 26.5505 24.3521C26.1438 24.8607 25.5708 25.2319 24.902 25.4223ZM27.4014 24.7185C27.1157 23.4766 27.5283 22.2525 28.5009 21.5121L29.6003 21.2027C29.1568 21.917 28.9627 22.769 29.0507 23.6483C28.6439 24.1569 28.0706 24.5282 27.4014 24.7185ZM31.711 22.7261C31.2995 23.3489 30.6652 23.7982 29.9016 24.0148C29.6158 22.7727 30.0284 21.5486 31.0013 20.8082L32.1618 20.4814C32.2961 21.2878 32.1391 22.0781 31.711 22.7261Z" fill="black"/>
<path d="M37.9626 13.8209C37.4289 12.6886 36.5335 11.855 35.4517 11.4615C35.788 11.0085 36.0371 10.4716 36.1741 9.87274C36.2175 9.68328 36.115 9.49079 35.9336 9.42102C35.1834 9.13247 34.4011 9.05832 33.6668 9.19801C33.6691 9.18829 33.6717 9.17872 33.6739 9.16891C33.7173 8.97946 33.6148 8.78696 33.4334 8.71719C32.6832 8.42864 31.901 8.3545 31.1666 8.49418C31.1689 8.48446 31.1715 8.47489 31.1737 8.46508C31.2171 8.27563 31.1146 8.08313 30.9332 8.01337C30.1831 7.72485 29.401 7.65071 28.6667 7.79032C28.6689 7.78098 28.6714 7.7718 28.6736 7.76243C28.7169 7.57305 28.6145 7.38063 28.4332 7.31075C27.3336 6.887 26.1811 6.92602 25.188 7.42063C24.3047 7.86059 23.6372 8.61954 23.2818 9.57828C22.4157 9.42051 21.4919 9.34575 20.698 9.37184C19.5494 9.40965 18.6924 9.64192 18.1511 10.0623C17.9807 10.1946 17.9498 10.44 18.0821 10.6104C18.2144 10.7808 18.4598 10.8117 18.6302 10.6794C19.4275 10.0603 21.3969 10.0387 23.0759 10.3352C23.0092 10.7063 22.9923 11.0779 23.0265 11.4425C23.0466 11.6573 23.2372 11.815 23.4519 11.795C23.6667 11.7748 23.8245 11.5844 23.8043 11.3696C23.7781 11.0895 23.7897 10.8033 23.8377 10.5163L24.9993 10.8433C25.9718 11.5839 26.3839 12.8077 26.0976 14.0492C25.8549 13.9803 25.6245 13.8881 25.4095 13.7735C25.2191 13.6721 24.9825 13.7442 24.8811 13.9346C24.7796 14.125 24.8518 14.3616 25.0421 14.463C25.4275 14.6683 25.8509 14.8147 26.3007 14.898C26.3989 14.9163 26.502 14.8955 26.5856 14.8409C26.6709 14.7852 26.7203 14.7043 26.7514 14.6093C27.3057 15.1118 28.0116 15.4569 28.8014 15.602C28.8995 15.62 29.0024 15.5993 29.0858 15.5447C29.171 15.489 29.2205 15.408 29.2515 15.3131C29.806 15.8157 30.5119 16.1609 31.3017 16.3058C31.3998 16.3238 31.5026 16.303 31.5861 16.2485C31.6712 16.1928 31.7207 16.1118 31.7518 16.0169C32.3062 16.5195 33.0121 16.8647 33.8019 17.0096C33.991 17.0443 34.1821 16.9313 34.2429 16.7491C34.4375 16.166 34.5043 15.5776 34.453 15.0155C34.7278 15.0712 35.0067 15.0998 35.2867 15.0998C36.1557 15.0998 37.0338 14.8336 37.824 14.3139C37.9864 14.2069 38.0455 13.9968 37.9626 13.8209ZM35.3174 10.039C34.9153 11.2477 33.9262 12.0774 32.7102 12.2026L31.6098 11.8928C32.3607 11.5143 32.9702 10.8882 33.3528 10.0916C33.9648 9.86985 34.6471 9.85215 35.3174 10.039ZM32.8172 9.33516C32.4152 10.5438 31.4262 11.3734 30.2103 11.4988L29.1097 11.1889C29.8606 10.8105 30.47 10.1843 30.8527 9.38782C31.4646 9.16602 32.147 9.1484 32.8172 9.33516ZM30.317 8.63137C29.915 9.83993 28.9261 10.6696 27.7104 10.795L26.6101 10.4852C27.3609 10.1067 27.9704 9.48047 28.3529 8.68387C28.9647 8.46223 29.647 8.44461 30.317 8.63137ZM25.5364 8.12001C26.2316 7.77376 27.0301 7.70872 27.8168 7.9284C27.4148 9.13657 26.426 9.96594 25.2107 10.0912L24.048 9.76383C24.3415 9.03325 24.8602 8.45684 25.5364 8.12001ZM26.9487 13.6832C27.0371 12.804 26.8433 11.952 26.3999 11.2377L27.498 11.5468C28.4716 12.2871 28.8842 13.5112 28.5977 14.7531C27.9293 14.5628 27.3562 14.1917 26.9487 13.6832ZM29.4488 14.387C29.5372 13.5077 29.3433 12.6557 28.8997 11.9414L29.9983 12.2507C30.9715 12.991 31.3841 14.2149 31.0978 15.4569C30.4295 15.2668 29.8564 14.8957 29.4488 14.387ZM33.5978 16.1607C32.9295 15.9705 32.3564 15.5993 31.9489 15.0907C32.0371 14.2114 31.8432 13.3595 31.3998 12.6453L32.4987 12.9547C33.4711 13.6945 33.8834 14.9182 33.5978 16.1607ZM34.279 14.1667C34.1197 13.6775 33.8629 13.225 33.5155 12.8347C34.0153 12.6827 34.4702 12.4304 34.8607 12.0959C35.7878 12.3317 36.581 12.9536 37.093 13.8421C36.1938 14.3324 35.1931 14.4491 34.279 14.1667Z" fill="black"/>
<path d="M23.8087 12.657C23.6158 12.7535 23.5376 12.9882 23.634 13.1811L23.6351 13.1833C23.7035 13.3199 23.8407 13.3985 23.9835 13.3985C24.0424 13.3985 24.1023 13.3851 24.1587 13.3569C24.3516 13.2604 24.4293 13.0247 24.3328 12.8317C24.2363 12.6388 24.0017 12.5606 23.8087 12.657Z" fill="black"/>
</g>
<path d="M19.9303 39.555V42.305C19.5703 42.565 19.1853 42.76 18.7753 42.89C18.3686 43.0167 17.922 43.08 17.4353 43.08C16.8586 43.08 16.3386 42.9917 15.8753 42.815C15.412 42.635 15.0153 42.385 14.6853 42.065C14.3586 41.7417 14.107 41.355 13.9303 40.905C13.7536 40.455 13.6653 39.96 13.6653 39.42C13.6653 38.8733 13.7503 38.375 13.9203 37.925C14.0936 37.475 14.3386 37.09 14.6553 36.77C14.972 36.4467 15.357 36.1967 15.8103 36.02C16.2636 35.8433 16.7703 35.755 17.3303 35.755C17.6136 35.755 17.877 35.7767 18.1203 35.82C18.3636 35.86 18.5886 35.92 18.7953 36C19.002 36.0767 19.1936 36.1717 19.3703 36.285C19.547 36.395 19.712 36.52 19.8653 36.66L19.5903 37.1C19.547 37.1667 19.4903 37.21 19.4203 37.23C19.3536 37.2467 19.2786 37.23 19.1953 37.18C19.1153 37.1333 19.0236 37.0767 18.9203 37.01C18.817 36.9433 18.6903 36.88 18.5403 36.82C18.3936 36.7567 18.2186 36.7033 18.0153 36.66C17.8153 36.6167 17.577 36.595 17.3003 36.595C16.897 36.595 16.532 36.6617 16.2053 36.795C15.8786 36.925 15.6003 37.1133 15.3703 37.36C15.1403 37.6033 14.9636 37.9 14.8403 38.25C14.717 38.5967 14.6553 38.9867 14.6553 39.42C14.6553 39.87 14.7186 40.2733 14.8453 40.63C14.9753 40.9833 15.1586 41.285 15.3953 41.535C15.6353 41.7817 15.9253 41.97 16.2653 42.1C16.6053 42.23 16.987 42.295 17.4103 42.295C17.7436 42.295 18.0386 42.2583 18.2953 42.185C18.5553 42.1083 18.8086 42.0033 19.0553 41.87V40.295H17.9403C17.877 40.295 17.8253 40.2767 17.7853 40.24C17.7486 40.2033 17.7303 40.1583 17.7303 40.105V39.555H19.9303ZM22.0762 35.635V43H21.1862V35.635H22.0762ZM27.6845 37.935V43H27.1545C27.0278 43 26.9478 42.9383 26.9145 42.815L26.8445 42.27C26.6245 42.5133 26.3778 42.71 26.1045 42.86C25.8311 43.0067 25.5178 43.08 25.1645 43.08C24.8878 43.08 24.6428 43.035 24.4295 42.945C24.2195 42.8517 24.0428 42.7217 23.8995 42.555C23.7561 42.3883 23.6478 42.1867 23.5745 41.95C23.5045 41.7133 23.4695 41.4517 23.4695 41.165V37.935H24.3595V41.165C24.3595 41.5483 24.4461 41.845 24.6195 42.055C24.7961 42.265 25.0645 42.37 25.4245 42.37C25.6878 42.37 25.9328 42.3083 26.1595 42.185C26.3895 42.0583 26.6011 41.885 26.7945 41.665V37.935H27.6845ZM30.6506 43.08C30.2506 43.08 29.9423 42.9683 29.7256 42.745C29.5123 42.5217 29.4056 42.2 29.4056 41.78V38.68H28.7956C28.7423 38.68 28.6973 38.665 28.6606 38.635C28.624 38.6017 28.6056 38.5517 28.6056 38.485V38.13L29.4356 38.025L29.6406 36.46C29.6506 36.41 29.6723 36.37 29.7056 36.34C29.7423 36.3067 29.789 36.29 29.8456 36.29H30.2956V38.035H31.7606V38.68H30.2956V41.72C30.2956 41.9333 30.3473 42.0917 30.4506 42.195C30.554 42.2983 30.6873 42.35 30.8506 42.35C30.944 42.35 31.024 42.3383 31.0906 42.315C31.1606 42.2883 31.2206 42.26 31.2706 42.23C31.3206 42.2 31.3623 42.1733 31.3956 42.15C31.4323 42.1233 31.464 42.11 31.4906 42.11C31.5373 42.11 31.579 42.1383 31.6156 42.195L31.8756 42.62C31.7223 42.7633 31.5373 42.8767 31.3206 42.96C31.104 43.04 30.8806 43.08 30.6506 43.08ZM36.0403 39.915C36.0403 39.7083 36.0103 39.52 35.9503 39.35C35.8936 39.1767 35.8086 39.0283 35.6953 38.905C35.5853 38.7783 35.4503 38.6817 35.2903 38.615C35.1303 38.545 34.9486 38.51 34.7453 38.51C34.3186 38.51 33.9803 38.635 33.7303 38.885C33.4836 39.1317 33.3303 39.475 33.2703 39.915H36.0403ZM36.7603 42.29C36.6503 42.4233 36.5186 42.54 36.3653 42.64C36.212 42.7367 36.047 42.8167 35.8703 42.88C35.697 42.9433 35.517 42.99 35.3303 43.02C35.1436 43.0533 34.9586 43.07 34.7753 43.07C34.4253 43.07 34.102 43.0117 33.8053 42.895C33.512 42.775 33.257 42.6017 33.0403 42.375C32.827 42.145 32.6603 41.8617 32.5403 41.525C32.4203 41.1883 32.3603 40.8017 32.3603 40.365C32.3603 40.0117 32.4136 39.6817 32.5203 39.375C32.6303 39.0683 32.787 38.8033 32.9903 38.58C33.1936 38.3533 33.442 38.1767 33.7353 38.05C34.0286 37.92 34.3586 37.855 34.7253 37.855C35.0286 37.855 35.3086 37.9067 35.5653 38.01C35.8253 38.11 36.0486 38.2567 36.2353 38.45C36.4253 38.64 36.5736 38.8767 36.6803 39.16C36.787 39.44 36.8403 39.76 36.8403 40.12C36.8403 40.26 36.8253 40.3533 36.7953 40.4C36.7653 40.4467 36.7086 40.47 36.6253 40.47H33.2403C33.2503 40.79 33.2936 41.0683 33.3703 41.305C33.4503 41.5417 33.5603 41.74 33.7003 41.9C33.8403 42.0567 34.007 42.175 34.2003 42.255C34.3936 42.3317 34.6103 42.37 34.8503 42.37C35.0736 42.37 35.2653 42.345 35.4253 42.295C35.5886 42.2417 35.7286 42.185 35.8453 42.125C35.962 42.065 36.0586 42.01 36.1353 41.96C36.2153 41.9067 36.2836 41.88 36.3403 41.88C36.4136 41.88 36.4703 41.9083 36.5103 41.965L36.7603 42.29ZM38.7735 38.67C38.8835 38.5467 39.0002 38.435 39.1235 38.335C39.2468 38.235 39.3768 38.15 39.5135 38.08C39.6535 38.0067 39.8002 37.9517 39.9535 37.915C40.1102 37.875 40.2785 37.855 40.4585 37.855C40.7352 37.855 40.9785 37.9017 41.1885 37.995C41.4018 38.085 41.5785 38.215 41.7185 38.385C41.8618 38.5517 41.9702 38.7533 42.0435 38.99C42.1168 39.2267 42.1535 39.4883 42.1535 39.775V43H41.2585V39.775C41.2585 39.3917 41.1702 39.095 40.9935 38.885C40.8202 38.6717 40.5552 38.565 40.1985 38.565C39.9352 38.565 39.6885 38.6283 39.4585 38.755C39.2318 38.8817 39.0218 39.0533 38.8285 39.27V43H37.9335V37.935H38.4685C38.5952 37.935 38.6735 37.9967 38.7035 38.12L38.7735 38.67Z" fill="#4B513E"/>
<defs>
<filter id="filter0_d" x="10.5" y="0" width="35" height="35" filterUnits="userSpaceOnUse" color-interpolation-filters="sRGB">
<feFlood flood-opacity="0" result="BackgroundImageFix"/>
<feColorMatrix in="SourceAlpha" type="matrix" values="0 0 0 0 0 0 0 0 0 0 0 0 0 0 0 0 0 0 127 0"/>
<feMorphology radius="0.5" operator="dilate" in="SourceAlpha" result="effect1_dropShadow"/>
<feOffset dy="0.5"/>
<feGaussianBlur stdDeviation="0.5"/>
<feColorMatrix type="matrix" values="0 0 0 0 0.445833 0 0 0 0 0.13375 0 0 0 0 0.13375 0 0 0 0.1 0"/>
<feBlend mode="normal" in2="BackgroundImageFix" result="effect1_dropShadow"/>
<feBlend mode="normal" in="SourceGraphic" in2="effect1_dropShadow" result="shape"/>
</filter>
</defs>
</svg>

