<svg width="56" height="57" viewBox="0 0 56 57" fill="none" xmlns="http://www.w3.org/2000/svg">
<g filter="url(#filter0_d)">
<rect x="12" y="1" width="32" height="32" rx="16" fill="white"/>
<g clip-path="url(#clip0)">
<path d="M32.1643 23.5211C32.8948 21.6137 32.2844 19.6004 30.4789 17.829C28.6513 16.036 26.571 15.4434 24.606 16.2013C25.9239 18.1976 27.2397 17.9816 27.2397 17.9816C25.7262 19.7294 26.3447 21.326 26.4472 21.5585C26.6842 21.6591 28.3116 22.2658 30.093 20.781C30.093 20.7808 29.8537 22.178 32.1643 23.5211Z" fill="#188161"/>
<path d="M30.093 20.7807C28.3115 22.2655 26.6842 21.6588 26.4472 21.5582C26.3447 21.3256 25.7262 19.7291 27.2397 17.9813C27.2397 17.9813 26.1644 18.152 24.9847 16.7122C24.3938 16.9619 23.8156 17.3532 23.2643 17.8941C21.0838 20.0336 20.8044 25.0731 21.9483 26.1953C23.1861 27.4403 28.2287 27.0434 30.4094 24.9039C30.9739 24.3501 31.3764 23.7687 31.6299 23.1747C29.8993 21.9483 30.093 20.7807 30.093 20.7807Z" fill="#7A543C" stroke="black" stroke-width="0.7"/>
<path d="M27.0185 24.267L27.0184 24.2672L27.0185 24.267Z" fill="black" stroke="black" stroke-width="0.5"/>
<path d="M23.7677 21.1057C23.7677 21.1057 23.7677 21.1057 23.7677 21.1057C23.7677 21.1057 23.7677 21.1056 23.7677 21.1056L23.7677 21.1057Z" fill="black" stroke="black" stroke-width="0.5"/>
<mask id="path-6-inside-1" fill="white">
<path d="M21.9335 26.4044C21.8737 26.4044 21.8136 26.3824 21.7677 26.3392C21.659 26.2368 21.6104 26.0822 21.6235 25.8796C21.671 25.1462 22.5746 23.6346 23.5619 22.9159C23.6643 22.8412 23.8091 22.862 23.8855 22.9629C23.9617 23.0635 23.9401 23.2056 23.8376 23.2803C22.7253 24.0901 21.9513 25.7557 22.0948 26.0193C22.1869 26.1063 22.1867 26.2461 22.0983 26.3365C22.0536 26.3819 21.9936 26.4044 21.9335 26.4044Z"/>
</mask>
<path d="M21.9335 26.4044C21.8737 26.4044 21.8136 26.3824 21.7677 26.3392C21.659 26.2368 21.6104 26.0822 21.6235 25.8796C21.671 25.1462 22.5746 23.6346 23.5619 22.9159C23.6643 22.8412 23.8091 22.862 23.8855 22.9629C23.9617 23.0635 23.9401 23.2056 23.8376 23.2803C22.7253 24.0901 21.9513 25.7557 22.0948 26.0193C22.1869 26.1063 22.1867 26.2461 22.0983 26.3365C22.0536 26.3819 21.9936 26.4044 21.9335 26.4044Z" fill="black"/>
<path d="M21.7677 26.3392L22.1105 25.9752L22.1105 25.9752L21.7677 26.3392ZM21.6235 25.8796L22.1225 25.9121L22.1225 25.9119L21.6235 25.8796ZM23.5619 22.9159L23.8562 23.3201L23.8568 23.3197L23.5619 22.9159ZM23.8855 22.9629L24.2842 22.6611L24.2841 22.6609L23.8855 22.9629ZM23.8376 23.2803L24.1319 23.6846L24.132 23.6844L23.8376 23.2803ZM22.0948 26.0193L21.6556 26.2583L21.6937 26.3282L21.7515 26.3829L22.0948 26.0193ZM22.0983 26.3365L22.4547 26.6871L22.4557 26.6862L22.0983 26.3365ZM21.9335 25.9044C21.9944 25.9044 22.0588 25.9265 22.1105 25.9752L21.425 26.7033C21.5684 26.8383 21.7531 26.9044 21.9335 26.9044V25.9044ZM22.1105 25.9752C22.1159 25.9803 22.1205 25.9861 22.1238 25.9915C22.127 25.9967 22.1276 25.9993 22.127 25.9973C22.1254 25.9923 22.1189 25.967 22.1225 25.9121L21.1246 25.8471C21.1054 26.1424 21.1724 26.4654 21.425 26.7033L22.1105 25.9752ZM22.1225 25.9119C22.1378 25.6753 22.3181 25.2025 22.6624 24.6603C22.996 24.1348 23.4288 23.6312 23.8562 23.3201L23.2677 22.5116C22.7077 22.9192 22.195 23.5308 21.8182 24.1242C21.452 24.7008 21.1567 25.3506 21.1246 25.8474L22.1225 25.9119ZM23.8568 23.3197C23.7403 23.4047 23.5764 23.3828 23.487 23.2648L24.2841 22.6609C24.0419 22.3413 23.5882 22.2776 23.2671 22.5121L23.8568 23.3197ZM23.4869 23.2646C23.3923 23.1397 23.4222 22.9643 23.5432 22.8762L24.132 23.6844C24.4581 23.4469 24.5311 22.9873 24.2842 22.6611L23.4869 23.2646ZM23.5433 22.8761C22.9104 23.3369 22.3963 24.02 22.0611 24.6065C21.892 24.9024 21.759 25.1902 21.6766 25.4335C21.6358 25.5538 21.6026 25.6773 21.5872 25.7933C21.5756 25.8805 21.5562 26.0757 21.6556 26.2583L22.5339 25.7803C22.5975 25.897 22.5709 25.9825 22.5785 25.9249C22.5823 25.8963 22.5947 25.84 22.6237 25.7544C22.6808 25.586 22.7839 25.3573 22.9294 25.1027C23.2234 24.5881 23.6525 24.0335 24.1319 23.6846L23.5433 22.8761ZM21.7515 26.3829C21.6316 26.2696 21.6423 26.0876 21.7408 25.9869L22.4557 26.6862C22.7311 26.4047 22.7422 25.9429 22.438 25.6557L21.7515 26.3829ZM21.7418 25.9859C21.7983 25.9284 21.8702 25.9044 21.9335 25.9044V26.9044C22.117 26.9044 22.3088 26.8355 22.4547 26.6871L21.7418 25.9859Z" fill="black" mask="url(#path-6-inside-1)"/>
</g>
<g clip-path="url(#clip1)">
<path d="M19.8304 13.5388C18.7717 16.1677 19.7166 17.9479 21.4898 18.6353L25.496 8.68718C24.6314 8.352 20.8891 10.9099 19.8304 13.5388Z" fill="#F2CA79"/>
<path d="M24.75 8.78248L21.6761 16.4156C21.3387 17.2533 20.2955 17.4562 19.6533 16.9509C19.9969 17.7399 20.6506 18.31 21.4897 18.6353L25.496 8.68716C25.3351 8.62478 25.0745 8.66262 24.75 8.78248Z" fill="#F2CA79"/>
<path d="M25.4961 8.68726L21.4898 18.6354C23.263 19.3227 25.193 18.6568 26.2517 16.0279C27.3104 13.399 26.3607 9.02243 25.4961 8.68726Z" fill="#F9EFAF"/>
<path d="M25.4961 8.68726L25.444 8.81662C26.0438 10.2873 26.4039 13.3071 25.5968 15.3113C24.7065 17.5221 23.1999 18.3446 21.6887 18.1415L21.4898 18.6354C23.263 19.3227 25.193 18.6568 26.2517 16.0279C27.3104 13.399 26.3607 9.02243 25.4961 8.68726Z" fill="#F6E781"/>
<path d="M25.8686 11.8546C25.7915 11.2248 25.6605 10.6101 25.4996 10.1235C25.3803 9.76258 25.2687 9.54482 25.1964 9.4314L21.7719 17.9348C22.2696 18.1277 23.0247 18.2784 23.7961 17.9011C24.5095 17.5521 25.1117 16.8087 25.5376 15.7511C25.9315 14.7731 26.0521 13.3528 25.8686 11.8546Z" fill="#AF7E56"/>
<path d="M25.8789 14.3745C25.8079 14.703 25.7148 15.0179 25.5967 15.311C24.8943 17.0553 23.8082 17.9354 22.639 18.1294C22.9976 18.1506 23.3946 18.0972 23.796 17.9009C24.5094 17.5519 25.1116 16.8085 25.5375 15.7509C25.6965 15.3561 25.811 14.8893 25.8789 14.3745Z" fill="#CE9875"/>
<path d="M26.3438 10.9984C26.3609 11.0863 26.4472 11.1434 26.5362 11.1268C26.6255 11.11 26.6841 11.0255 26.667 10.938C26.5699 10.4381 26.2028 8.78753 25.5565 8.53701C25.2976 8.43666 24.8825 8.52143 24.3228 8.78899C23.8148 9.03184 23.2231 9.40893 22.6295 9.87671C21.4254 10.8256 20.2137 12.1476 19.6774 13.4794C19.2255 14.6015 19.1082 15.6188 19.3289 16.5031C19.3505 16.5897 19.4396 16.6427 19.5278 16.6215C19.6161 16.6003 19.6701 16.5129 19.6485 16.4263C19.4444 15.6083 19.5571 14.6567 19.9834 13.598C20.4414 12.4609 21.4822 11.1959 22.839 10.1273C23.895 9.29557 24.8277 8.8472 25.2661 8.81896L21.3985 18.4226C20.7357 18.1324 20.2239 17.6804 19.9123 17.1078C19.8695 17.0292 19.7698 16.9995 19.6897 17.0415C19.6095 17.0835 19.5792 17.1812 19.622 17.2599C19.9942 17.9438 20.6192 18.4713 21.4293 18.7854C22.3958 19.16 23.3581 19.1373 24.212 18.7196C25.1346 18.2683 25.8928 17.358 26.4046 16.0871C26.7616 15.2008 26.9244 14.0216 26.8754 12.75C26.8678 12.5527 26.8754 12.3304 26.667 12.3453C26.4587 12.3602 26.5383 12.5493 26.5463 12.75C26.5955 13.9816 26.4407 15.1192 26.0986 15.9685C25.1903 18.224 23.5558 19.1756 21.7044 18.5414L21.8659 18.1404C22.3899 18.3146 23.1206 18.4117 23.8694 18.0454C24.6198 17.6784 25.2495 16.9055 25.6906 15.8103C26.0942 14.8082 26.2186 13.3593 26.032 11.8352C25.9437 11.1147 25.7291 10.0366 25.3788 9.41747L25.5718 8.9383C25.822 9.20216 26.1345 9.92109 26.3438 10.9984ZM22.0145 17.7714L24.9085 10.5853C25.1917 10.3692 25.1917 10.3692 25.1917 10.3692C25.1917 10.3692 25.1947 10.4334 25.2038 10.8095C25.2381 12.2154 24.8739 14.0254 24.3493 15.3279C23.228 18.1125 22.3838 17.8072 22.0145 17.7714ZM25.3845 15.6917C24.9522 16.7652 24.1976 17.8317 23.0225 17.9593C23.85 17.4818 24.3006 16.3274 24.6554 15.4465C25.1879 14.1242 25.5601 12.3109 25.5343 10.876C25.8563 12.3149 25.9376 14.3183 25.3845 15.6917Z" fill="black" stroke="black" stroke-width="0.3"/>
<path d="M22.2987 12.2118C22.1266 12.1451 22.0418 11.9533 22.1099 11.7844C22.1617 11.6557 22.0974 11.5103 21.9663 11.4594C21.8351 11.4086 21.6868 11.4717 21.635 11.6003C21.4636 12.0261 21.6771 12.5094 22.1111 12.6777C22.5452 12.8459 23.0377 12.6364 23.2092 12.2105C23.3807 11.7847 23.1671 11.3015 22.7331 11.1332C22.6019 11.0824 22.4537 11.1455 22.4019 11.2741C22.3501 11.4028 22.4143 11.5482 22.5455 11.5991C22.7177 11.6658 22.8024 11.8576 22.7344 12.0265C22.6664 12.1954 22.4709 12.2786 22.2987 12.2118Z" fill="black"/>
<path d="M21.0488 15.4513C20.9152 15.3996 20.8496 15.2509 20.9023 15.1199C20.9551 14.9889 21.1066 14.9245 21.2401 14.9762C21.3726 15.0276 21.5224 14.9638 21.5747 14.8339C21.627 14.7039 21.5621 14.557 21.4296 14.5056C21.0316 14.3513 20.5799 14.5435 20.4226 14.934C20.2654 15.3245 20.4613 15.7677 20.8593 15.9219C21.2573 16.0762 21.709 15.8841 21.8663 15.4936C21.9186 15.3636 21.8537 15.2167 21.7212 15.1653C21.5887 15.114 21.4389 15.1777 21.3866 15.3076C21.3338 15.4386 21.1823 15.5031 21.0488 15.4513Z" fill="black"/>
<path d="M23.7697 10.4941C23.8542 10.5268 23.9498 10.4862 23.9832 10.4033C24.0165 10.3204 23.9751 10.2266 23.8906 10.1938C23.8061 10.1611 23.7105 10.2017 23.6771 10.2846C23.6437 10.3676 23.6852 10.4613 23.7697 10.4941Z" fill="black" stroke="black" stroke-width="0.4"/>
<path d="M26.653 11.8596C26.7375 11.8923 26.8331 11.8517 26.8665 11.7687C26.8999 11.6858 26.8584 11.5921 26.7739 11.5593C26.6894 11.5266 26.5938 11.5672 26.5605 11.6501C26.5271 11.733 26.5685 11.8268 26.653 11.8596Z" fill="black" stroke="black" stroke-width="0.4"/>
<path d="M20.2905 14.0344C20.375 14.0671 20.4706 14.0265 20.504 13.9436C20.5374 13.8606 20.4959 13.7669 20.4114 13.7341C20.3269 13.7014 20.2313 13.742 20.1979 13.8249C20.1645 13.9078 20.206 14.0016 20.2905 14.0344Z" fill="black" stroke="black" stroke-width="0.4"/>
<path d="M21.0291 17.2048C21.1136 17.2375 21.2092 17.1969 21.2426 17.114C21.276 17.0311 21.2345 16.9373 21.15 16.9045C21.0655 16.8718 20.9699 16.9124 20.9366 16.9953C20.9032 17.0782 20.9446 17.172 21.0291 17.2048Z" fill="black" stroke="black" stroke-width="0.4"/>
</g>
<g clip-path="url(#clip2)">
<path d="M32.9683 20.4423C33.1459 20.4595 33.3248 20.4677 33.5044 20.4664C33.6696 20.4652 33.835 20.4862 33.9965 20.5288L34.5902 20.6853C34.7351 20.7235 34.886 20.6803 34.9872 20.5717L35.402 20.1265C35.5148 20.0054 35.6428 19.9005 35.7827 19.8144C35.9348 19.7207 36.0812 19.6195 36.2215 19.5112C35.8711 19.376 35.2447 19.2327 34.442 19.4625C33.6393 19.6922 33.1896 20.1434 32.9683 20.4423Z" fill="#F2CA79"/>
<path d="M36.3524 10.9997C35.0296 10.0016 33.2389 9.98812 31.7516 10.4138C30.2643 10.8394 28.7619 11.7953 28.1935 13.3346C29.0661 13.506 30.5939 13.6296 32.5422 13.072C34.4902 12.5145 35.7105 11.6046 36.3524 10.9997Z" fill="#F2CA79"/>
<path d="M36.7327 11.3273C36.6111 11.2079 36.4841 11.0989 36.3524 10.9995C35.7105 11.6044 34.4902 12.5143 32.5422 13.0718C30.5938 13.6294 29.0661 13.5058 28.1934 13.3344C28.1368 13.4876 28.0895 13.6467 28.0523 13.8116C27.284 17.2218 29.9372 20.1484 32.9683 20.4423C33.1896 20.1434 33.6393 19.6922 34.442 19.4624C35.2447 19.2327 35.8711 19.376 36.2215 19.5112C38.6125 17.6669 39.2535 13.8014 36.7327 11.3273Z" fill="#AF7E56"/>
<path d="M36.7328 11.3272C36.6112 11.2078 36.4841 11.0987 36.3525 10.9994C36.2388 11.1065 36.1071 11.2231 35.9564 11.3456C38.2588 13.8236 37.591 17.5419 35.2604 19.3396C35.2597 19.3401 35.259 19.3406 35.2584 19.3411C35.672 19.3379 36.0014 19.426 36.2216 19.511C38.6126 17.6668 39.2535 13.8012 36.7328 11.3272Z" fill="#AF7E56"/>
<path d="M37.75 17.4999C37.8345 17.5327 37.9301 17.492 37.9635 17.4091C37.9969 17.3262 37.9554 17.2325 37.8709 17.1997C37.7864 17.1669 37.6908 17.2076 37.6574 17.2905C37.6241 17.3734 37.6655 17.4672 37.75 17.4999Z" fill="black" stroke="black" stroke-width="0.4"/>
<path d="M29.7574 11.9855C29.673 11.9533 29.5781 11.9943 29.5452 12.077C29.4451 12.3293 29.3646 12.6001 29.306 12.882C29.2812 13.0012 29.3951 13.1021 29.5123 13.0685C29.5687 13.0524 29.6145 13.0068 29.6271 12.9463C29.682 12.6822 29.7572 12.429 29.8506 12.1936C29.8834 12.1109 29.8417 12.0177 29.7574 11.9855Z" fill="black" stroke="black" stroke-width="0.3"/>
<path d="M34.5234 10.6522C34.4504 10.5998 34.3479 10.6153 34.2944 10.687C34.2409 10.7586 34.2568 10.8592 34.3298 10.9116C34.5381 11.0612 34.7407 11.2355 34.9323 11.4298C34.976 11.4742 35.0396 11.4886 35.0961 11.4724C35.2132 11.4389 35.254 11.2938 35.1678 11.2063C34.9634 10.9989 34.7466 10.8125 34.5234 10.6522Z" fill="black" stroke="black" stroke-width="0.3"/>
<path d="M31.0982 11.1004C31.0087 11.0873 30.9253 11.1478 30.912 11.2356C30.8452 11.6745 30.8402 12.2125 30.8969 12.8348C30.9062 12.9356 31.0069 13.0031 31.1062 12.9747C31.1798 12.9536 31.2304 12.8839 31.2233 12.8061C31.1689 12.2092 31.1732 11.6968 31.2361 11.2831C31.2495 11.1953 31.1877 11.1135 31.0982 11.1004Z" fill="black" stroke="black" stroke-width="0.3"/>
<path d="M32.9099 10.664C32.8505 10.597 32.7471 10.59 32.6788 10.6482C32.6105 10.7064 32.6033 10.8079 32.6627 10.8749C32.9427 11.1908 33.2273 11.621 33.5087 12.1536C33.5454 12.2229 33.6263 12.255 33.6999 12.234C33.7994 12.2055 33.847 12.0952 33.7997 12.0056C33.5063 11.4505 33.207 10.9991 32.9099 10.664Z" fill="black" stroke="black" stroke-width="0.3"/>
<path d="M36.8352 11.2005C35.4979 9.89899 33.4811 9.74278 31.6754 10.268C29.8893 10.7886 28.3157 11.9717 27.9003 13.7421C27.5388 15.2766 27.8446 16.8955 28.8384 18.2402C29.9169 19.6996 31.6759 20.6403 33.5057 20.6271C33.656 20.626 33.8069 20.6452 33.954 20.684L34.5477 20.8405C34.7511 20.8942 34.966 20.8328 35.1082 20.6801L35.523 20.235C35.6258 20.1246 35.7425 20.0289 35.8699 19.9505C36.3949 19.6274 36.8647 19.2086 37.2584 18.7132C37.314 18.6432 37.3013 18.5421 37.2299 18.4876C37.1585 18.433 37.0556 18.4455 36.9999 18.5155C36.7593 18.8183 36.4877 19.0916 36.1916 19.3288C36.1853 19.3266 36.179 19.3244 36.1725 19.3223C37.3398 17.5761 37.3514 14.302 35.5972 11.8207C35.8973 11.6098 36.1506 11.4028 36.3607 11.2127C36.4479 11.2832 36.5338 11.3594 36.6169 11.4409C37.9056 12.7058 38.3062 14.26 38.153 15.6842C38.1153 16.0355 38.097 16.1992 38.25 16.25C38.403 16.3009 38.4419 16.0358 38.4734 15.75C38.5153 15.3704 38.5192 14.9877 38.4834 14.6092C38.3583 13.2829 37.7663 12.1053 36.8352 11.2005ZM29.1036 18.0515C28.1951 16.8221 27.8785 15.3289 28.2122 13.8469C28.2369 13.7375 28.2667 13.629 28.3033 13.5184C28.6174 13.5737 28.9443 13.6102 29.2804 13.6277C29.1607 16.6518 30.9707 19.4032 32.9062 20.2571C32.9019 20.2623 32.8978 20.2675 32.8936 20.2727C31.4208 20.1026 30.0096 19.2772 29.1036 18.0515ZM35.6957 19.6782C35.5433 19.772 35.4038 19.8863 35.2811 20.018L34.8663 20.4632C34.8062 20.5277 34.7189 20.5528 34.6328 20.53L34.0391 20.3735C33.8634 20.3272 33.6831 20.3044 33.5033 20.3056C33.4362 20.3061 33.3687 20.3052 33.301 20.3029C33.4177 20.1784 33.6051 20.0256 33.8139 19.9025C33.8382 19.891 34.0794 19.7336 34.4879 19.6167C34.892 19.5011 35.1917 19.5046 35.213 19.5022C35.4559 19.4958 35.6991 19.5258 35.8648 19.5692C35.809 19.6068 35.7526 19.6432 35.6957 19.6782ZM36.6554 15.9054C36.7176 17.2157 36.4204 18.421 35.8379 19.2336C35.6991 19.206 35.5458 19.1867 35.3792 19.1812C35.5086 17.9609 35.2284 16.0499 34.6468 14.2315C34.6197 14.1467 34.5276 14.0994 34.4414 14.1262C34.3551 14.1528 34.307 14.243 34.3341 14.3277C34.9105 16.1298 35.1857 18.0145 35.0488 19.1888C34.6168 19.2224 34.1639 19.3519 33.7808 19.5516C32.9107 18.4944 31.8078 16.0897 31.3676 13.5026C32.1817 13.3668 33.0123 13.1287 33.7687 12.8161C33.8748 13.0612 33.977 13.3151 34.0731 13.5731C34.1043 13.6567 34.1988 13.6994 34.2833 13.6688C34.3683 13.6384 34.4119 13.546 34.3809 13.4627C34.2823 13.1983 34.1775 12.9379 34.0686 12.6866C34.5493 12.4698 34.9672 12.2362 35.3271 12.003C36.1183 13.1215 36.5887 14.5008 36.6554 15.9054ZM30.5545 13.2825C30.4643 13.2904 30.3979 13.3685 30.4059 13.457C30.414 13.5454 30.4936 13.6106 30.5837 13.6027C30.7363 13.5893 30.8897 13.5722 31.0437 13.5515C31.2484 14.7554 31.6094 16.0062 32.0915 17.1793C32.5273 18.2397 33.0222 19.1323 33.498 19.7196C33.3605 19.8121 33.2418 19.9093 33.1397 20.0058C31.2998 19.2617 29.4891 16.5841 29.6079 13.6387C29.6707 13.6397 29.7339 13.64 29.7973 13.6397C29.8878 13.6392 29.9607 13.5668 29.9602 13.4781C29.9597 13.3893 29.886 13.3177 29.7955 13.3182C29.3414 13.3206 28.8774 13.2886 28.4207 13.2122C28.7456 12.4684 29.3287 11.818 30.107 11.3186C31.7823 10.2569 34.3446 9.84663 36.0939 11.0164C34.6056 12.3409 32.4713 13.114 30.5545 13.2825Z" fill="black" stroke="black" stroke-width="0.3"/>
</g>
</g>
<path d="M15.886 36.625V39.13H18.831V39.92H15.886V43H14.916V35.835H19.331V36.625H15.886ZM20.7756 38.95C20.9356 38.6033 21.1323 38.3333 21.3656 38.14C21.5989 37.9433 21.8839 37.845 22.2206 37.845C22.3273 37.845 22.4289 37.8567 22.5256 37.88C22.6256 37.9033 22.7139 37.94 22.7906 37.99L22.7256 38.655C22.7056 38.7383 22.6556 38.78 22.5756 38.78C22.5289 38.78 22.4606 38.77 22.3706 38.75C22.2806 38.73 22.1789 38.72 22.0656 38.72C21.9056 38.72 21.7623 38.7433 21.6356 38.79C21.5123 38.8367 21.4006 38.9067 21.3006 39C21.2039 39.09 21.1156 39.2033 21.0356 39.34C20.9589 39.4733 20.8889 39.6267 20.8256 39.8V43H19.9306V37.935H20.4406C20.5373 37.935 20.6039 37.9533 20.6406 37.99C20.6773 38.0267 20.7023 38.09 20.7156 38.18L20.7756 38.95ZM27.7382 37.935V43H27.2082C27.0815 43 27.0015 42.9383 26.9682 42.815L26.8982 42.27C26.6782 42.5133 26.4315 42.71 26.1582 42.86C25.8848 43.0067 25.5715 43.08 25.2182 43.08C24.9415 43.08 24.6965 43.035 24.4832 42.945C24.2732 42.8517 24.0965 42.7217 23.9532 42.555C23.8098 42.3883 23.7015 42.1867 23.6282 41.95C23.5582 41.7133 23.5232 41.4517 23.5232 41.165V37.935H24.4132V41.165C24.4132 41.5483 24.4998 41.845 24.6732 42.055C24.8498 42.265 25.1182 42.37 25.4782 42.37C25.7415 42.37 25.9865 42.3083 26.2132 42.185C26.4432 42.0583 26.6548 41.885 26.8482 41.665V37.935H27.7382ZM30.7043 43.08C30.3043 43.08 29.996 42.9683 29.7793 42.745C29.566 42.5217 29.4593 42.2 29.4593 41.78V38.68H28.8493C28.796 38.68 28.751 38.665 28.7143 38.635C28.6777 38.6017 28.6593 38.5517 28.6593 38.485V38.13L29.4893 38.025L29.6943 36.46C29.7043 36.41 29.726 36.37 29.7593 36.34C29.796 36.3067 29.8427 36.29 29.8993 36.29H30.3493V38.035H31.8143V38.68H30.3493V41.72C30.3493 41.9333 30.401 42.0917 30.5043 42.195C30.6077 42.2983 30.741 42.35 30.9043 42.35C30.9977 42.35 31.0777 42.3383 31.1443 42.315C31.2143 42.2883 31.2743 42.26 31.3243 42.23C31.3743 42.2 31.416 42.1733 31.4493 42.15C31.486 42.1233 31.5177 42.11 31.5443 42.11C31.591 42.11 31.6327 42.1383 31.6693 42.195L31.9293 42.62C31.776 42.7633 31.591 42.8767 31.3743 42.96C31.1577 43.04 30.9343 43.08 30.7043 43.08ZM34.839 37.855C35.209 37.855 35.5424 37.9167 35.839 38.04C36.1357 38.1633 36.389 38.3383 36.599 38.565C36.809 38.7917 36.969 39.0667 37.079 39.39C37.1924 39.71 37.249 40.0683 37.249 40.465C37.249 40.865 37.1924 41.225 37.079 41.545C36.969 41.865 36.809 42.1383 36.599 42.365C36.389 42.5917 36.1357 42.7667 35.839 42.89C35.5424 43.01 35.209 43.07 34.839 43.07C34.4657 43.07 34.129 43.01 33.829 42.89C33.5324 42.7667 33.279 42.5917 33.069 42.365C32.859 42.1383 32.6974 41.865 32.584 41.545C32.474 41.225 32.419 40.865 32.419 40.465C32.419 40.0683 32.474 39.71 32.584 39.39C32.6974 39.0667 32.859 38.7917 33.069 38.565C33.279 38.3383 33.5324 38.1633 33.829 38.04C34.129 37.9167 34.4657 37.855 34.839 37.855ZM34.839 42.375C35.339 42.375 35.7124 42.2083 35.959 41.875C36.2057 41.5383 36.329 41.07 36.329 40.47C36.329 39.8667 36.2057 39.3967 35.959 39.06C35.7124 38.7233 35.339 38.555 34.839 38.555C34.5857 38.555 34.364 38.5983 34.174 38.685C33.9874 38.7717 33.8307 38.8967 33.704 39.06C33.5807 39.2233 33.4874 39.425 33.424 39.665C33.364 39.9017 33.334 40.17 33.334 40.47C33.334 41.07 33.4574 41.5383 33.704 41.875C33.954 42.2083 34.3324 42.375 34.839 42.375ZM41.3279 38.77C41.2879 38.8433 41.2262 38.88 41.1429 38.88C41.0929 38.88 41.0362 38.8617 40.9729 38.825C40.9095 38.7883 40.8312 38.7483 40.7379 38.705C40.6479 38.6583 40.5395 38.6167 40.4129 38.58C40.2862 38.54 40.1362 38.52 39.9629 38.52C39.8129 38.52 39.6779 38.54 39.5579 38.58C39.4379 38.6167 39.3345 38.6683 39.2479 38.735C39.1645 38.8017 39.0995 38.88 39.0529 38.97C39.0095 39.0567 38.9879 39.1517 38.9879 39.255C38.9879 39.385 39.0245 39.4933 39.0979 39.58C39.1745 39.6667 39.2745 39.7417 39.3979 39.805C39.5212 39.8683 39.6612 39.925 39.8179 39.975C39.9745 40.0217 40.1345 40.0733 40.2979 40.13C40.4645 40.1833 40.6262 40.2433 40.7829 40.31C40.9395 40.3767 41.0795 40.46 41.2029 40.56C41.3262 40.66 41.4245 40.7833 41.4979 40.93C41.5745 41.0733 41.6129 41.2467 41.6129 41.45C41.6129 41.6833 41.5712 41.9 41.4879 42.1C41.4045 42.2967 41.2812 42.4683 41.1179 42.615C40.9545 42.7583 40.7545 42.8717 40.5179 42.955C40.2812 43.0383 40.0079 43.08 39.6979 43.08C39.3445 43.08 39.0245 43.0233 38.7379 42.91C38.4512 42.7933 38.2079 42.645 38.0079 42.465L38.2179 42.125C38.2445 42.0817 38.2762 42.0483 38.3129 42.025C38.3495 42.0017 38.3962 41.99 38.4529 41.99C38.5129 41.99 38.5762 42.0133 38.6429 42.06C38.7095 42.1067 38.7895 42.1583 38.8829 42.215C38.9795 42.2717 39.0962 42.3233 39.2329 42.37C39.3695 42.4167 39.5395 42.44 39.7429 42.44C39.9162 42.44 40.0679 42.4183 40.1979 42.375C40.3279 42.3283 40.4362 42.2667 40.5229 42.19C40.6095 42.1133 40.6729 42.025 40.7129 41.925C40.7562 41.825 40.7779 41.7183 40.7779 41.605C40.7779 41.465 40.7395 41.35 40.6629 41.26C40.5895 41.1667 40.4912 41.0883 40.3679 41.025C40.2445 40.9583 40.1029 40.9017 39.9429 40.855C39.7862 40.805 39.6245 40.7533 39.4579 40.7C39.2945 40.6467 39.1329 40.5867 38.9729 40.52C38.8162 40.45 38.6762 40.3633 38.5529 40.26C38.4295 40.1567 38.3295 40.03 38.2529 39.88C38.1795 39.7267 38.1429 39.5417 38.1429 39.325C38.1429 39.1317 38.1829 38.9467 38.2629 38.77C38.3429 38.59 38.4595 38.4333 38.6129 38.3C38.7662 38.1633 38.9545 38.055 39.1779 37.975C39.4012 37.895 39.6562 37.855 39.9429 37.855C40.2762 37.855 40.5745 37.9083 40.8379 38.015C41.1045 38.1183 41.3345 38.2617 41.5279 38.445L41.3279 38.77ZM19.5066 50.77C19.4666 50.8433 19.4049 50.88 19.3216 50.88C19.2716 50.88 19.2149 50.8617 19.1516 50.825C19.0882 50.7883 19.0099 50.7483 18.9166 50.705C18.8266 50.6583 18.7182 50.6167 18.5916 50.58C18.4649 50.54 18.3149 50.52 18.1416 50.52C17.9916 50.52 17.8566 50.54 17.7366 50.58C17.6166 50.6167 17.5132 50.6683 17.4266 50.735C17.3432 50.8017 17.2782 50.88 17.2316 50.97C17.1882 51.0567 17.1666 51.1517 17.1666 51.255C17.1666 51.385 17.2032 51.4933 17.2766 51.58C17.3532 51.6667 17.4532 51.7417 17.5766 51.805C17.6999 51.8683 17.8399 51.925 17.9966 51.975C18.1532 52.0217 18.3132 52.0733 18.4766 52.13C18.6432 52.1833 18.8049 52.2433 18.9616 52.31C19.1182 52.3767 19.2582 52.46 19.3816 52.56C19.5049 52.66 19.6032 52.7833 19.6766 52.93C19.7532 53.0733 19.7916 53.2467 19.7916 53.45C19.7916 53.6833 19.7499 53.9 19.6666 54.1C19.5832 54.2967 19.4599 54.4683 19.2966 54.615C19.1332 54.7583 18.9332 54.8717 18.6966 54.955C18.4599 55.0383 18.1866 55.08 17.8766 55.08C17.5232 55.08 17.2032 55.0233 16.9166 54.91C16.6299 54.7933 16.3866 54.645 16.1866 54.465L16.3966 54.125C16.4232 54.0817 16.4549 54.0483 16.4916 54.025C16.5282 54.0017 16.5749 53.99 16.6316 53.99C16.6916 53.99 16.7549 54.0133 16.8216 54.06C16.8882 54.1067 16.9682 54.1583 17.0616 54.215C17.1582 54.2717 17.2749 54.3233 17.4116 54.37C17.5482 54.4167 17.7182 54.44 17.9216 54.44C18.0949 54.44 18.2466 54.4183 18.3766 54.375C18.5066 54.3283 18.6149 54.2667 18.7016 54.19C18.7882 54.1133 18.8516 54.025 18.8916 53.925C18.9349 53.825 18.9566 53.7183 18.9566 53.605C18.9566 53.465 18.9182 53.35 18.8416 53.26C18.7682 53.1667 18.6699 53.0883 18.5466 53.025C18.4232 52.9583 18.2816 52.9017 18.1216 52.855C17.9649 52.805 17.8032 52.7533 17.6366 52.7C17.4732 52.6467 17.3116 52.5867 17.1516 52.52C16.9949 52.45 16.8549 52.3633 16.7316 52.26C16.6082 52.1567 16.5082 52.03 16.4316 51.88C16.3582 51.7267 16.3216 51.5417 16.3216 51.325C16.3216 51.1317 16.3616 50.9467 16.4416 50.77C16.5216 50.59 16.6382 50.4333 16.7916 50.3C16.9449 50.1633 17.1332 50.055 17.3566 49.975C17.5799 49.895 17.8349 49.855 18.1216 49.855C18.4549 49.855 18.7532 49.9083 19.0166 50.015C19.2832 50.1183 19.5132 50.2617 19.7066 50.445L19.5066 50.77ZM24.2727 51.915C24.2727 51.7083 24.2427 51.52 24.1827 51.35C24.1261 51.1767 24.0411 51.0283 23.9277 50.905C23.8177 50.7783 23.6827 50.6817 23.5227 50.615C23.3627 50.545 23.1811 50.51 22.9777 50.51C22.5511 50.51 22.2127 50.635 21.9627 50.885C21.7161 51.1317 21.5627 51.475 21.5027 51.915H24.2727ZM24.9927 54.29C24.8827 54.4233 24.7511 54.54 24.5977 54.64C24.4444 54.7367 24.2794 54.8167 24.1027 54.88C23.9294 54.9433 23.7494 54.99 23.5627 55.02C23.3761 55.0533 23.1911 55.07 23.0077 55.07C22.6577 55.07 22.3344 55.0117 22.0377 54.895C21.7444 54.775 21.4894 54.6017 21.2727 54.375C21.0594 54.145 20.8927 53.8617 20.7727 53.525C20.6527 53.1883 20.5927 52.8017 20.5927 52.365C20.5927 52.0117 20.6461 51.6817 20.7527 51.375C20.8627 51.0683 21.0194 50.8033 21.2227 50.58C21.4261 50.3533 21.6744 50.1767 21.9677 50.05C22.2611 49.92 22.5911 49.855 22.9577 49.855C23.2611 49.855 23.5411 49.9067 23.7977 50.01C24.0577 50.11 24.2811 50.2567 24.4677 50.45C24.6577 50.64 24.8061 50.8767 24.9127 51.16C25.0194 51.44 25.0727 51.76 25.0727 52.12C25.0727 52.26 25.0577 52.3533 25.0277 52.4C24.9977 52.4467 24.9411 52.47 24.8577 52.47H21.4727C21.4827 52.79 21.5261 53.0683 21.6027 53.305C21.6827 53.5417 21.7927 53.74 21.9327 53.9C22.0727 54.0567 22.2394 54.175 22.4327 54.255C22.6261 54.3317 22.8427 54.37 23.0827 54.37C23.3061 54.37 23.4977 54.345 23.6577 54.295C23.8211 54.2417 23.9611 54.185 24.0777 54.125C24.1944 54.065 24.2911 54.01 24.3677 53.96C24.4477 53.9067 24.5161 53.88 24.5727 53.88C24.6461 53.88 24.7027 53.9083 24.7427 53.965L24.9927 54.29ZM29.6909 50.835C29.6643 50.8717 29.6376 50.9 29.6109 50.92C29.5843 50.94 29.5476 50.95 29.5009 50.95C29.4509 50.95 29.3959 50.93 29.3359 50.89C29.2759 50.8467 29.2009 50.8 29.1109 50.75C29.0243 50.7 28.9159 50.655 28.7859 50.615C28.6593 50.5717 28.5026 50.55 28.3159 50.55C28.0659 50.55 27.8459 50.595 27.6559 50.685C27.4659 50.7717 27.3059 50.8983 27.1759 51.065C27.0493 51.2317 26.9526 51.4333 26.8859 51.67C26.8226 51.9067 26.7909 52.1717 26.7909 52.465C26.7909 52.7717 26.8259 53.045 26.8959 53.285C26.9659 53.5217 27.0643 53.7217 27.1909 53.885C27.3209 54.045 27.4759 54.1683 27.6559 54.255C27.8393 54.3383 28.0443 54.38 28.2709 54.38C28.4876 54.38 28.6659 54.355 28.8059 54.305C28.9459 54.2517 29.0609 54.1933 29.1509 54.13C29.2443 54.0667 29.3209 54.01 29.3809 53.96C29.4443 53.9067 29.5059 53.88 29.5659 53.88C29.6393 53.88 29.6959 53.9083 29.7359 53.965L29.9859 54.29C29.8759 54.4267 29.7509 54.5433 29.6109 54.64C29.4709 54.7367 29.3193 54.8183 29.1559 54.885C28.9959 54.9483 28.8276 54.995 28.6509 55.025C28.4743 55.055 28.2943 55.07 28.1109 55.07C27.7943 55.07 27.4993 55.0117 27.2259 54.895C26.9559 54.7783 26.7209 54.61 26.5209 54.39C26.3209 54.1667 26.1643 53.8933 26.0509 53.57C25.9376 53.2467 25.8809 52.8783 25.8809 52.465C25.8809 52.0883 25.9326 51.74 26.0359 51.42C26.1426 51.1 26.2959 50.825 26.4959 50.595C26.6993 50.3617 26.9476 50.18 27.2409 50.05C27.5376 49.92 27.8776 49.855 28.2609 49.855C28.6176 49.855 28.9309 49.9133 29.2009 50.03C29.4743 50.1433 29.7159 50.305 29.9259 50.515L29.6909 50.835ZM32.9884 49.855C33.3584 49.855 33.6918 49.9167 33.9884 50.04C34.2851 50.1633 34.5384 50.3383 34.7484 50.565C34.9584 50.7917 35.1184 51.0667 35.2284 51.39C35.3418 51.71 35.3984 52.0683 35.3984 52.465C35.3984 52.865 35.3418 53.225 35.2284 53.545C35.1184 53.865 34.9584 54.1383 34.7484 54.365C34.5384 54.5917 34.2851 54.7667 33.9884 54.89C33.6918 55.01 33.3584 55.07 32.9884 55.07C32.6151 55.07 32.2784 55.01 31.9784 54.89C31.6818 54.7667 31.4284 54.5917 31.2184 54.365C31.0084 54.1383 30.8468 53.865 30.7334 53.545C30.6234 53.225 30.5684 52.865 30.5684 52.465C30.5684 52.0683 30.6234 51.71 30.7334 51.39C30.8468 51.0667 31.0084 50.7917 31.2184 50.565C31.4284 50.3383 31.6818 50.1633 31.9784 50.04C32.2784 49.9167 32.6151 49.855 32.9884 49.855ZM32.9884 54.375C33.4884 54.375 33.8618 54.2083 34.1084 53.875C34.3551 53.5383 34.4784 53.07 34.4784 52.47C34.4784 51.8667 34.3551 51.3967 34.1084 51.06C33.8618 50.7233 33.4884 50.555 32.9884 50.555C32.7351 50.555 32.5134 50.5983 32.3234 50.685C32.1368 50.7717 31.9801 50.8967 31.8534 51.06C31.7301 51.2233 31.6368 51.425 31.5734 51.665C31.5134 51.9017 31.4834 52.17 31.4834 52.47C31.4834 53.07 31.6068 53.5383 31.8534 53.875C32.1034 54.2083 32.4818 54.375 32.9884 54.375ZM39.4773 50.77C39.4373 50.8433 39.3756 50.88 39.2923 50.88C39.2423 50.88 39.1856 50.8617 39.1223 50.825C39.0589 50.7883 38.9806 50.7483 38.8873 50.705C38.7973 50.6583 38.6889 50.6167 38.5623 50.58C38.4356 50.54 38.2856 50.52 38.1123 50.52C37.9623 50.52 37.8273 50.54 37.7073 50.58C37.5873 50.6167 37.4839 50.6683 37.3973 50.735C37.3139 50.8017 37.2489 50.88 37.2023 50.97C37.1589 51.0567 37.1373 51.1517 37.1373 51.255C37.1373 51.385 37.1739 51.4933 37.2473 51.58C37.3239 51.6667 37.4239 51.7417 37.5473 51.805C37.6706 51.8683 37.8106 51.925 37.9673 51.975C38.1239 52.0217 38.2839 52.0733 38.4473 52.13C38.6139 52.1833 38.7756 52.2433 38.9323 52.31C39.0889 52.3767 39.2289 52.46 39.3523 52.56C39.4756 52.66 39.5739 52.7833 39.6473 52.93C39.7239 53.0733 39.7623 53.2467 39.7623 53.45C39.7623 53.6833 39.7206 53.9 39.6373 54.1C39.5539 54.2967 39.4306 54.4683 39.2673 54.615C39.1039 54.7583 38.9039 54.8717 38.6673 54.955C38.4306 55.0383 38.1573 55.08 37.8473 55.08C37.4939 55.08 37.1739 55.0233 36.8873 54.91C36.6006 54.7933 36.3573 54.645 36.1573 54.465L36.3673 54.125C36.3939 54.0817 36.4256 54.0483 36.4623 54.025C36.4989 54.0017 36.5456 53.99 36.6023 53.99C36.6623 53.99 36.7256 54.0133 36.7923 54.06C36.8589 54.1067 36.9389 54.1583 37.0323 54.215C37.1289 54.2717 37.2456 54.3233 37.3823 54.37C37.5189 54.4167 37.6889 54.44 37.8923 54.44C38.0656 54.44 38.2173 54.4183 38.3473 54.375C38.4773 54.3283 38.5856 54.2667 38.6723 54.19C38.7589 54.1133 38.8223 54.025 38.8623 53.925C38.9056 53.825 38.9273 53.7183 38.9273 53.605C38.9273 53.465 38.8889 53.35 38.8123 53.26C38.7389 53.1667 38.6406 53.0883 38.5173 53.025C38.3939 52.9583 38.2523 52.9017 38.0923 52.855C37.9356 52.805 37.7739 52.7533 37.6073 52.7C37.4439 52.6467 37.2823 52.5867 37.1223 52.52C36.9656 52.45 36.8256 52.3633 36.7023 52.26C36.5789 52.1567 36.4789 52.03 36.4023 51.88C36.3289 51.7267 36.2923 51.5417 36.2923 51.325C36.2923 51.1317 36.3323 50.9467 36.4123 50.77C36.4923 50.59 36.6089 50.4333 36.7623 50.3C36.9156 50.1633 37.1039 50.055 37.3273 49.975C37.5506 49.895 37.8056 49.855 38.0923 49.855C38.4256 49.855 38.7239 49.9083 38.9873 50.015C39.2539 50.1183 39.4839 50.2617 39.6773 50.445L39.4773 50.77Z" fill="#4B513E"/>
<defs>
<filter id="filter0_d" x="10.5" y="0" width="35" height="35" filterUnits="userSpaceOnUse" color-interpolation-filters="sRGB">
<feFlood flood-opacity="0" result="BackgroundImageFix"/>
<feColorMatrix in="SourceAlpha" type="matrix" values="0 0 0 0 0 0 0 0 0 0 0 0 0 0 0 0 0 0 127 0"/>
<feMorphology radius="0.5" operator="dilate" in="SourceAlpha" result="effect1_dropShadow"/>
<feOffset dy="0.5"/>
<feGaussianBlur stdDeviation="0.5"/>
<feColorMatrix type="matrix" values="0 0 0 0 0.445833 0 0 0 0 0.13375 0 0 0 0 0.13375 0 0 0 0.1 0"/>
<feBlend mode="normal" in2="BackgroundImageFix" result="effect1_dropShadow"/>
<feBlend mode="normal" in="SourceGraphic" in2="effect1_dropShadow" result="shape"/>
</filter>
<clipPath id="clip0">
<rect width="12.3548" height="12.1212" fill="white" transform="translate(20.1375 15.8789)"/>
</clipPath>
<clipPath id="clip1">
<rect width="11.2032" height="12.153" fill="white" transform="matrix(0.9324 0.361429 -0.373563 0.927605 20.5399 6)"/>
</clipPath>
<clipPath id="clip2">
<rect width="11.2151" height="11.0361" fill="white" transform="matrix(0.961402 -0.275148 0.285001 0.958527 26.3149 11.8022)"/>
</clipPath>
</defs>
</svg>

