<svg width="56" height="57" viewBox="0 0 56 57" fill="none" xmlns="http://www.w3.org/2000/svg">
<g filter="url(#filter0_d)">
<rect x="12" y="1" width="32" height="32" rx="16" fill="white"/>
<path d="M23.7636 21.0741C23.7707 20.9566 23.8046 20.842 23.8634 20.7401C24.9527 18.8534 27.1915 17.8101 29.443 18.3205C30.1615 18.4833 30.7725 18.8663 31.22 19.3814C31.7869 20.0337 32.6683 20.319 33.5087 20.1174C33.9895 20.0021 34.5043 19.9927 35.0201 20.1096C36.8056 20.5143 37.9275 22.2785 37.5259 24.0501C37.1244 25.8217 35.3514 26.9297 33.566 26.5251C32.792 26.3497 32.1428 25.9188 31.6882 25.3426C31.2023 24.7265 30.399 24.4727 29.645 24.69C29.1234 24.8402 28.5568 24.8647 27.9888 24.736C26.8729 24.4831 26.0162 23.6991 25.6287 22.7141C25.4169 22.176 24.9292 21.8414 24.4052 21.798C24.0289 21.7668 23.741 21.4512 23.7636 21.0741Z" fill="#FFDA8F"/>
<path d="M37.6056 12.9254C37.5986 13.043 37.5647 13.1575 37.5058 13.2595C36.4165 15.1461 34.1778 16.1894 31.9262 15.6791C31.2078 15.5162 30.5967 15.1332 30.1492 14.6182C29.5823 13.9658 28.701 13.6805 27.8605 13.8821C27.3797 13.9974 26.865 14.0069 26.3491 13.89C24.5637 13.4853 23.4417 11.721 23.8433 9.94946C24.2448 8.17788 26.0178 7.0698 27.8032 7.47445C28.5772 7.64987 29.2265 8.08077 29.681 8.65698C30.1669 9.27303 30.9703 9.5268 31.7242 9.30959C32.2458 9.15932 32.8124 9.13479 33.3804 9.26354C34.4963 9.51648 35.353 10.3005 35.7406 11.2854C35.9523 11.8235 36.4401 12.1581 36.964 12.2016C37.3404 12.2328 37.6282 12.5484 37.6056 12.9254Z" fill="#FFDA8F"/>
<path d="M27.3171 14.1241C27.4256 14.17 27.5222 14.2402 27.5987 14.3297C29.0133 15.9864 29.2493 18.445 28.0165 20.397C27.6232 21.0199 27.0581 21.468 26.4232 21.7178C25.619 22.0344 25.0559 22.7699 24.9653 23.6294C24.9134 24.1212 24.7505 24.6095 24.4681 25.0568C23.4905 26.6047 21.4529 27.0731 19.917 26.1031C18.3812 25.1331 17.9286 23.092 18.9062 21.5441C19.3299 20.8731 19.9529 20.405 20.6478 20.1689C21.3907 19.9165 21.8982 19.244 21.9451 18.4608C21.9776 17.919 22.1437 17.3767 22.4547 16.8843C23.0657 15.9169 24.0907 15.3711 25.1485 15.3346C25.7265 15.3147 26.2047 14.9667 26.4206 14.4873C26.5757 14.1428 26.9693 13.9769 27.3171 14.1241Z" fill="#FFDA8F"/>
<path d="M37.4229 21.3577C36.894 20.5259 36.0713 19.9474 35.1066 19.7287C34.5432 19.601 33.975 19.6041 33.4177 19.7377C32.7182 19.9053 31.9891 19.6708 31.515 19.1252C30.9943 18.526 30.3078 18.116 29.5295 17.9396C29.4211 17.915 29.3116 17.8938 29.2017 17.8757C29.2104 17.6594 29.2066 17.4415 29.1899 17.2228C29.1068 16.1401 28.6981 15.0909 28.0335 14.2444C28.7077 14.1132 29.3988 14.3501 29.8544 14.8744C30.3751 15.4736 31.0616 15.8837 31.8399 16.06C32.2517 16.1534 32.6665 16.1998 33.0789 16.1998C33.843 16.1998 34.5986 16.0405 35.3101 15.7253C36.3698 15.256 37.2698 14.4496 37.8441 13.4549C37.9325 13.3018 37.9849 13.1268 37.9956 12.9489C38.0308 12.361 37.5919 11.8618 36.9963 11.8124C36.5954 11.7792 36.2535 11.5225 36.104 11.1425C35.904 10.6341 35.587 10.1675 35.1872 9.79322C35.0297 9.64577 34.7825 9.65389 34.6351 9.81138C34.4877 9.96883 34.4958 10.216 34.6532 10.3634C34.9689 10.659 35.2192 11.0273 35.3771 11.4286C35.6364 12.0875 36.2321 12.5329 36.9317 12.5909C37.1006 12.6049 37.2254 12.7416 37.2157 12.9021C37.2123 12.9596 37.1956 13.0157 37.1676 13.0643C36.3107 14.5483 34.752 15.419 33.0851 15.4189C32.7307 15.4189 32.3711 15.3795 32.0126 15.2982C31.3974 15.1588 30.855 14.8351 30.4441 14.3621C29.7783 13.5959 28.7535 13.2664 27.7694 13.5024C27.3297 13.6078 26.8808 13.61 26.4354 13.5091C24.8629 13.1527 23.8709 11.5946 24.2242 10.0359C24.3952 9.28134 24.8523 8.63901 25.5113 8.22713C26.1713 7.81466 26.9546 7.68272 27.7169 7.85544C28.372 8.00394 28.9606 8.37454 29.3743 8.89895C29.9332 9.60741 30.8286 9.92063 31.7108 9.71654C31.9209 9.66792 32.0519 9.45813 32.0032 9.24795C31.9546 9.03781 31.7448 8.90688 31.5347 8.95547C30.95 9.09077 30.3572 8.88368 29.9877 8.41516C29.4636 7.75084 28.7185 7.2815 27.8896 7.09362C26.9248 6.87496 25.9332 7.04226 25.0973 7.56472C24.2604 8.0878 23.6798 8.90407 23.4624 9.86321C23.0253 11.7916 24.2074 13.7183 26.112 14.2333C26.0949 14.2635 26.079 14.2946 26.0644 14.3269C25.8993 14.6937 25.5432 14.9302 25.1351 14.9443C23.9079 14.9866 22.7825 15.6339 22.1244 16.6758C21.7893 17.2064 21.5925 17.8156 21.5553 18.4375C21.5177 19.0642 21.1122 19.5987 20.5222 19.7991C19.721 20.0713 19.0299 20.617 18.576 21.3356C17.4849 23.0631 17.993 25.35 19.7085 26.4334C20.3007 26.8074 20.972 27 21.6568 27C21.9336 27 22.2126 26.9685 22.4894 26.9048C23.4502 26.684 24.2701 26.1017 24.7983 25.2654C25.1067 24.777 25.2936 24.2404 25.3538 23.6704C25.3691 23.5248 25.4008 23.3837 25.4469 23.249C25.9511 24.1912 26.8428 24.8768 27.9027 25.117C28.5147 25.2557 29.1547 25.2379 29.7533 25.0653C30.3569 24.8915 30.9959 25.0953 31.3818 25.5845C31.9058 26.2488 32.6509 26.7182 33.4799 26.9061C33.7564 26.9687 34.0326 26.9988 34.3048 26.9988C35.9939 26.9986 37.5208 25.8406 37.9071 24.1365C38.1244 23.1774 37.9525 22.1905 37.4229 21.3577ZM24.5768 23.5885C24.5294 24.0383 24.3816 24.4621 24.1378 24.8482C23.7204 25.5091 23.0728 25.9692 22.3143 26.1436C21.557 26.3177 20.7797 26.1861 20.1256 25.773C18.7743 24.9196 18.3754 23.1161 19.2364 21.7528C19.5951 21.1848 20.141 20.7537 20.7734 20.5388C21.6654 20.2358 22.2783 19.4294 22.335 18.4842C22.3644 17.9935 22.5199 17.5124 22.7849 17.0929C23.3048 16.2698 24.1934 15.7584 25.1619 15.725C25.8697 15.7006 26.4884 15.2878 26.7767 14.6477C26.8293 14.5309 26.9395 14.4613 27.0541 14.4613C27.0912 14.4613 27.1287 14.4686 27.1649 14.4839H27.1649C27.2179 14.5063 27.2651 14.5407 27.3016 14.5834C28.651 16.1636 28.8056 18.4161 27.6863 20.1884C27.3495 20.7217 26.8632 21.1249 26.2802 21.3544C25.3356 21.7262 24.6829 22.5822 24.5768 23.5885ZM37.1452 23.9638C36.7919 25.5225 35.2249 26.5006 33.6525 26.1442C32.9974 25.9957 32.4088 25.6251 31.9951 25.1007C31.4116 24.3611 30.4466 24.0525 29.537 24.3147C29.0645 24.4507 28.5591 24.4647 28.0753 24.3551C27.1258 24.1399 26.3472 23.473 25.9923 22.5711C25.9789 22.5372 25.9645 22.5039 25.9493 22.471C26.1249 22.3064 26.333 22.1731 26.5662 22.0813C27.3049 21.7906 27.9206 21.2803 28.3467 20.6056C28.4111 20.5037 28.4717 20.4003 28.529 20.2955C28.6806 20.3069 28.8316 20.3293 28.9802 20.3629C29.2305 20.4197 29.4524 20.5485 29.6219 20.7354C29.699 20.8204 29.805 20.8636 29.9113 20.8636C30.0049 20.8636 30.0988 20.8302 30.1736 20.7623C30.3334 20.6174 30.3455 20.3704 30.2006 20.2106C29.9228 19.9042 29.5605 19.6935 29.1529 19.6011C29.0589 19.5798 28.9641 19.5623 28.8689 19.5481C28.9761 19.2568 29.0584 18.9579 29.1147 18.6537C29.1958 18.6678 29.2767 18.6834 29.3568 18.7016C29.9719 18.841 30.5143 19.1647 30.9253 19.6377C31.5912 20.404 32.6158 20.7334 33.5999 20.4974C34.0397 20.392 34.4885 20.3897 34.9339 20.4907C35.6963 20.6635 36.3461 21.1203 36.7637 21.777C37.1807 22.4326 37.3162 23.2093 37.1452 23.9638Z" fill="black"/>
<path d="M35.9511 23.2927C35.7407 23.245 35.5315 23.3769 35.4838 23.5873C35.3381 24.2299 34.6856 24.6315 34.0291 24.4829C33.7629 24.4225 33.5306 24.2819 33.3574 24.0761C33.2185 23.9111 32.9722 23.8899 32.8071 24.0289C32.642 24.1678 32.6209 24.4142 32.7598 24.5792C33.0436 24.9163 33.4228 25.1464 33.8564 25.2447C34.0067 25.2788 34.1568 25.2951 34.3046 25.2951C35.2159 25.2951 36.0384 24.6743 36.2457 23.76C36.2933 23.5496 36.1614 23.3404 35.9511 23.2927Z" fill="black"/>
<path d="M31.7474 13.2642C31.6025 13.1044 31.3555 13.0923 31.1957 13.2372C31.0359 13.3822 31.0239 13.6292 31.1688 13.789C31.4466 14.0953 31.8089 14.3061 32.2165 14.3984C32.4951 14.4616 32.7781 14.4925 33.0602 14.4925C33.9435 14.4925 34.8159 14.1892 35.5033 13.6239C35.6699 13.4868 35.6938 13.2407 35.5568 13.0741C35.4197 12.9075 35.1737 12.8836 35.007 13.0205C34.2852 13.6142 33.3066 13.8445 32.3892 13.6365C32.1389 13.5798 31.917 13.4511 31.7474 13.2642Z" fill="black"/>
<path d="M27.5129 8.75504C26.9932 8.63728 26.4586 8.72626 26.0075 9.00557C25.5543 9.28617 25.2405 9.72446 25.1237 10.2398C25.076 10.4501 25.2079 10.6594 25.4183 10.707C25.4474 10.7136 25.4764 10.7168 25.505 10.7168C25.6834 10.7168 25.8445 10.5938 25.8856 10.4125C25.9557 10.103 26.1451 9.83922 26.4188 9.66974C26.6945 9.49901 27.0218 9.44479 27.3402 9.5169C27.6064 9.57725 27.8387 9.7179 28.012 9.92366C28.1509 10.0887 28.3973 10.1098 28.5623 9.97085C28.7273 9.83191 28.7485 9.58553 28.6095 9.4205C28.3258 9.08345 27.9466 8.85332 27.5129 8.75504Z" fill="black"/>
<path d="M33.3805 9.65424C33.4833 9.65424 33.584 9.61245 33.6566 9.53979C33.7293 9.46714 33.7707 9.36637 33.7707 9.26364C33.7707 9.16092 33.7293 9.06014 33.6566 8.98749C33.584 8.91484 33.4833 8.87305 33.3805 8.87305C33.2774 8.87305 33.177 8.91484 33.104 8.98749C33.0313 9.06014 32.9899 9.16092 32.9899 9.26364C32.9899 9.36637 33.0313 9.46714 33.104 9.53979C33.177 9.61245 33.2774 9.65424 33.3805 9.65424Z" fill="black"/>
<path d="M21.0098 21.4337C20.5972 21.5887 20.2538 21.8693 20.0163 22.2452C19.4268 23.1785 19.6968 24.4112 20.6181 24.9931C20.6828 25.034 20.755 25.0535 20.8263 25.0535C20.9559 25.0535 21.0826 24.989 21.1569 24.8714C21.2721 24.689 21.2177 24.4477 21.0353 24.3325C20.4782 23.9807 20.3173 23.2315 20.6768 22.6624C20.8225 22.4316 21.0326 22.2596 21.2845 22.165C21.4864 22.0892 21.5886 21.8639 21.5128 21.662C21.4369 21.4601 21.2118 21.3579 21.0098 21.4337Z" fill="black"/>
<path d="M25.8314 20.5103C25.8817 20.5103 25.9328 20.5006 25.982 20.48C26.3636 20.3204 26.6832 20.0492 26.9063 19.6959C27.5367 18.6978 27.6739 17.443 27.2736 16.3391C27.2 16.1363 26.976 16.0315 26.7732 16.1051C26.5704 16.1786 26.4656 16.4026 26.5392 16.6055C26.8578 17.484 26.7482 18.4834 26.2458 19.2788C26.1087 19.4958 25.9133 19.6619 25.6805 19.7593C25.4815 19.8425 25.3876 20.0714 25.4709 20.2703C25.5336 20.4201 25.6787 20.5103 25.8314 20.5103Z" fill="black"/>
</g>
<path d="M8.46648 41.52C8.51982 41.52 8.56648 41.5417 8.60648 41.585L8.99148 42C8.69815 42.34 8.34148 42.605 7.92148 42.795C7.50482 42.985 6.99982 43.08 6.40648 43.08C5.89315 43.08 5.42648 42.9917 5.00648 42.815C4.58648 42.635 4.22815 42.385 3.93148 42.065C3.63482 41.7417 3.40482 41.355 3.24148 40.905C3.07815 40.455 2.99648 39.96 2.99648 39.42C2.99648 38.88 3.08148 38.385 3.25148 37.935C3.42148 37.485 3.65982 37.0983 3.96648 36.775C4.27648 36.4517 4.64648 36.2017 5.07648 36.025C5.50648 35.845 5.98148 35.755 6.50148 35.755C7.01148 35.755 7.46148 35.8367 7.85148 36C8.24148 36.1633 8.58482 36.385 8.88148 36.665L8.56148 37.11C8.54148 37.1433 8.51482 37.1717 8.48148 37.195C8.45148 37.215 8.40982 37.225 8.35648 37.225C8.29648 37.225 8.22315 37.1933 8.13648 37.13C8.04982 37.0633 7.93648 36.99 7.79648 36.91C7.65648 36.83 7.48148 36.7583 7.27148 36.695C7.06148 36.6283 6.80315 36.595 6.49648 36.595C6.12648 36.595 5.78815 36.66 5.48148 36.79C5.17482 36.9167 4.90982 37.1017 4.68648 37.345C4.46648 37.5883 4.29482 37.885 4.17148 38.235C4.04815 38.585 3.98648 38.98 3.98648 39.42C3.98648 39.8667 4.04982 40.265 4.17648 40.615C4.30648 40.965 4.48148 41.2617 4.70148 41.505C4.92482 41.745 5.18648 41.9283 5.48648 42.055C5.78982 42.1817 6.11648 42.245 6.46648 42.245C6.67982 42.245 6.87148 42.2333 7.04148 42.21C7.21482 42.1833 7.37315 42.1433 7.51648 42.09C7.66315 42.0367 7.79815 41.97 7.92148 41.89C8.04815 41.8067 8.17315 41.7083 8.29648 41.595C8.35315 41.545 8.40982 41.52 8.46648 41.52ZM12.6512 40.72C12.2412 40.7333 11.8912 40.7667 11.6012 40.82C11.3145 40.87 11.0795 40.9367 10.8962 41.02C10.7162 41.1033 10.5845 41.2017 10.5012 41.315C10.4212 41.4283 10.3812 41.555 10.3812 41.695C10.3812 41.8283 10.4028 41.9433 10.4462 42.04C10.4895 42.1367 10.5478 42.2167 10.6212 42.28C10.6978 42.34 10.7862 42.385 10.8862 42.415C10.9895 42.4417 11.0995 42.455 11.2162 42.455C11.3728 42.455 11.5162 42.44 11.6462 42.41C11.7762 42.3767 11.8978 42.33 12.0112 42.27C12.1278 42.21 12.2378 42.1383 12.3412 42.055C12.4478 41.9717 12.5512 41.8767 12.6512 41.77V40.72ZM9.77617 38.65C10.0562 38.38 10.3578 38.1783 10.6812 38.045C11.0045 37.9117 11.3628 37.845 11.7562 37.845C12.0395 37.845 12.2912 37.8917 12.5112 37.985C12.7312 38.0783 12.9162 38.2083 13.0662 38.375C13.2162 38.5417 13.3295 38.7433 13.4062 38.98C13.4828 39.2167 13.5212 39.4767 13.5212 39.76V43H13.1262C13.0395 43 12.9728 42.9867 12.9262 42.96C12.8795 42.93 12.8428 42.8733 12.8162 42.79L12.7162 42.31C12.5828 42.4333 12.4528 42.5433 12.3262 42.64C12.1995 42.7333 12.0662 42.8133 11.9262 42.88C11.7862 42.9433 11.6362 42.9917 11.4762 43.025C11.3195 43.0617 11.1445 43.08 10.9512 43.08C10.7545 43.08 10.5695 43.0533 10.3962 43C10.2228 42.9433 10.0712 42.86 9.94117 42.75C9.81451 42.64 9.71284 42.5017 9.63617 42.335C9.56284 42.165 9.52617 41.965 9.52617 41.735C9.52617 41.535 9.58117 41.3433 9.69117 41.16C9.80117 40.9733 9.97951 40.8083 10.2262 40.665C10.4728 40.5217 10.7945 40.405 11.1912 40.315C11.5878 40.2217 12.0745 40.1683 12.6512 40.155V39.76C12.6512 39.3667 12.5662 39.07 12.3962 38.87C12.2262 38.6667 11.9778 38.565 11.6512 38.565C11.4312 38.565 11.2462 38.5933 11.0962 38.65C10.9495 38.7033 10.8212 38.765 10.7112 38.835C10.6045 38.9017 10.5112 38.9633 10.4312 39.02C10.3545 39.0733 10.2778 39.1 10.2012 39.1C10.1412 39.1 10.0895 39.085 10.0462 39.055C10.0028 39.0217 9.96617 38.9817 9.93617 38.935L9.77617 38.65ZM18.4019 38.835C18.3752 38.8717 18.3485 38.9 18.3219 38.92C18.2952 38.94 18.2585 38.95 18.2119 38.95C18.1619 38.95 18.1069 38.93 18.0469 38.89C17.9869 38.8467 17.9119 38.8 17.8219 38.75C17.7352 38.7 17.6269 38.655 17.4969 38.615C17.3702 38.5717 17.2135 38.55 17.0269 38.55C16.7769 38.55 16.5569 38.595 16.3669 38.685C16.1769 38.7717 16.0169 38.8983 15.8869 39.065C15.7602 39.2317 15.6635 39.4333 15.5969 39.67C15.5335 39.9067 15.5019 40.1717 15.5019 40.465C15.5019 40.7717 15.5369 41.045 15.6069 41.285C15.6769 41.5217 15.7752 41.7217 15.9019 41.885C16.0319 42.045 16.1869 42.1683 16.3669 42.255C16.5502 42.3383 16.7552 42.38 16.9819 42.38C17.1985 42.38 17.3769 42.355 17.5169 42.305C17.6569 42.2517 17.7719 42.1933 17.8619 42.13C17.9552 42.0667 18.0319 42.01 18.0919 41.96C18.1552 41.9067 18.2169 41.88 18.2769 41.88C18.3502 41.88 18.4069 41.9083 18.4469 41.965L18.6969 42.29C18.5869 42.4267 18.4619 42.5433 18.3219 42.64C18.1819 42.7367 18.0302 42.8183 17.8669 42.885C17.7069 42.9483 17.5385 42.995 17.3619 43.025C17.1852 43.055 17.0052 43.07 16.8219 43.07C16.5052 43.07 16.2102 43.0117 15.9369 42.895C15.6669 42.7783 15.4319 42.61 15.2319 42.39C15.0319 42.1667 14.8752 41.8933 14.7619 41.57C14.6485 41.2467 14.5919 40.8783 14.5919 40.465C14.5919 40.0883 14.6435 39.74 14.7469 39.42C14.8535 39.1 15.0069 38.825 15.2069 38.595C15.4102 38.3617 15.6585 38.18 15.9519 38.05C16.2485 37.92 16.5885 37.855 16.9719 37.855C17.3285 37.855 17.6419 37.9133 17.9119 38.03C18.1852 38.1433 18.4269 38.305 18.6369 38.515L18.4019 38.835ZM22.3973 40.72C21.9873 40.7333 21.6373 40.7667 21.3473 40.82C21.0606 40.87 20.8256 40.9367 20.6423 41.02C20.4623 41.1033 20.3306 41.2017 20.2473 41.315C20.1673 41.4283 20.1273 41.555 20.1273 41.695C20.1273 41.8283 20.1489 41.9433 20.1923 42.04C20.2356 42.1367 20.2939 42.2167 20.3673 42.28C20.4439 42.34 20.5323 42.385 20.6323 42.415C20.7356 42.4417 20.8456 42.455 20.9623 42.455C21.1189 42.455 21.2623 42.44 21.3923 42.41C21.5223 42.3767 21.6439 42.33 21.7573 42.27C21.8739 42.21 21.9839 42.1383 22.0873 42.055C22.1939 41.9717 22.2973 41.8767 22.3973 41.77V40.72ZM19.5223 38.65C19.8023 38.38 20.1039 38.1783 20.4273 38.045C20.7506 37.9117 21.1089 37.845 21.5023 37.845C21.7856 37.845 22.0373 37.8917 22.2573 37.985C22.4773 38.0783 22.6623 38.2083 22.8123 38.375C22.9623 38.5417 23.0756 38.7433 23.1523 38.98C23.2289 39.2167 23.2673 39.4767 23.2673 39.76V43H22.8723C22.7856 43 22.7189 42.9867 22.6723 42.96C22.6256 42.93 22.5889 42.8733 22.5623 42.79L22.4623 42.31C22.3289 42.4333 22.1989 42.5433 22.0723 42.64C21.9456 42.7333 21.8123 42.8133 21.6723 42.88C21.5323 42.9433 21.3823 42.9917 21.2223 43.025C21.0656 43.0617 20.8906 43.08 20.6973 43.08C20.5006 43.08 20.3156 43.0533 20.1423 43C19.9689 42.9433 19.8173 42.86 19.6873 42.75C19.5606 42.64 19.4589 42.5017 19.3823 42.335C19.3089 42.165 19.2723 41.965 19.2723 41.735C19.2723 41.535 19.3273 41.3433 19.4373 41.16C19.5473 40.9733 19.7256 40.8083 19.9723 40.665C20.2189 40.5217 20.5406 40.405 20.9373 40.315C21.3339 40.2217 21.8206 40.1683 22.3973 40.155V39.76C22.3973 39.3667 22.3123 39.07 22.1423 38.87C21.9723 38.6667 21.7239 38.565 21.3973 38.565C21.1773 38.565 20.9923 38.5933 20.8423 38.65C20.6956 38.7033 20.5673 38.765 20.4573 38.835C20.3506 38.9017 20.2573 38.9633 20.1773 39.02C20.1006 39.0733 20.0239 39.1 19.9473 39.1C19.8873 39.1 19.8356 39.085 19.7923 39.055C19.7489 39.0217 19.7123 38.9817 19.6823 38.935L19.5223 38.65ZM25.518 38.61C25.7346 38.38 25.9746 38.1967 26.238 38.06C26.5013 37.9233 26.8046 37.855 27.148 37.855C27.4246 37.855 27.668 37.9017 27.878 37.995C28.0913 38.085 28.268 38.215 28.408 38.385C28.5513 38.5517 28.6596 38.7533 28.733 38.99C28.8063 39.2267 28.843 39.4883 28.843 39.775V43H27.948V39.775C27.948 39.3917 27.8596 39.095 27.683 38.885C27.5096 38.6717 27.2446 38.565 26.888 38.565C26.6246 38.565 26.378 38.6283 26.148 38.755C25.9213 38.8817 25.7113 39.0533 25.518 39.27V43H24.623V35.635H25.518V38.61ZM34.3641 37.935V43H33.8341C33.7075 43 33.6275 42.9383 33.5941 42.815L33.5241 42.27C33.3041 42.5133 33.0575 42.71 32.7841 42.86C32.5108 43.0067 32.1975 43.08 31.8441 43.08C31.5675 43.08 31.3225 43.035 31.1091 42.945C30.8991 42.8517 30.7225 42.7217 30.5791 42.555C30.4358 42.3883 30.3275 42.1867 30.2541 41.95C30.1841 41.7133 30.1491 41.4517 30.1491 41.165V37.935H31.0391V41.165C31.0391 41.5483 31.1258 41.845 31.2991 42.055C31.4758 42.265 31.7441 42.37 32.1041 42.37C32.3675 42.37 32.6125 42.3083 32.8391 42.185C33.0691 42.0583 33.2808 41.885 33.4741 41.665V37.935H34.3641ZM39.1653 39.915C39.1653 39.7083 39.1353 39.52 39.0753 39.35C39.0186 39.1767 38.9336 39.0283 38.8203 38.905C38.7103 38.7783 38.5753 38.6817 38.4153 38.615C38.2553 38.545 38.0736 38.51 37.8703 38.51C37.4436 38.51 37.1053 38.635 36.8553 38.885C36.6086 39.1317 36.4553 39.475 36.3953 39.915H39.1653ZM39.8853 42.29C39.7753 42.4233 39.6436 42.54 39.4903 42.64C39.337 42.7367 39.172 42.8167 38.9953 42.88C38.822 42.9433 38.642 42.99 38.4553 43.02C38.2686 43.0533 38.0836 43.07 37.9003 43.07C37.5503 43.07 37.227 43.0117 36.9303 42.895C36.637 42.775 36.382 42.6017 36.1653 42.375C35.952 42.145 35.7853 41.8617 35.6653 41.525C35.5453 41.1883 35.4853 40.8017 35.4853 40.365C35.4853 40.0117 35.5386 39.6817 35.6453 39.375C35.7553 39.0683 35.912 38.8033 36.1153 38.58C36.3186 38.3533 36.567 38.1767 36.8603 38.05C37.1536 37.92 37.4836 37.855 37.8503 37.855C38.1536 37.855 38.4336 37.9067 38.6903 38.01C38.9503 38.11 39.1736 38.2567 39.3603 38.45C39.5503 38.64 39.6986 38.8767 39.8053 39.16C39.912 39.44 39.9653 39.76 39.9653 40.12C39.9653 40.26 39.9503 40.3533 39.9203 40.4C39.8903 40.4467 39.8336 40.47 39.7503 40.47H36.3653C36.3753 40.79 36.4186 41.0683 36.4953 41.305C36.5753 41.5417 36.6853 41.74 36.8253 41.9C36.9653 42.0567 37.132 42.175 37.3253 42.255C37.5186 42.3317 37.7353 42.37 37.9753 42.37C38.1986 42.37 38.3903 42.345 38.5503 42.295C38.7136 42.2417 38.8536 42.185 38.9703 42.125C39.087 42.065 39.1836 42.01 39.2603 41.96C39.3403 41.9067 39.4086 41.88 39.4653 41.88C39.5386 41.88 39.5953 41.9083 39.6353 41.965L39.8853 42.29ZM42.5745 43.08C42.1745 43.08 41.8661 42.9683 41.6495 42.745C41.4361 42.5217 41.3295 42.2 41.3295 41.78V38.68H40.7195C40.6661 38.68 40.6211 38.665 40.5845 38.635C40.5478 38.6017 40.5295 38.5517 40.5295 38.485V38.13L41.3595 38.025L41.5645 36.46C41.5745 36.41 41.5961 36.37 41.6295 36.34C41.6661 36.3067 41.7128 36.29 41.7695 36.29H42.2195V38.035H43.6845V38.68H42.2195V41.72C42.2195 41.9333 42.2711 42.0917 42.3745 42.195C42.4778 42.2983 42.6111 42.35 42.7745 42.35C42.8678 42.35 42.9478 42.3383 43.0145 42.315C43.0845 42.2883 43.1445 42.26 43.1945 42.23C43.2445 42.2 43.2861 42.1733 43.3195 42.15C43.3561 42.1233 43.3878 42.11 43.4145 42.11C43.4611 42.11 43.5028 42.1383 43.5395 42.195L43.7995 42.62C43.6461 42.7633 43.4611 42.8767 43.2445 42.96C43.0278 43.04 42.8045 43.08 42.5745 43.08ZM47.9641 39.915C47.9641 39.7083 47.9341 39.52 47.8741 39.35C47.8175 39.1767 47.7325 39.0283 47.6191 38.905C47.5091 38.7783 47.3741 38.6817 47.2141 38.615C47.0541 38.545 46.8725 38.51 46.6691 38.51C46.2425 38.51 45.9041 38.635 45.6541 38.885C45.4075 39.1317 45.2541 39.475 45.1941 39.915H47.9641ZM48.6841 42.29C48.5741 42.4233 48.4425 42.54 48.2891 42.64C48.1358 42.7367 47.9708 42.8167 47.7941 42.88C47.6208 42.9433 47.4408 42.99 47.2541 43.02C47.0675 43.0533 46.8825 43.07 46.6991 43.07C46.3491 43.07 46.0258 43.0117 45.7291 42.895C45.4358 42.775 45.1808 42.6017 44.9641 42.375C44.7508 42.145 44.5841 41.8617 44.4641 41.525C44.3441 41.1883 44.2841 40.8017 44.2841 40.365C44.2841 40.0117 44.3375 39.6817 44.4441 39.375C44.5541 39.0683 44.7108 38.8033 44.9141 38.58C45.1175 38.3533 45.3658 38.1767 45.6591 38.05C45.9525 37.92 46.2825 37.855 46.6491 37.855C46.9525 37.855 47.2325 37.9067 47.4891 38.01C47.7491 38.11 47.9725 38.2567 48.1591 38.45C48.3491 38.64 48.4975 38.8767 48.6041 39.16C48.7108 39.44 48.7641 39.76 48.7641 40.12C48.7641 40.26 48.7491 40.3533 48.7191 40.4C48.6891 40.4467 48.6325 40.47 48.5491 40.47H45.1641C45.1741 40.79 45.2175 41.0683 45.2941 41.305C45.3741 41.5417 45.4841 41.74 45.6241 41.9C45.7641 42.0567 45.9308 42.175 46.1241 42.255C46.3175 42.3317 46.5341 42.37 46.7741 42.37C46.9975 42.37 47.1891 42.345 47.3491 42.295C47.5125 42.2417 47.6525 42.185 47.7691 42.125C47.8858 42.065 47.9825 42.01 48.0591 41.96C48.1391 41.9067 48.2075 41.88 48.2641 41.88C48.3375 41.88 48.3941 41.9083 48.4341 41.965L48.6841 42.29ZM52.8073 38.77C52.7673 38.8433 52.7057 38.88 52.6223 38.88C52.5723 38.88 52.5157 38.8617 52.4523 38.825C52.389 38.7883 52.3107 38.7483 52.2173 38.705C52.1273 38.6583 52.019 38.6167 51.8923 38.58C51.7657 38.54 51.6157 38.52 51.4423 38.52C51.2923 38.52 51.1573 38.54 51.0373 38.58C50.9173 38.6167 50.814 38.6683 50.7273 38.735C50.644 38.8017 50.579 38.88 50.5323 38.97C50.489 39.0567 50.4673 39.1517 50.4673 39.255C50.4673 39.385 50.504 39.4933 50.5773 39.58C50.654 39.6667 50.754 39.7417 50.8773 39.805C51.0007 39.8683 51.1407 39.925 51.2973 39.975C51.454 40.0217 51.614 40.0733 51.7773 40.13C51.944 40.1833 52.1057 40.2433 52.2623 40.31C52.419 40.3767 52.559 40.46 52.6823 40.56C52.8057 40.66 52.904 40.7833 52.9773 40.93C53.054 41.0733 53.0923 41.2467 53.0923 41.45C53.0923 41.6833 53.0507 41.9 52.9673 42.1C52.884 42.2967 52.7607 42.4683 52.5973 42.615C52.434 42.7583 52.234 42.8717 51.9973 42.955C51.7607 43.0383 51.4873 43.08 51.1773 43.08C50.824 43.08 50.504 43.0233 50.2173 42.91C49.9307 42.7933 49.6873 42.645 49.4873 42.465L49.6973 42.125C49.724 42.0817 49.7557 42.0483 49.7923 42.025C49.829 42.0017 49.8757 41.99 49.9323 41.99C49.9923 41.99 50.0557 42.0133 50.1223 42.06C50.189 42.1067 50.269 42.1583 50.3623 42.215C50.459 42.2717 50.5757 42.3233 50.7123 42.37C50.849 42.4167 51.019 42.44 51.2223 42.44C51.3957 42.44 51.5473 42.4183 51.6773 42.375C51.8073 42.3283 51.9157 42.2667 52.0023 42.19C52.089 42.1133 52.1523 42.025 52.1923 41.925C52.2357 41.825 52.2573 41.7183 52.2573 41.605C52.2573 41.465 52.219 41.35 52.1423 41.26C52.069 41.1667 51.9707 41.0883 51.8473 41.025C51.724 40.9583 51.5823 40.9017 51.4223 40.855C51.2657 40.805 51.104 40.7533 50.9373 40.7C50.774 40.6467 50.6123 40.5867 50.4523 40.52C50.2957 40.45 50.1557 40.3633 50.0323 40.26C49.909 40.1567 49.809 40.03 49.7323 39.88C49.659 39.7267 49.6223 39.5417 49.6223 39.325C49.6223 39.1317 49.6623 38.9467 49.7423 38.77C49.8223 38.59 49.939 38.4333 50.0923 38.3C50.2457 38.1633 50.434 38.055 50.6573 37.975C50.8807 37.895 51.1357 37.855 51.4223 37.855C51.7557 37.855 52.054 37.9083 52.3173 38.015C52.584 38.1183 52.814 38.2617 53.0073 38.445L52.8073 38.77Z" fill="#4B513E"/>
<defs>
<filter id="filter0_d" x="10.5" y="0" width="35" height="35" filterUnits="userSpaceOnUse" color-interpolation-filters="sRGB">
<feFlood flood-opacity="0" result="BackgroundImageFix"/>
<feColorMatrix in="SourceAlpha" type="matrix" values="0 0 0 0 0 0 0 0 0 0 0 0 0 0 0 0 0 0 127 0"/>
<feMorphology radius="0.5" operator="dilate" in="SourceAlpha" result="effect1_dropShadow"/>
<feOffset dy="0.5"/>
<feGaussianBlur stdDeviation="0.5"/>
<feColorMatrix type="matrix" values="0 0 0 0 0.445833 0 0 0 0 0.13375 0 0 0 0 0.13375 0 0 0 0.1 0"/>
<feBlend mode="normal" in2="BackgroundImageFix" result="effect1_dropShadow"/>
<feBlend mode="normal" in="SourceGraphic" in2="effect1_dropShadow" result="shape"/>
</filter>
</defs>
</svg>
