<svg width="414" height="563" viewBox="0 0 414 563" fill="none" xmlns="http://www.w3.org/2000/svg">
<path d="M0 0.5H-0.5V1V522.5V522.832L-0.194318 522.961L0 522.5C-0.194318 522.961 -0.193867 522.961 -0.193067 522.961L-0.189721 522.963L-0.176757 522.968L-0.125828 522.989C-0.080795 523.008 -0.0136456 523.036 0.0753614 523.073C0.253375 523.147 0.51882 523.256 0.869623 523.398C1.57123 523.682 2.61428 524.098 3.98219 524.627C6.718 525.686 10.7533 527.198 15.9555 529.011C26.3598 532.638 41.4322 537.474 60.1117 542.309C97.4688 551.979 149.262 561.65 207 561.65C264.738 561.65 316.531 551.979 353.888 542.309C372.568 537.474 387.64 532.638 398.044 529.011C403.247 527.198 407.282 525.686 410.018 524.627C411.386 524.098 412.429 523.682 413.13 523.398C413.481 523.256 413.747 523.147 413.925 523.073L414.024 523.032L414.126 522.989L414.177 522.968L414.19 522.963L414.193 522.961C414.194 522.961 414.194 522.961 414 522.5L414.194 522.961L414.5 522.832V522.5V1V0.5H414H0Z" stroke="#FFB758"/>
</svg>
