<svg width="28" height="27" viewBox="0 0 28 27" fill="none" xmlns="http://www.w3.org/2000/svg">
<g filter="url(#filter0_d)">
<path d="M2 13C2 6.37258 7.37258 1 14 1C20.6274 1 26 6.37258 26 13C26 19.6274 20.6274 25 14 25C7.37258 25 2 19.6274 2 13Z" fill="white"/>
<path d="M20.6301 7.4574C20.247 7.07416 19.7922 6.77014 19.2916 6.56272C18.791 6.3553 18.2545 6.24854 17.7126 6.24854C17.1707 6.24854 16.6342 6.3553 16.1336 6.56272C15.633 6.77014 15.1782 7.07416 14.7951 7.4574L14.0001 8.2524L13.2051 7.4574C12.4313 6.68364 11.3819 6.24894 10.2876 6.24894C9.19331 6.24894 8.14386 6.68364 7.37009 7.4574C6.59632 8.23117 6.16162 9.28063 6.16162 10.3749C6.16162 11.4692 6.59632 12.5186 7.37009 13.2924L8.16509 14.0874L14.0001 19.9224L19.8351 14.0874L20.6301 13.2924C21.0133 12.9093 21.3174 12.4545 21.5248 11.9539C21.7322 11.4533 21.839 10.9168 21.839 10.3749C21.839 9.83304 21.7322 9.29648 21.5248 8.79589C21.3174 8.29529 21.0133 7.84047 20.6301 7.4574V7.4574Z" stroke="#DA3957" stroke-width="2" stroke-linecap="round" stroke-linejoin="round"/>
</g>
<defs>
<filter id="filter0_d" x="0.5" y="0" width="27" height="27" filterUnits="userSpaceOnUse" color-interpolation-filters="sRGB">
<feFlood flood-opacity="0" result="BackgroundImageFix"/>
<feColorMatrix in="SourceAlpha" type="matrix" values="0 0 0 0 0 0 0 0 0 0 0 0 0 0 0 0 0 0 127 0"/>
<feMorphology radius="0.5" operator="dilate" in="SourceAlpha" result="effect1_dropShadow"/>
<feOffset dy="0.5"/>
<feGaussianBlur stdDeviation="0.5"/>
<feColorMatrix type="matrix" values="0 0 0 0 0.445833 0 0 0 0 0.13375 0 0 0 0 0.13375 0 0 0 0.1 0"/>
<feBlend mode="normal" in2="BackgroundImageFix" result="effect1_dropShadow"/>
<feBlend mode="normal" in="SourceGraphic" in2="effect1_dropShadow" result="shape"/>
</filter>
</defs>
</svg>
