<svg width="358" height="104" viewBox="0 0 358 104" fill="none" xmlns="http://www.w3.org/2000/svg">
<g filter="url(#filter0_d)">
<path d="M308.746 53.5785C308.746 47.6708 310.86 42.7969 315.086 38.9569C319.312 35.1169 324.143 33.1969 329.577 33.1969C335.011 33.1969 339.816 35.1169 343.992 38.9569C348.168 42.7477 350.256 47.597 350.256 53.5046C350.256 57.5908 349.174 61.2339 347.011 64.4339C344.847 67.5846 342.206 69.9231 339.086 71.4493C336.017 72.9262 332.822 73.6646 329.501 73.6646C326.18 73.6646 322.96 72.877 319.841 71.3016C316.721 69.677 314.08 67.3139 311.916 64.2123C309.803 61.0616 308.746 57.5169 308.746 53.5785ZM324.52 58.8954C326.13 60.0769 327.765 60.6677 329.426 60.6677C331.086 60.6677 332.746 60.0523 334.407 58.8216C336.067 57.5908 336.897 55.7693 336.897 53.3569C336.897 50.9446 336.118 49.1477 334.558 47.9662C332.998 46.7846 331.312 46.1939 329.501 46.1939C327.69 46.1939 326.004 46.8093 324.445 48.04C322.885 49.2708 322.105 51.0923 322.105 53.5046C322.105 55.8677 322.91 57.6646 324.52 58.8954Z" fill="#FCFEF6"/>
<path d="M59.6981 58.3046C62.0126 59.8308 63.6729 60.9385 64.6792 61.6277C66.4905 62.9569 67.3962 64.237 67.3962 65.4677C67.3962 66.6493 66.6415 68.3231 65.1321 70.4893C63.6226 72.6554 62.088 73.7385 60.5283 73.7385C59.5723 73.7385 58.1132 73.0739 56.1509 71.7446C55.8993 71.5969 55.1949 71.1293 54.0377 70.3416C52.8805 69.5539 51.9748 68.9631 51.3207 68.5693C46.6415 72.1139 41.3836 73.8862 35.5471 73.8862C27.7484 73.8862 21.1572 71.1785 15.7736 65.7631C10.4402 60.3477 7.77356 53.8985 7.77356 46.4154C7.77356 42.3293 8.52828 38.5139 10.0377 34.9693C11.5471 31.3754 13.5597 28.3723 16.0754 25.96C18.5912 23.5477 21.4843 21.6523 24.7547 20.2739C28.0251 18.8954 31.3962 18.2062 34.8679 18.2062C42.3144 18.2062 48.7798 20.84 54.2641 26.1077C59.7484 31.3754 62.4905 38.0462 62.4905 46.12C62.4905 50.2062 61.5597 54.2677 59.6981 58.3046ZM21.1321 46.0462C21.1321 50.4277 22.566 53.9969 25.4339 56.7539C28.3522 59.4616 31.5975 60.8154 35.1698 60.8154C38.7421 60.8154 41.9622 59.4862 44.8302 56.8277C47.6981 54.1693 49.132 50.6 49.132 46.12C49.132 41.64 47.6729 38.0462 44.7547 35.3385C41.8868 32.6308 38.6666 31.2769 35.0943 31.2769C31.522 31.2769 28.3019 32.6554 25.4339 35.4123C22.566 38.12 21.1321 41.6646 21.1321 46.0462Z" fill="#FCFEF6"/>
<path d="M84.0984 72.8523C79.0167 72.8523 74.7903 70.9816 71.4192 67.24C68.0984 63.4493 66.4381 58.8462 66.4381 53.4308V40.5077C66.4381 39.3262 66.4632 38.4646 66.5135 37.9231C66.6142 37.3816 66.8406 36.7416 67.1928 36.0031C67.8972 34.6739 69.8594 34.0093 73.0796 34.0093C76.6016 34.0093 78.6645 34.9446 79.2683 36.8154C79.5701 37.6031 79.7211 38.8585 79.7211 40.5816V53.5046C79.7211 55.5231 80.2997 57.0985 81.4569 58.2308C82.6645 59.3631 84.2494 59.9293 86.2117 59.9293C88.2242 59.9293 89.8343 59.3385 91.0418 58.1569C92.2997 56.9754 92.9286 55.4246 92.9286 53.5046V40.4339C92.9286 39.3016 92.9538 38.4646 93.0041 37.9231C93.1047 37.3323 93.3563 36.6677 93.7588 35.9293C94.4129 34.6493 96.35 34.0093 99.5701 34.0093C102.74 34.0093 104.677 34.6739 105.381 36.0031C105.734 36.7416 105.935 37.4062 105.985 37.9969C106.086 38.5385 106.136 39.3754 106.136 40.5077V66.6493C106.136 67.7323 106.086 68.5693 105.985 69.16C105.935 69.7016 105.709 70.317 105.306 71.0062C104.551 72.2862 102.614 72.9262 99.4947 72.9262C96.4255 72.9262 94.5387 72.3354 93.8343 71.1539C93.3311 70.317 93.0796 69.3077 93.0796 68.1262C92.8783 68.4708 92.4255 68.9631 91.7211 69.6031C91.0167 70.2431 90.3374 70.7846 89.6833 71.2277C87.9727 72.3108 86.111 72.8523 84.0984 72.8523Z" fill="#FCFEF6"/>
<path d="M147.717 48.9262C147.717 51.9293 146.937 54.1693 145.377 55.6462C143.868 57.0739 142.182 57.7877 140.321 57.7877H122.434C122.434 59.1662 123.264 60.3231 124.925 61.2585C126.585 62.1939 128.245 62.6616 129.906 62.6616C132.824 62.6616 135.113 62.3662 136.774 61.7754L137.604 61.48C138.811 60.9385 139.818 60.6677 140.623 60.6677C142.233 60.6677 143.616 61.7754 144.774 63.9908C145.428 65.32 145.755 66.4523 145.755 67.3877C145.755 71.7693 140.396 73.96 129.679 73.96C125.956 73.96 122.635 73.3446 119.717 72.1139C116.849 70.8339 114.61 69.16 113 67.0923C109.83 63.1046 108.245 58.6493 108.245 53.7262C108.245 47.5231 110.283 42.5754 114.358 38.8831C118.484 35.1416 123.616 33.2708 129.755 33.2708C136.748 33.2708 141.88 35.6831 145.151 40.5077C146.862 43.0677 147.717 45.8739 147.717 48.9262ZM131.792 51.0677C133.704 51.0677 134.66 50.28 134.66 48.7046C134.66 47.5723 134.208 46.6616 133.302 45.9723C132.447 45.2831 131.189 44.9385 129.528 44.9385C127.918 44.9385 126.308 45.6031 124.698 46.9323C123.088 48.2123 122.283 49.5908 122.283 51.0677H131.792Z" fill="#FCFEF6"/>
<path d="M184.377 58.8216L185.735 57.8616C187.446 56.8769 188.653 56.3846 189.358 56.3846C190.918 56.3846 192.603 57.7631 194.414 60.52C195.521 62.2431 196.075 63.6216 196.075 64.6554C196.075 65.6893 195.723 66.5508 195.018 67.24C194.364 67.9293 193.584 68.5446 192.679 69.0862C191.773 69.6277 190.892 70.1446 190.037 70.6369C189.232 71.1293 187.547 71.7693 184.981 72.557C182.414 73.3446 179.924 73.7385 177.509 73.7385C175.144 73.7385 172.729 73.4431 170.264 72.8523C167.848 72.2123 165.333 71.1785 162.716 69.7508C160.15 68.2739 157.836 66.5016 155.773 64.4339C153.71 62.3169 151.999 59.6339 150.641 56.3846C149.333 53.0862 148.679 49.5169 148.679 45.6769C148.679 41.8369 149.333 38.3662 150.641 35.2646C151.949 32.1139 153.609 29.5293 155.622 27.5108C157.685 25.4431 160.025 23.72 162.641 22.3416C167.572 19.6831 172.528 18.3539 177.509 18.3539C179.874 18.3539 182.264 18.7231 184.679 19.4616C187.144 20.1508 189.006 20.8646 190.264 21.6031L192.075 22.6369C192.981 23.1785 193.685 23.6216 194.188 23.9662C195.496 25 196.15 26.1816 196.15 27.5108C196.15 28.7908 195.622 30.1446 194.565 31.5723C192.603 34.2308 190.842 35.56 189.282 35.56C188.377 35.56 187.094 35.0185 185.433 33.9354C183.32 32.2616 180.503 31.4246 176.981 31.4246C173.71 31.4246 170.49 32.5323 167.32 34.7477C165.811 35.8308 164.553 37.3569 163.547 39.3262C162.54 41.2954 162.037 43.5354 162.037 46.0462C162.037 48.5077 162.54 50.7231 163.547 52.6923C164.553 54.6616 165.836 56.2123 167.396 57.3446C170.465 59.5108 173.66 60.5939 176.981 60.5939C178.54 60.5939 179.999 60.3969 181.358 60.0031C182.767 59.6093 183.773 59.2154 184.377 58.8216Z" fill="#FCFEF6"/>
<path d="M197.072 53.5785C197.072 47.6708 199.185 42.7969 203.412 38.9569C207.638 35.1169 212.468 33.1969 217.902 33.1969C223.336 33.1969 228.141 35.1169 232.317 38.9569C236.493 42.7477 238.581 47.597 238.581 53.5046C238.581 57.5908 237.5 61.2339 235.336 64.4339C233.173 67.5846 230.531 69.9231 227.412 71.4493C224.342 72.9262 221.147 73.6646 217.827 73.6646C214.506 73.6646 211.286 72.877 208.166 71.3016C205.047 69.677 202.405 67.3139 200.242 64.2123C198.129 61.0616 197.072 57.5169 197.072 53.5785ZM212.845 58.8954C214.456 60.0769 216.091 60.6677 217.751 60.6677C219.412 60.6677 221.072 60.0523 222.732 58.8216C224.393 57.5908 225.223 55.7693 225.223 53.3569C225.223 50.9446 224.443 49.1477 222.883 47.9662C221.323 46.7846 219.638 46.1939 217.827 46.1939C216.015 46.1939 214.33 46.8093 212.77 48.04C211.21 49.2708 210.43 51.0923 210.43 53.5046C210.43 55.8677 211.235 57.6646 212.845 58.8954Z" fill="#FCFEF6"/>
<path d="M266.736 93.3077C265.226 93.3077 263.434 92.3846 262.962 91.4616C262.491 90.5385 262.491 90.0769 262.491 88.6923C262.491 87.3077 263.906 86.6154 265.321 85.9231C266.736 85.2308 281.358 82.6923 287.962 78.0769C294.566 73.4616 297.396 67.9231 299.283 63.7693C301.17 59.6154 301.17 50.8462 299.283 46.2308C297.396 41.6154 294.094 37.7385 288.811 36.7231C287.962 36.5385 287.113 36.4462 286.358 36.4462C282.868 36.4462 279.66 38.1077 276.924 41.2462C275.887 42.4462 275.132 44.1077 274.472 45.7693L274.283 46.2308C274.189 46.5077 274 46.8769 273.906 47.2462C273.34 48.7231 272.679 50.6616 270.509 51.4923C269.943 51.7693 269.283 51.8616 268.623 51.8616C267.113 51.8616 264.755 51.1231 263.906 49.9231C262.491 47.9846 263.057 45.6769 263.34 44.1077C263.811 42.0769 266.264 40.2308 267.208 38.3846C267.113 36.1693 264.189 33.5846 262.491 32.5693C261.075 31.7385 259.377 31.2769 257.585 31.2769C255.415 31.2769 253.528 31.9231 252.113 33.0308C248.151 36.2616 244.094 42.3539 243.151 50.3846C242.679 55.9231 245.509 61.1375 247.396 65.1539C249.283 69.1702 250.689 75.4923 250.93 76.9693C251.17 78.4462 251.231 80.2923 251.264 81.6769C251.297 83.0616 251.504 84.7124 250.698 85.3693C249.892 86.0261 249.931 85.9231 248.34 85.9231C247.113 85.9231 245.981 85.0923 245.981 84.0769C245.981 83.0616 245.509 78.5385 245.038 76.2308C244.566 73.9231 242.622 70.2308 240.792 67.4616C237.83 62.9769 234.703 58.0682 234.66 52.4897C234.587 42.8786 238.372 32.277 245.509 26.3846C248.623 23.8 253.717 23.1539 257.396 23.1539C257.868 23.1539 258.34 23.1539 258.811 23.2462C263.151 23.6154 268.906 25.2769 272.302 30.6308C272.679 31.1846 272.962 31.7385 273.245 32.3846C277.113 29.2462 281.641 27.4923 286.453 27.4923C287.868 27.4923 289.283 27.5846 290.698 27.8616C298.717 29.4308 306.925 33.8616 310.604 41.2462C314.755 49.4616 313.34 59.9846 309.094 68.2C307.362 71.5904 302.113 80.3846 293.623 85.3693C285.132 90.3539 274.377 91.9231 272.396 92.3846C270.415 92.8462 267.491 93.3077 266.736 93.3077Z" fill="#DA3957"/>
<path d="M295.615 53.7191C295.521 53.7191 295.521 53.7191 295.615 53.7191C294.295 53.7191 293.257 52.6114 293.257 51.4114C293.446 45.2268 287.691 43.2883 287.691 43.2883C286.464 42.9191 285.804 41.6268 286.181 40.4268C286.559 39.2268 287.88 38.5806 289.106 38.9498C292.219 39.9652 298.163 43.8421 297.88 51.5037C297.88 52.7037 296.842 53.7191 295.615 53.7191Z" fill="#DA3957"/>
<path d="M295.698 60.4462C296.844 60.4462 297.774 59.537 297.774 58.4154C297.774 57.2938 296.844 56.3846 295.698 56.3846C294.552 56.3846 293.623 57.2938 293.623 58.4154C293.623 59.537 294.552 60.4462 295.698 60.4462Z" fill="#DA3957"/>
<path d="M140.415 16.6923C140.415 16.6923 142.396 30.6308 127.585 31.0923C127.774 26.7539 127.491 20.9385 140.415 16.6923Z" fill="#188161"/>
<path d="M282.16 4.69232C276.122 9.95386 273.763 14.2 273.009 17.8C265.461 10.7846 255.273 8.93848 254.707 8.84617C253.103 8.56925 251.499 9.58463 251.216 11.2462C250.933 12.8154 251.971 14.3846 253.669 14.6616C255.556 15.0308 257.537 15.6769 259.329 16.3231C263.103 17.8 266.782 19.9231 269.612 22.7846C270.178 23.3385 270.65 23.8923 271.122 24.5385C271.877 25.5539 272.537 26.8462 273.763 27.4923C275.273 28.2308 277.065 26.6616 278.292 25.9231C279.235 25.2769 280.084 24.6308 280.839 23.8923C283.292 21.4923 284.801 18.3539 284.895 14.9385C284.99 12.3539 284.424 9.76925 283.386 7.36925C283.103 6.44617 282.631 5.52309 282.16 4.69232Z" fill="#188161"/>
</g>
<defs>
<filter id="filter0_d" x="-3" y="-3" width="364" height="110" filterUnits="userSpaceOnUse" color-interpolation-filters="sRGB">
<feFlood flood-opacity="0" result="BackgroundImageFix"/>
<feColorMatrix in="SourceAlpha" type="matrix" values="0 0 0 0 0 0 0 0 0 0 0 0 0 0 0 0 0 0 127 0"/>
<feOffset dy="3"/>
<feGaussianBlur stdDeviation="3.5"/>
<feColorMatrix type="matrix" values="0 0 0 0 0.0434201 0 0 0 0 0.254167 0 0 0 0 0.189939 0 0 0 0.25 0"/>
<feBlend mode="normal" in2="BackgroundImageFix" result="effect1_dropShadow"/>
<feBlend mode="normal" in="SourceGraphic" in2="effect1_dropShadow" result="shape"/>
</filter>
</defs>
</svg>
