<svg width="218" height="60" viewBox="0 0 218 60" fill="none" xmlns="http://www.w3.org/2000/svg">
<g filter="url(#filter0_d)">
<path d="M171.278 30.1939C171.278 27.3631 172.293 25.0277 174.321 23.1877C176.35 21.3477 178.668 20.4277 181.277 20.4277C183.885 20.4277 186.191 21.3477 188.196 23.1877C190.201 25.0041 191.203 27.3277 191.203 30.1585C191.203 32.1164 190.684 33.8621 189.645 35.3954C188.607 36.9051 187.339 38.0257 185.841 38.7569C184.368 39.4646 182.834 39.8185 181.241 39.8185C179.647 39.8185 178.101 39.441 176.604 38.6862C175.106 37.9077 173.838 36.7754 172.8 35.2892C171.785 33.7795 171.278 32.081 171.278 30.1939ZM178.85 32.7416C179.622 33.3077 180.407 33.5908 181.204 33.5908C182.001 33.5908 182.798 33.2959 183.595 32.7062C184.392 32.1164 184.791 31.2436 184.791 30.0877C184.791 28.9318 184.416 28.0708 183.668 27.5046C182.919 26.9385 182.11 26.6554 181.241 26.6554C180.371 26.6554 179.562 26.9503 178.813 27.54C178.065 28.1298 177.69 29.0026 177.69 30.1585C177.69 31.2908 178.077 32.1518 178.85 32.7416Z" fill="#FCFEF6"/>
<path d="M51.7351 32.4585C52.846 33.1898 53.643 33.7205 54.126 34.0508C54.9954 34.6877 55.4301 35.301 55.4301 35.8908C55.4301 36.4569 55.0679 37.259 54.3434 38.2969C53.6188 39.3349 52.8822 39.8539 52.1335 39.8539C51.6747 39.8539 50.9743 39.5354 50.0324 38.8985C49.9117 38.8277 49.5735 38.6036 49.0181 38.2262C48.4626 37.8487 48.0279 37.5657 47.7139 37.3769C45.4679 39.0754 42.9441 39.9246 40.1426 39.9246C36.3992 39.9246 33.2354 38.6272 30.6513 36.0323C28.0913 33.4375 26.8113 30.3472 26.8113 26.7616C26.8113 24.8036 27.1735 22.9754 27.8981 21.2769C28.6226 19.5549 29.5886 18.1159 30.7962 16.96C32.0037 15.8041 33.3924 14.8959 34.9622 14.2354C36.532 13.5749 38.1501 13.2446 39.8166 13.2446C43.3909 13.2446 46.4943 14.5067 49.1268 17.0308C51.7592 19.5549 53.0754 22.7513 53.0754 26.62C53.0754 28.578 52.6286 30.5241 51.7351 32.4585ZM33.2234 26.5846C33.2234 28.6841 33.9117 30.3944 35.2883 31.7154C36.689 33.0128 38.2468 33.6616 39.9615 33.6616C41.6762 33.6616 43.2218 33.0246 44.5985 31.7508C45.9751 30.4769 46.6634 28.7667 46.6634 26.62C46.6634 24.4733 45.963 22.7513 44.5622 21.4539C43.1856 20.1564 41.64 19.5077 39.9252 19.5077C38.2105 19.5077 36.6649 20.1682 35.2883 21.4892C33.9117 22.7867 33.2234 24.4851 33.2234 26.5846Z" fill="#FCFEF6"/>
<path d="M63.4472 39.4292C61.008 39.4292 58.9793 38.5328 57.3612 36.74C55.7672 34.9236 54.9702 32.718 54.9702 30.1231V23.9308C54.9702 23.3646 54.9823 22.9518 55.0065 22.6923C55.0548 22.4328 55.1634 22.1262 55.3325 21.7723C55.6706 21.1354 56.6125 20.8169 58.1582 20.8169C59.8487 20.8169 60.8389 21.2651 61.1287 22.1616C61.2736 22.539 61.3461 23.1405 61.3461 23.9662V30.1585C61.3461 31.1257 61.6238 31.8805 62.1793 32.4231C62.7589 32.9657 63.5197 33.2369 64.4616 33.2369C65.4276 33.2369 66.2004 32.9539 66.7801 32.3877C67.3838 31.8216 67.6857 31.0785 67.6857 30.1585V23.8954C67.6857 23.3528 67.6978 22.9518 67.7219 22.6923C67.7702 22.4092 67.891 22.0908 68.0842 21.7369C68.3982 21.1236 69.328 20.8169 70.8736 20.8169C72.3951 20.8169 73.325 21.1354 73.6631 21.7723C73.8321 22.1262 73.9287 22.4446 73.9529 22.7277C74.0012 22.9872 74.0253 23.3882 74.0253 23.9308V36.4569C74.0253 36.9759 74.0012 37.3769 73.9529 37.66C73.9287 37.9195 73.8201 38.2144 73.6268 38.5446C73.2646 39.158 72.3348 39.4646 70.8374 39.4646C69.3642 39.4646 68.4585 39.1816 68.1204 38.6154C67.8789 38.2144 67.7582 37.7308 67.7582 37.1646C67.6616 37.3298 67.4442 37.5657 67.1061 37.8723C66.768 38.179 66.4419 38.4385 66.128 38.6508C65.3068 39.1698 64.4133 39.4292 63.4472 39.4292Z" fill="#FCFEF6"/>
<path d="M93.9841 27.9646C93.9841 29.4036 93.6098 30.4769 92.8611 31.1846C92.1366 31.8687 91.3275 32.2108 90.4339 32.2108H81.8483C81.8483 32.8713 82.2468 33.4257 83.0437 33.8739C83.8407 34.3221 84.6377 34.5462 85.4347 34.5462C86.8354 34.5462 87.9343 34.4046 88.7313 34.1216L89.1298 33.98C89.7094 33.7205 90.1924 33.5908 90.5788 33.5908C91.3517 33.5908 92.0158 34.1216 92.5713 35.1831C92.8852 35.82 93.0422 36.3626 93.0422 36.8108C93.0422 38.9103 90.4701 39.96 85.326 39.96C83.5388 39.96 81.9449 39.6651 80.5441 39.0754C79.1675 38.4621 78.0928 37.66 77.32 36.6692C75.7985 34.7585 75.0377 32.6236 75.0377 30.2646C75.0377 27.2923 76.0158 24.9216 77.972 23.1523C79.9524 21.3595 82.4158 20.4631 85.3622 20.4631C88.7192 20.4631 91.1826 21.619 92.7524 23.9308C93.5735 25.1575 93.9841 26.5021 93.9841 27.9646ZM86.3403 28.9908C87.2581 28.9908 87.7169 28.6133 87.7169 27.8585C87.7169 27.3159 87.4996 26.8795 87.0649 26.5492C86.6543 26.219 86.0505 26.0539 85.2535 26.0539C84.4807 26.0539 83.7079 26.3723 82.9351 27.0092C82.1622 27.6226 81.7758 28.2831 81.7758 28.9908H86.3403Z" fill="#FCFEF6"/>
<path d="M111.581 32.7062L112.233 32.2462C113.054 31.7744 113.634 31.5385 113.972 31.5385C114.72 31.5385 115.529 32.199 116.399 33.52C116.93 34.3457 117.196 35.0062 117.196 35.5016C117.196 35.9969 117.027 36.4098 116.689 36.74C116.375 37.0703 116 37.3651 115.566 37.6246C115.131 37.8841 114.708 38.1318 114.298 38.3677C113.911 38.6036 113.102 38.9103 111.871 39.2877C110.639 39.6651 109.443 39.8539 108.284 39.8539C107.149 39.8539 105.99 39.7123 104.806 39.4292C103.647 39.1226 102.44 38.6272 101.184 37.9431C99.9521 37.2354 98.8412 36.3862 97.851 35.3954C96.8608 34.381 96.0397 33.0954 95.3876 31.5385C94.7597 29.958 94.4457 28.2477 94.4457 26.4077C94.4457 24.5677 94.7597 22.9046 95.3876 21.4185C96.0155 19.9087 96.8125 18.6703 97.7785 17.7031C98.7687 16.7123 99.8918 15.8867 101.148 15.2262C103.514 13.9523 105.893 13.3154 108.284 13.3154C109.419 13.3154 110.566 13.4923 111.726 13.8462C112.909 14.1764 113.803 14.5185 114.406 14.8723L115.276 15.3677C115.711 15.6272 116.049 15.8395 116.29 16.0046C116.918 16.5 117.232 17.0662 117.232 17.7031C117.232 18.3164 116.979 18.9651 116.471 19.6492C115.529 20.9231 114.684 21.56 113.936 21.56C113.501 21.56 112.885 21.3005 112.088 20.7816C111.074 19.9795 109.721 19.5785 108.031 19.5785C106.461 19.5785 104.915 20.1092 103.394 21.1708C102.669 21.6898 102.065 22.421 101.582 23.3646C101.099 24.3082 100.858 25.3816 100.858 26.5846C100.858 27.7641 101.099 28.8257 101.582 29.7692C102.065 30.7128 102.681 31.4559 103.43 31.9985C104.903 33.0364 106.437 33.5554 108.031 33.5554C108.779 33.5554 109.48 33.461 110.132 33.2723C110.808 33.0836 111.291 32.8949 111.581 32.7062Z" fill="#FCFEF6"/>
<path d="M117.674 30.1939C117.674 27.3631 118.689 25.0277 120.718 23.1877C122.746 21.3477 125.065 20.4277 127.673 20.4277C130.281 20.4277 132.588 21.3477 134.592 23.1877C136.597 25.0041 137.599 27.3277 137.599 30.1585C137.599 32.1164 137.08 33.8621 136.041 35.3954C135.003 36.9051 133.735 38.0257 132.238 38.7569C130.764 39.4646 129.231 39.8185 127.637 39.8185C126.043 39.8185 124.497 39.441 123 38.6862C121.502 37.9077 120.234 36.7754 119.196 35.2892C118.182 33.7795 117.674 32.081 117.674 30.1939ZM125.246 32.7416C126.019 33.3077 126.804 33.5908 127.601 33.5908C128.398 33.5908 129.194 33.2959 129.991 32.7062C130.788 32.1164 131.187 31.2436 131.187 30.0877C131.187 28.9318 130.813 28.0708 130.064 27.5046C129.315 26.9385 128.506 26.6554 127.637 26.6554C126.767 26.6554 125.958 26.9503 125.21 27.54C124.461 28.1298 124.087 29.0026 124.087 30.1585C124.087 31.2908 124.473 32.1518 125.246 32.7416Z" fill="#FCFEF6"/>
<path d="M151.113 49.2309C150.389 49.2309 149.528 48.7886 149.302 48.3462C149.076 47.9039 149.076 47.6828 149.076 47.0193C149.076 46.3559 149.755 46.0241 150.434 45.6924C151.113 45.3607 158.132 44.1443 161.302 41.9328C164.472 39.7212 165.83 37.0674 166.736 35.077C167.642 33.0866 167.642 28.8847 166.736 26.6732C165.83 24.4616 164.245 22.6039 161.71 22.1174C161.302 22.0289 160.894 21.9847 160.532 21.9847C158.857 21.9847 157.317 22.7809 156.004 24.2847C155.506 24.8597 155.143 25.6559 154.826 26.452L154.736 26.6732C154.691 26.8059 154.6 26.9828 154.555 27.1597C154.283 27.8674 153.966 28.7962 152.925 29.1943C152.653 29.327 152.336 29.3712 152.019 29.3712C151.294 29.3712 150.162 29.0174 149.755 28.4424C149.076 27.5136 149.347 26.4078 149.483 25.6559C149.71 24.6828 150.887 23.7982 151.34 22.9136C151.294 21.852 149.891 20.6136 149.076 20.127C148.396 19.7289 147.581 19.5078 146.721 19.5078C145.679 19.5078 144.774 19.8174 144.094 20.3482C142.193 21.8962 140.245 24.8155 139.793 28.6636C139.566 31.3174 140.925 33.816 141.83 35.7405C142.736 37.665 143.411 40.6943 143.526 41.402C143.642 42.1097 143.671 42.9943 143.687 43.6578C143.703 44.3212 143.802 45.1123 143.415 45.427C143.028 45.7418 143.047 45.6924 142.283 45.6924C141.694 45.6924 141.151 45.2943 141.151 44.8078C141.151 44.3212 140.925 42.1539 140.698 41.0482C140.472 39.9424 139.539 38.1732 138.66 36.8462C137.238 34.6973 135.737 32.3453 135.717 29.6722C135.682 25.0669 137.499 19.987 140.925 17.1636C142.419 15.9251 144.864 15.6155 146.63 15.6155C146.857 15.6155 147.083 15.6155 147.31 15.6597C149.393 15.8366 152.155 16.6328 153.785 19.1982C153.966 19.4636 154.102 19.7289 154.238 20.0386C156.094 18.5347 158.268 17.6943 160.577 17.6943C161.257 17.6943 161.936 17.7386 162.615 17.8712C166.464 18.6232 170.404 20.7462 172.17 24.2847C174.162 28.2212 173.483 33.2636 171.445 37.2001C170.614 38.8247 168.094 43.0386 164.019 45.427C159.943 47.8155 154.781 48.5674 153.83 48.7886C152.879 49.0097 151.476 49.2309 151.113 49.2309Z" fill="#DA3957"/>
<path d="M164.975 30.2613C164.93 30.2613 164.93 30.2613 164.975 30.2613C164.341 30.2613 163.843 29.7305 163.843 29.1555C163.934 26.1921 161.172 25.2632 161.172 25.2632C160.583 25.0863 160.266 24.4671 160.447 23.8921C160.628 23.3171 161.262 23.0075 161.851 23.1844C163.345 23.6709 166.198 25.5286 166.062 29.1998C166.062 29.7748 165.564 30.2613 164.975 30.2613Z" fill="#DA3957"/>
<path d="M165.015 33.4847C165.565 33.4847 166.011 33.049 166.011 32.5116C166.011 31.9742 165.565 31.5386 165.015 31.5386C164.465 31.5386 164.019 31.9742 164.019 32.5116C164.019 33.049 164.465 33.4847 165.015 33.4847Z" fill="#DA3957"/>
<path d="M90.4793 12.5193C90.4793 12.5193 91.4302 19.1981 84.3208 19.4193C84.4114 17.3404 84.2755 14.5539 90.4793 12.5193Z" fill="#188161"/>
<path d="M158.517 6.76929C155.619 9.29044 154.486 11.3251 154.124 13.0501C150.502 9.68852 145.611 8.8039 145.339 8.75967C144.569 8.62698 143.8 9.11352 143.664 9.90967C143.528 10.6616 144.026 11.4135 144.841 11.5462C145.747 11.7231 146.698 12.0327 147.558 12.3424C149.369 13.0501 151.136 14.0674 152.494 15.4385C152.766 15.7039 152.992 15.9693 153.219 16.2789C153.581 16.7654 153.898 17.3847 154.486 17.6943C155.211 18.0481 156.071 17.2962 156.66 16.9424C157.113 16.6328 157.52 16.3231 157.883 15.9693C159.06 14.8193 159.785 13.3154 159.83 11.6789C159.875 10.4404 159.603 9.20198 159.105 8.05198C158.969 7.60967 158.743 7.16736 158.517 6.76929Z" fill="#188161"/>
</g>
<defs>
<filter id="filter0_d" x="18" y="1" width="182" height="60" filterUnits="userSpaceOnUse" color-interpolation-filters="sRGB">
<feFlood flood-opacity="0" result="BackgroundImageFix"/>
<feColorMatrix in="SourceAlpha" type="matrix" values="0 0 0 0 0 0 0 0 0 0 0 0 0 0 0 0 0 0 127 0"/>
<feOffset dy="3"/>
<feGaussianBlur stdDeviation="3.5"/>
<feColorMatrix type="matrix" values="0 0 0 0 0.0434201 0 0 0 0 0.254167 0 0 0 0 0.189939 0 0 0 0.25 0"/>
<feBlend mode="normal" in2="BackgroundImageFix" result="effect1_dropShadow"/>
<feBlend mode="normal" in="SourceGraphic" in2="effect1_dropShadow" result="shape"/>
</filter>
</defs>
</svg>

