<svg width="28" height="27" viewBox="0 0 28 27" fill="none" xmlns="http://www.w3.org/2000/svg">
<g filter="url(#filter0_d)">
<path d="M2 13C2 6.37258 7.37258 1 14 1C20.6274 1 26 6.37258 26 13C26 19.6274 20.6274 25 14 25C7.37258 25 2 19.6274 2 13Z" fill="white"/>
<path d="M17.75 10C18.9926 10 20 8.99264 20 7.75C20 6.50736 18.9926 5.5 17.75 5.5C16.5074 5.5 15.5 6.50736 15.5 7.75C15.5 8.99264 16.5074 10 17.75 10Z" stroke="#DA3957" stroke-width="2" stroke-linecap="round" stroke-linejoin="round"/>
<path d="M8.75 15.25C9.99264 15.25 11 14.2426 11 13C11 11.7574 9.99264 10.75 8.75 10.75C7.50736 10.75 6.5 11.7574 6.5 13C6.5 14.2426 7.50736 15.25 8.75 15.25Z" stroke="#DA3957" stroke-width="2" stroke-linecap="round" stroke-linejoin="round"/>
<path d="M17.75 20.5C18.9926 20.5 20 19.4926 20 18.25C20 17.0074 18.9926 16 17.75 16C16.5074 16 15.5 17.0074 15.5 18.25C15.5 19.4926 16.5074 20.5 17.75 20.5Z" stroke="#DA3957" stroke-width="2" stroke-linecap="round" stroke-linejoin="round"/>
<path d="M10.6924 14.1323L15.8149 17.1173" stroke="#DA3957" stroke-width="2" stroke-linecap="round" stroke-linejoin="round"/>
<path d="M15.8074 8.88232L10.6924 11.8673" stroke="#DA3957" stroke-width="2" stroke-linecap="round" stroke-linejoin="round"/>
</g>
<defs>
<filter id="filter0_d" x="0.5" y="0" width="27" height="27" filterUnits="userSpaceOnUse" color-interpolation-filters="sRGB">
<feFlood flood-opacity="0" result="BackgroundImageFix"/>
<feColorMatrix in="SourceAlpha" type="matrix" values="0 0 0 0 0 0 0 0 0 0 0 0 0 0 0 0 0 0 127 0"/>
<feMorphology radius="0.5" operator="dilate" in="SourceAlpha" result="effect1_dropShadow"/>
<feOffset dy="0.5"/>
<feGaussianBlur stdDeviation="0.5"/>
<feColorMatrix type="matrix" values="0 0 0 0 0.445833 0 0 0 0 0.13375 0 0 0 0 0.13375 0 0 0 0.1 0"/>
<feBlend mode="normal" in2="BackgroundImageFix" result="effect1_dropShadow"/>
<feBlend mode="normal" in="SourceGraphic" in2="effect1_dropShadow" result="shape"/>
</filter>
</defs>
</svg>
