<svg width="82" height="106" viewBox="0 0 82 106" fill="none" xmlns="http://www.w3.org/2000/svg">
<g filter="url(#filter0_d)">
<path d="M14 9.54369C14 7.03428 16.0343 5 18.5437 5H63.4563C65.9657 5 68 7.03428 68 9.54369V56C68 70.9117 55.9117 83 41 83C26.0883 83 14 70.9117 14 56V9.54369Z" fill="#FCFEF6"/>
<path d="M17 39.8174C17 37.1568 19.1568 35 21.8174 35H60.1826C62.8432 35 65 37.1568 65 39.8174V55C65 68.2548 54.2548 79 41 79C27.7452 79 17 68.2548 17 55V39.8174Z" fill="#188161"/>
<path d="M34.5078 15.8545V18.3745C34.1808 18.6085 33.8328 18.784 33.4638 18.901C33.0948 19.015 32.6928 19.072 32.2578 19.072C31.7358 19.072 31.2633 18.991 30.8403 18.829C30.4203 18.667 30.0618 18.4405 29.7648 18.1495C29.4678 17.8585 29.2383 17.5105 29.0763 17.1055C28.9173 16.7005 28.8378 16.255 28.8378 15.769C28.8378 15.28 28.9143 14.833 29.0673 14.428C29.2233 14.02 29.4453 13.672 29.7333 13.384C30.0213 13.093 30.3693 12.868 30.7773 12.709C31.1883 12.547 31.6488 12.466 32.1588 12.466C32.4168 12.466 32.6553 12.4855 32.8743 12.5245C33.0963 12.5635 33.3018 12.619 33.4908 12.691C33.6798 12.763 33.8538 12.85 34.0128 12.952C34.1748 13.051 34.3248 13.1635 34.4628 13.2895L34.1883 13.7215C34.1463 13.7905 34.0908 13.834 34.0218 13.852C33.9528 13.87 33.8778 13.8535 33.7968 13.8025C33.7188 13.7575 33.6318 13.705 33.5358 13.645C33.4428 13.585 33.3303 13.5295 33.1983 13.4785C33.0693 13.4275 32.9178 13.384 32.7438 13.348C32.5698 13.312 32.3643 13.294 32.1273 13.294C31.7733 13.294 31.4538 13.3525 31.1688 13.4695C30.8838 13.5835 30.6408 13.7485 30.4398 13.9645C30.2388 14.1805 30.0843 14.4415 29.9763 14.7475C29.8683 15.0505 29.8143 15.391 29.8143 15.769C29.8143 16.165 29.8713 16.5205 29.9853 16.8355C30.0993 17.1475 30.2598 17.413 30.4668 17.632C30.6768 17.848 30.9303 18.013 31.2273 18.127C31.5273 18.241 31.8618 18.298 32.2308 18.298C32.3748 18.298 32.5083 18.2905 32.6313 18.2755C32.7573 18.2575 32.8773 18.2335 32.9913 18.2035C33.1053 18.1735 33.2148 18.136 33.3198 18.091C33.4278 18.046 33.5343 17.9965 33.6393 17.9425V16.588H32.6853C32.6253 16.588 32.5758 16.57 32.5368 16.534C32.5008 16.498 32.4828 16.453 32.4828 16.399V15.8545H34.5078ZM35.9769 15.3055C36.1239 15.0055 36.3009 14.77 36.5079 14.599C36.7149 14.428 36.9639 14.3425 37.2549 14.3425C37.3539 14.3425 37.4469 14.3545 37.5339 14.3785C37.6239 14.3995 37.7019 14.4325 37.7679 14.4775L37.7094 15.139C37.6884 15.22 37.6389 15.2605 37.5609 15.2605C37.5189 15.2605 37.4559 15.253 37.3719 15.238C37.2879 15.22 37.1979 15.211 37.1019 15.211C36.9609 15.211 36.8364 15.232 36.7284 15.274C36.6204 15.313 36.5229 15.373 36.4359 15.454C36.3519 15.532 36.2769 15.6295 36.2109 15.7465C36.1449 15.8605 36.0834 15.991 36.0264 16.138V19H35.1489V14.428H35.6529C35.7489 14.428 35.8134 14.446 35.8464 14.482C35.8824 14.515 35.9079 14.575 35.9229 14.662L35.9769 15.3055ZM40.4315 16.9705C40.0745 16.9825 39.7715 17.011 39.5225 17.056C39.2735 17.098 39.071 17.155 38.915 17.227C38.759 17.299 38.6465 17.3845 38.5775 17.4835C38.5085 17.5795 38.474 17.6875 38.474 17.8075C38.474 17.9215 38.492 18.0205 38.528 18.1045C38.567 18.1855 38.618 18.253 38.681 18.307C38.747 18.358 38.8235 18.3955 38.9105 18.4195C38.9975 18.4435 39.092 18.4555 39.194 18.4555C39.329 18.4555 39.452 18.442 39.563 18.415C39.677 18.388 39.7835 18.3505 39.8825 18.3025C39.9815 18.2515 40.076 18.19 40.166 18.118C40.256 18.046 40.3445 17.9635 40.4315 17.8705V16.9705ZM37.8575 15.067C38.1125 14.824 38.3885 14.6425 38.6855 14.5225C38.9855 14.4025 39.314 14.3425 39.671 14.3425C39.932 14.3425 40.163 14.386 40.364 14.473C40.565 14.557 40.7345 14.6755 40.8725 14.8285C41.0105 14.9815 41.114 15.1645 41.183 15.3775C41.255 15.5905 41.291 15.826 41.291 16.084V19H40.8995C40.8125 19 40.7465 18.9865 40.7015 18.9595C40.6565 18.9295 40.6205 18.8755 40.5935 18.7975L40.499 18.397C40.382 18.505 40.2665 18.601 40.1525 18.685C40.0385 18.766 39.9185 18.8365 39.7925 18.8965C39.6695 18.9535 39.5375 18.997 39.3965 19.027C39.2555 19.057 39.0995 19.072 38.9285 19.072C38.7485 19.072 38.579 19.048 38.42 19C38.264 18.949 38.1275 18.8725 38.0105 18.7705C37.8935 18.6685 37.8005 18.541 37.7315 18.388C37.6655 18.235 37.6325 18.0565 37.6325 17.8525C37.6325 17.6725 37.6805 17.5 37.7765 17.335C37.8755 17.167 38.0345 17.017 38.2535 16.885C38.4755 16.753 38.7635 16.645 39.1175 16.561C39.4745 16.477 39.9125 16.429 40.4315 16.417V16.084C40.4315 15.739 40.358 15.481 40.211 15.31C40.064 15.139 39.848 15.0535 39.563 15.0535C39.371 15.0535 39.209 15.0775 39.077 15.1255C38.948 15.1735 38.8355 15.2275 38.7395 15.2875C38.6465 15.3445 38.564 15.397 38.492 15.445C38.423 15.493 38.351 15.517 38.276 15.517C38.216 15.517 38.1635 15.5005 38.1185 15.4675C38.0765 15.4345 38.042 15.3955 38.015 15.3505L37.8575 15.067ZM44.7612 15.2155C44.7372 15.2545 44.7117 15.283 44.6847 15.301C44.6577 15.316 44.6232 15.3235 44.5812 15.3235C44.5332 15.3235 44.4792 15.307 44.4192 15.274C44.3622 15.241 44.2917 15.205 44.2077 15.166C44.1267 15.127 44.0307 15.091 43.9197 15.058C43.8087 15.025 43.6767 15.0085 43.5237 15.0085C43.3977 15.0085 43.2822 15.025 43.1772 15.058C43.0752 15.088 42.9882 15.1315 42.9162 15.1885C42.8442 15.2425 42.7887 15.3085 42.7497 15.3865C42.7107 15.4615 42.6912 15.5425 42.6912 15.6295C42.6912 15.7435 42.7242 15.838 42.7902 15.913C42.8592 15.988 42.9477 16.0525 43.0557 16.1065C43.1667 16.1605 43.2912 16.21 43.4292 16.255C43.5702 16.297 43.7127 16.342 43.8567 16.39C44.0037 16.438 44.1462 16.4935 44.2842 16.5565C44.4252 16.6165 44.5497 16.693 44.6577 16.786C44.7687 16.876 44.8572 16.9855 44.9232 17.1145C44.9922 17.2435 45.0267 17.401 45.0267 17.587C45.0267 17.8 44.9877 17.998 44.9097 18.181C44.8347 18.361 44.7222 18.517 44.5722 18.649C44.4252 18.781 44.2422 18.8845 44.0232 18.9595C43.8042 19.0345 43.5537 19.072 43.2717 19.072C42.9567 19.072 42.6657 19.0195 42.3987 18.9145C42.1317 18.8095 41.9082 18.676 41.7282 18.514L41.9352 18.1765C41.9592 18.1345 41.9892 18.103 42.0252 18.082C42.0612 18.058 42.1092 18.046 42.1692 18.046C42.2262 18.046 42.2847 18.067 42.3447 18.109C42.4047 18.151 42.4767 18.1975 42.5607 18.2485C42.6447 18.2965 42.7467 18.3415 42.8667 18.3835C42.9867 18.4225 43.1367 18.442 43.3167 18.442C43.4667 18.442 43.5972 18.424 43.7082 18.388C43.8192 18.349 43.9107 18.298 43.9827 18.235C44.0577 18.169 44.1132 18.094 44.1492 18.01C44.1852 17.926 44.2032 17.8375 44.2032 17.7445C44.2032 17.6245 44.1687 17.5255 44.0997 17.4475C44.0337 17.3665 43.9452 17.2975 43.8342 17.2405C43.7262 17.1835 43.6017 17.134 43.4607 17.092C43.3197 17.05 43.1757 17.005 43.0287 16.957C42.8817 16.909 42.7377 16.8535 42.5967 16.7905C42.4557 16.7275 42.3297 16.648 42.2187 16.552C42.1107 16.456 42.0222 16.339 41.9532 16.201C41.8872 16.063 41.8542 15.895 41.8542 15.697C41.8542 15.52 41.8902 15.3505 41.9622 15.1885C42.0372 15.0265 42.1437 14.884 42.2817 14.761C42.4227 14.638 42.5952 14.5405 42.7992 14.4685C43.0062 14.3935 43.2417 14.356 43.5057 14.356C43.8087 14.356 44.0817 14.404 44.3247 14.5C44.5707 14.596 44.7807 14.728 44.9547 14.896L44.7612 15.2155ZM48.0339 16.9705C47.6769 16.9825 47.3739 17.011 47.1249 17.056C46.8759 17.098 46.6734 17.155 46.5174 17.227C46.3614 17.299 46.2489 17.3845 46.1799 17.4835C46.1109 17.5795 46.0764 17.6875 46.0764 17.8075C46.0764 17.9215 46.0944 18.0205 46.1304 18.1045C46.1694 18.1855 46.2204 18.253 46.2834 18.307C46.3494 18.358 46.4259 18.3955 46.5129 18.4195C46.5999 18.4435 46.6944 18.4555 46.7964 18.4555C46.9314 18.4555 47.0544 18.442 47.1654 18.415C47.2794 18.388 47.3859 18.3505 47.4849 18.3025C47.5839 18.2515 47.6784 18.19 47.7684 18.118C47.8584 18.046 47.9469 17.9635 48.0339 17.8705V16.9705ZM45.4599 15.067C45.7149 14.824 45.9909 14.6425 46.2879 14.5225C46.5879 14.4025 46.9164 14.3425 47.2734 14.3425C47.5344 14.3425 47.7654 14.386 47.9664 14.473C48.1674 14.557 48.3369 14.6755 48.4749 14.8285C48.6129 14.9815 48.7164 15.1645 48.7854 15.3775C48.8574 15.5905 48.8934 15.826 48.8934 16.084V19H48.5019C48.4149 19 48.3489 18.9865 48.3039 18.9595C48.2589 18.9295 48.2229 18.8755 48.1959 18.7975L48.1014 18.397C47.9844 18.505 47.8689 18.601 47.7549 18.685C47.6409 18.766 47.5209 18.8365 47.3949 18.8965C47.2719 18.9535 47.1399 18.997 46.9989 19.027C46.8579 19.057 46.7019 19.072 46.5309 19.072C46.3509 19.072 46.1814 19.048 46.0224 19C45.8664 18.949 45.7299 18.8725 45.6129 18.7705C45.4959 18.6685 45.4029 18.541 45.3339 18.388C45.2679 18.235 45.2349 18.0565 45.2349 17.8525C45.2349 17.6725 45.2829 17.5 45.3789 17.335C45.4779 17.167 45.6369 17.017 45.8559 16.885C46.0779 16.753 46.3659 16.645 46.7199 16.561C47.0769 16.477 47.5149 16.429 48.0339 16.417V16.084C48.0339 15.739 47.9604 15.481 47.8134 15.31C47.6664 15.139 47.4504 15.0535 47.1654 15.0535C46.9734 15.0535 46.8114 15.0775 46.6794 15.1255C46.5504 15.1735 46.4379 15.2275 46.3419 15.2875C46.2489 15.3445 46.1664 15.397 46.0944 15.445C46.0254 15.493 45.9534 15.517 45.8784 15.517C45.8184 15.517 45.7659 15.5005 45.7209 15.4675C45.6789 15.4345 45.6444 15.3955 45.6174 15.3505L45.4599 15.067ZM52.3636 15.2155C52.3396 15.2545 52.3141 15.283 52.2871 15.301C52.2601 15.316 52.2256 15.3235 52.1836 15.3235C52.1356 15.3235 52.0816 15.307 52.0216 15.274C51.9646 15.241 51.8941 15.205 51.8101 15.166C51.7291 15.127 51.6331 15.091 51.5221 15.058C51.4111 15.025 51.2791 15.0085 51.1261 15.0085C51.0001 15.0085 50.8846 15.025 50.7796 15.058C50.6776 15.088 50.5906 15.1315 50.5186 15.1885C50.4466 15.2425 50.3911 15.3085 50.3521 15.3865C50.3131 15.4615 50.2936 15.5425 50.2936 15.6295C50.2936 15.7435 50.3266 15.838 50.3926 15.913C50.4616 15.988 50.5501 16.0525 50.6581 16.1065C50.7691 16.1605 50.8936 16.21 51.0316 16.255C51.1726 16.297 51.3151 16.342 51.4591 16.39C51.6061 16.438 51.7486 16.4935 51.8866 16.5565C52.0276 16.6165 52.1521 16.693 52.2601 16.786C52.3711 16.876 52.4596 16.9855 52.5256 17.1145C52.5946 17.2435 52.6291 17.401 52.6291 17.587C52.6291 17.8 52.5901 17.998 52.5121 18.181C52.4371 18.361 52.3246 18.517 52.1746 18.649C52.0276 18.781 51.8446 18.8845 51.6256 18.9595C51.4066 19.0345 51.1561 19.072 50.8741 19.072C50.5591 19.072 50.2681 19.0195 50.0011 18.9145C49.7341 18.8095 49.5106 18.676 49.3306 18.514L49.5376 18.1765C49.5616 18.1345 49.5916 18.103 49.6276 18.082C49.6636 18.058 49.7116 18.046 49.7716 18.046C49.8286 18.046 49.8871 18.067 49.9471 18.109C50.0071 18.151 50.0791 18.1975 50.1631 18.2485C50.2471 18.2965 50.3491 18.3415 50.4691 18.3835C50.5891 18.4225 50.7391 18.442 50.9191 18.442C51.0691 18.442 51.1996 18.424 51.3106 18.388C51.4216 18.349 51.5131 18.298 51.5851 18.235C51.6601 18.169 51.7156 18.094 51.7516 18.01C51.7876 17.926 51.8056 17.8375 51.8056 17.7445C51.8056 17.6245 51.7711 17.5255 51.7021 17.4475C51.6361 17.3665 51.5476 17.2975 51.4366 17.2405C51.3286 17.1835 51.2041 17.134 51.0631 17.092C50.9221 17.05 50.7781 17.005 50.6311 16.957C50.4841 16.909 50.3401 16.8535 50.1991 16.7905C50.0581 16.7275 49.9321 16.648 49.8211 16.552C49.7131 16.456 49.6246 16.339 49.5556 16.201C49.4896 16.063 49.4566 15.895 49.4566 15.697C49.4566 15.52 49.4926 15.3505 49.5646 15.1885C49.6396 15.0265 49.7461 14.884 49.8841 14.761C50.0251 14.638 50.1976 14.5405 50.4016 14.4685C50.6086 14.3935 50.8441 14.356 51.1081 14.356C51.4111 14.356 51.6841 14.404 51.9271 14.5C52.1731 14.596 52.3831 14.728 52.5571 14.896L52.3636 15.2155ZM26.5111 26.2155C26.4871 26.2545 26.4616 26.283 26.4346 26.301C26.4076 26.316 26.3731 26.3235 26.3311 26.3235C26.2831 26.3235 26.2291 26.307 26.1691 26.274C26.1121 26.241 26.0416 26.205 25.9576 26.166C25.8766 26.127 25.7806 26.091 25.6696 26.058C25.5586 26.025 25.4266 26.0085 25.2736 26.0085C25.1476 26.0085 25.0321 26.025 24.9271 26.058C24.8251 26.088 24.7381 26.1315 24.6661 26.1885C24.5941 26.2425 24.5386 26.3085 24.4996 26.3865C24.4606 26.4615 24.4411 26.5425 24.4411 26.6295C24.4411 26.7435 24.4741 26.838 24.5401 26.913C24.6091 26.988 24.6976 27.0525 24.8056 27.1065C24.9166 27.1605 25.0411 27.21 25.1791 27.255C25.3201 27.297 25.4626 27.342 25.6066 27.39C25.7536 27.438 25.8961 27.4935 26.0341 27.5565C26.1751 27.6165 26.2996 27.693 26.4076 27.786C26.5186 27.876 26.6071 27.9855 26.6731 28.1145C26.7421 28.2435 26.7766 28.401 26.7766 28.587C26.7766 28.8 26.7376 28.998 26.6596 29.181C26.5846 29.361 26.4721 29.517 26.3221 29.649C26.1751 29.781 25.9921 29.8845 25.7731 29.9595C25.5541 30.0345 25.3036 30.072 25.0216 30.072C24.7066 30.072 24.4156 30.0195 24.1486 29.9145C23.8816 29.8095 23.6581 29.676 23.4781 29.514L23.6851 29.1765C23.7091 29.1345 23.7391 29.103 23.7751 29.082C23.8111 29.058 23.8591 29.046 23.9191 29.046C23.9761 29.046 24.0346 29.067 24.0946 29.109C24.1546 29.151 24.2266 29.1975 24.3106 29.2485C24.3946 29.2965 24.4966 29.3415 24.6166 29.3835C24.7366 29.4225 24.8866 29.442 25.0666 29.442C25.2166 29.442 25.3471 29.424 25.4581 29.388C25.5691 29.349 25.6606 29.298 25.7326 29.235C25.8076 29.169 25.8631 29.094 25.8991 29.01C25.9351 28.926 25.9531 28.8375 25.9531 28.7445C25.9531 28.6245 25.9186 28.5255 25.8496 28.4475C25.7836 28.3665 25.6951 28.2975 25.5841 28.2405C25.4761 28.1835 25.3516 28.134 25.2106 28.092C25.0696 28.05 24.9256 28.005 24.7786 27.957C24.6316 27.909 24.4876 27.8535 24.3466 27.7905C24.2056 27.7275 24.0796 27.648 23.9686 27.552C23.8606 27.456 23.7721 27.339 23.7031 27.201C23.6371 27.063 23.6041 26.895 23.6041 26.697C23.6041 26.52 23.6401 26.3505 23.7121 26.1885C23.7871 26.0265 23.8936 25.884 24.0316 25.761C24.1726 25.638 24.3451 25.5405 24.5491 25.4685C24.7561 25.3935 24.9916 25.356 25.2556 25.356C25.5586 25.356 25.8316 25.404 26.0746 25.5C26.3206 25.596 26.5306 25.728 26.7046 25.896L26.5111 26.2155ZM29.7838 27.9705C29.4268 27.9825 29.1238 28.011 28.8748 28.056C28.6258 28.098 28.4233 28.155 28.2673 28.227C28.1113 28.299 27.9988 28.3845 27.9298 28.4835C27.8608 28.5795 27.8263 28.6875 27.8263 28.8075C27.8263 28.9215 27.8443 29.0205 27.8803 29.1045C27.9193 29.1855 27.9703 29.253 28.0333 29.307C28.0993 29.358 28.1758 29.3955 28.2628 29.4195C28.3498 29.4435 28.4443 29.4555 28.5463 29.4555C28.6813 29.4555 28.8043 29.442 28.9153 29.415C29.0293 29.388 29.1358 29.3505 29.2348 29.3025C29.3338 29.2515 29.4283 29.19 29.5183 29.118C29.6083 29.046 29.6968 28.9635 29.7838 28.8705V27.9705ZM27.2098 26.067C27.4648 25.824 27.7408 25.6425 28.0378 25.5225C28.3378 25.4025 28.6663 25.3425 29.0233 25.3425C29.2843 25.3425 29.5153 25.386 29.7163 25.473C29.9173 25.557 30.0868 25.6755 30.2248 25.8285C30.3628 25.9815 30.4663 26.1645 30.5353 26.3775C30.6073 26.5905 30.6433 26.826 30.6433 27.084V30H30.2518C30.1648 30 30.0988 29.9865 30.0538 29.9595C30.0088 29.9295 29.9728 29.8755 29.9458 29.7975L29.8513 29.397C29.7343 29.505 29.6188 29.601 29.5048 29.685C29.3908 29.766 29.2708 29.8365 29.1448 29.8965C29.0218 29.9535 28.8898 29.997 28.7488 30.027C28.6078 30.057 28.4518 30.072 28.2808 30.072C28.1008 30.072 27.9313 30.048 27.7723 30C27.6163 29.949 27.4798 29.8725 27.3628 29.7705C27.2458 29.6685 27.1528 29.541 27.0838 29.388C27.0178 29.235 26.9848 29.0565 26.9848 28.8525C26.9848 28.6725 27.0328 28.5 27.1288 28.335C27.2278 28.167 27.3868 28.017 27.6058 27.885C27.8278 27.753 28.1158 27.645 28.4698 27.561C28.8268 27.477 29.2648 27.429 29.7838 27.417V27.084C29.7838 26.739 29.7103 26.481 29.5633 26.31C29.4163 26.139 29.2003 26.0535 28.9153 26.0535C28.7233 26.0535 28.5613 26.0775 28.4293 26.1255C28.3003 26.1735 28.1878 26.2275 28.0918 26.2875C27.9988 26.3445 27.9163 26.397 27.8443 26.445C27.7753 26.493 27.7033 26.517 27.6283 26.517C27.5683 26.517 27.5158 26.5005 27.4708 26.4675C27.4288 26.4345 27.3943 26.3955 27.3673 26.3505L27.2098 26.067ZM32.7874 30.072C32.4184 30.072 32.1334 29.9685 31.9324 29.7615C31.7344 29.5545 31.6354 29.259 31.6354 28.875V26.139H31.1044C31.0534 26.139 31.0099 26.124 30.9739 26.094C30.9409 26.061 30.9244 26.013 30.9244 25.95V25.5945L31.6669 25.491L31.8649 24.1275C31.8769 24.0765 31.8994 24.0375 31.9324 24.0105C31.9684 23.9805 32.0134 23.9655 32.0674 23.9655H32.5129V25.5H33.8089V26.139H32.5129V28.8165C32.5129 28.9965 32.5564 29.1315 32.6434 29.2215C32.7334 29.3085 32.8474 29.352 32.9854 29.352C33.0664 29.352 33.1354 29.3415 33.1924 29.3205C33.2524 29.2995 33.3034 29.277 33.3454 29.253C33.3874 29.226 33.4234 29.202 33.4534 29.181C33.4834 29.16 33.5104 29.1495 33.5344 29.1495C33.5644 29.1495 33.5869 29.157 33.6019 29.172C33.6199 29.184 33.6379 29.205 33.6559 29.235L33.9169 29.658C33.7729 29.79 33.6019 29.892 33.4039 29.964C33.2059 30.036 33.0004 30.072 32.7874 30.072ZM38.0197 25.428V30H37.4932C37.3732 30 37.2952 29.9415 37.2592 29.8245L37.1962 29.3655C37.0972 29.4705 36.9937 29.5665 36.8857 29.6535C36.7777 29.7405 36.6622 29.8155 36.5392 29.8785C36.4162 29.9385 36.2857 29.985 36.1477 30.018C36.0097 30.054 35.8612 30.072 35.7022 30.072C35.4502 30.072 35.2282 30.03 35.0362 29.946C34.8472 29.862 34.6882 29.745 34.5592 29.595C34.4302 29.442 34.3327 29.259 34.2667 29.046C34.2007 28.833 34.1677 28.5975 34.1677 28.3395V25.428H35.0497V28.3395C35.0497 28.6665 35.1247 28.9215 35.2747 29.1045C35.4247 29.2845 35.6542 29.3745 35.9632 29.3745C36.1882 29.3745 36.3982 29.322 36.5932 29.217C36.7882 29.109 36.9712 28.962 37.1422 28.776V25.428H38.0197ZM39.6725 26.3055C39.8195 26.0055 39.9965 25.77 40.2035 25.599C40.4105 25.428 40.6595 25.3425 40.9505 25.3425C41.0495 25.3425 41.1425 25.3545 41.2295 25.3785C41.3195 25.3995 41.3975 25.4325 41.4635 25.4775L41.405 26.139C41.384 26.22 41.3345 26.2605 41.2565 26.2605C41.2145 26.2605 41.1515 26.253 41.0675 26.238C40.9835 26.22 40.8935 26.211 40.7975 26.211C40.6565 26.211 40.532 26.232 40.424 26.274C40.316 26.313 40.2185 26.373 40.1315 26.454C40.0475 26.532 39.9725 26.6295 39.9065 26.7465C39.8405 26.8605 39.779 26.991 39.722 27.138V30H38.8445V25.428H39.3485C39.4445 25.428 39.509 25.446 39.542 25.482C39.578 25.515 39.6035 25.575 39.6185 25.662L39.6725 26.3055ZM44.1271 27.9705C43.7701 27.9825 43.4671 28.011 43.2181 28.056C42.9691 28.098 42.7666 28.155 42.6106 28.227C42.4546 28.299 42.3421 28.3845 42.2731 28.4835C42.2041 28.5795 42.1696 28.6875 42.1696 28.8075C42.1696 28.9215 42.1876 29.0205 42.2236 29.1045C42.2626 29.1855 42.3136 29.253 42.3766 29.307C42.4426 29.358 42.5191 29.3955 42.6061 29.4195C42.6931 29.4435 42.7876 29.4555 42.8896 29.4555C43.0246 29.4555 43.1476 29.442 43.2586 29.415C43.3726 29.388 43.4791 29.3505 43.5781 29.3025C43.6771 29.2515 43.7716 29.19 43.8616 29.118C43.9516 29.046 44.0401 28.9635 44.1271 28.8705V27.9705ZM41.5531 26.067C41.8081 25.824 42.0841 25.6425 42.3811 25.5225C42.6811 25.4025 43.0096 25.3425 43.3666 25.3425C43.6276 25.3425 43.8586 25.386 44.0596 25.473C44.2606 25.557 44.4301 25.6755 44.5681 25.8285C44.7061 25.9815 44.8096 26.1645 44.8786 26.3775C44.9506 26.5905 44.9866 26.826 44.9866 27.084V30H44.5951C44.5081 30 44.4421 29.9865 44.3971 29.9595C44.3521 29.9295 44.3161 29.8755 44.2891 29.7975L44.1946 29.397C44.0776 29.505 43.9621 29.601 43.8481 29.685C43.7341 29.766 43.6141 29.8365 43.4881 29.8965C43.3651 29.9535 43.2331 29.997 43.0921 30.027C42.9511 30.057 42.7951 30.072 42.6241 30.072C42.4441 30.072 42.2746 30.048 42.1156 30C41.9596 29.949 41.8231 29.8725 41.7061 29.7705C41.5891 29.6685 41.4961 29.541 41.4271 29.388C41.3611 29.235 41.3281 29.0565 41.3281 28.8525C41.3281 28.6725 41.3761 28.5 41.4721 28.335C41.5711 28.167 41.7301 28.017 41.9491 27.885C42.1711 27.753 42.4591 27.645 42.8131 27.561C43.1701 27.477 43.6081 27.429 44.1271 27.417V27.084C44.1271 26.739 44.0536 26.481 43.9066 26.31C43.7596 26.139 43.5436 26.0535 43.2586 26.0535C43.0666 26.0535 42.9046 26.0775 42.7726 26.1255C42.6436 26.1735 42.5311 26.2275 42.4351 26.2875C42.3421 26.3445 42.2596 26.397 42.1876 26.445C42.1186 26.493 42.0466 26.517 41.9716 26.517C41.9116 26.517 41.8591 26.5005 41.8141 26.4675C41.7721 26.4345 41.7376 26.3955 41.7106 26.3505L41.5531 26.067ZM48.7088 26.535C48.5648 26.346 48.4088 26.214 48.2408 26.139C48.0758 26.064 47.8898 26.0265 47.6828 26.0265C47.2808 26.0265 46.9688 26.172 46.7468 26.463C46.5278 26.751 46.4183 27.1725 46.4183 27.7275C46.4183 28.0185 46.4423 28.2675 46.4903 28.4745C46.5413 28.6785 46.6133 28.8465 46.7063 28.9785C46.8023 29.1075 46.9193 29.2035 47.0573 29.2665C47.1953 29.3265 47.3513 29.3565 47.5253 29.3565C47.7803 29.3565 48.0008 29.2995 48.1868 29.1855C48.3728 29.0715 48.5468 28.911 48.7088 28.704V26.535ZM49.5908 23.358V30H49.0598C48.9368 30 48.8603 29.9415 48.8303 29.8245L48.7538 29.298C48.5588 29.529 48.3368 29.715 48.0878 29.856C47.8418 29.994 47.5568 30.063 47.2328 30.063C46.9718 30.063 46.7348 30.012 46.5218 29.91C46.3118 29.808 46.1318 29.6595 45.9818 29.4645C45.8318 29.2665 45.7163 29.022 45.6353 28.731C45.5543 28.44 45.5138 28.1055 45.5138 27.7275C45.5138 27.3885 45.5588 27.0735 45.6488 26.7825C45.7388 26.4915 45.8693 26.2395 46.0403 26.0265C46.2113 25.8135 46.4183 25.647 46.6613 25.527C46.9043 25.404 47.1788 25.3425 47.4848 25.3425C47.7608 25.3425 47.9948 25.3875 48.1868 25.4775C48.3818 25.5675 48.5558 25.695 48.7088 25.86V23.358H49.5908ZM52.872 27.9705C52.515 27.9825 52.212 28.011 51.963 28.056C51.714 28.098 51.5115 28.155 51.3555 28.227C51.1995 28.299 51.087 28.3845 51.018 28.4835C50.949 28.5795 50.9145 28.6875 50.9145 28.8075C50.9145 28.9215 50.9325 29.0205 50.9685 29.1045C51.0075 29.1855 51.0585 29.253 51.1215 29.307C51.1875 29.358 51.264 29.3955 51.351 29.4195C51.438 29.4435 51.5325 29.4555 51.6345 29.4555C51.7695 29.4555 51.8925 29.442 52.0035 29.415C52.1175 29.388 52.224 29.3505 52.323 29.3025C52.422 29.2515 52.5165 29.19 52.6065 29.118C52.6965 29.046 52.785 28.9635 52.872 28.8705V27.9705ZM50.298 26.067C50.553 25.824 50.829 25.6425 51.126 25.5225C51.426 25.4025 51.7545 25.3425 52.1115 25.3425C52.3725 25.3425 52.6035 25.386 52.8045 25.473C53.0055 25.557 53.175 25.6755 53.313 25.8285C53.451 25.9815 53.5545 26.1645 53.6235 26.3775C53.6955 26.5905 53.7315 26.826 53.7315 27.084V30H53.34C53.253 30 53.187 29.9865 53.142 29.9595C53.097 29.9295 53.061 29.8755 53.034 29.7975L52.9395 29.397C52.8225 29.505 52.707 29.601 52.593 29.685C52.479 29.766 52.359 29.8365 52.233 29.8965C52.11 29.9535 51.978 29.997 51.837 30.027C51.696 30.057 51.54 30.072 51.369 30.072C51.189 30.072 51.0195 30.048 50.8605 30C50.7045 29.949 50.568 29.8725 50.451 29.7705C50.334 29.6685 50.241 29.541 50.172 29.388C50.106 29.235 50.073 29.0565 50.073 28.8525C50.073 28.6725 50.121 28.5 50.217 28.335C50.316 28.167 50.475 28.017 50.694 27.885C50.916 27.753 51.204 27.645 51.558 27.561C51.915 27.477 52.353 27.429 52.872 27.417V27.084C52.872 26.739 52.7985 26.481 52.6515 26.31C52.5045 26.139 52.2885 26.0535 52.0035 26.0535C51.8115 26.0535 51.6495 26.0775 51.5175 26.1255C51.3885 26.1735 51.276 26.2275 51.18 26.2875C51.087 26.3445 51.0045 26.397 50.9325 26.445C50.8635 26.493 50.7915 26.517 50.7165 26.517C50.6565 26.517 50.604 26.5005 50.559 26.4675C50.517 26.4345 50.4825 26.3955 50.4555 26.3505L50.298 26.067ZM57.2017 26.2155C57.1777 26.2545 57.1522 26.283 57.1252 26.301C57.0982 26.316 57.0637 26.3235 57.0217 26.3235C56.9737 26.3235 56.9197 26.307 56.8597 26.274C56.8027 26.241 56.7322 26.205 56.6482 26.166C56.5672 26.127 56.4712 26.091 56.3602 26.058C56.2492 26.025 56.1172 26.0085 55.9642 26.0085C55.8382 26.0085 55.7227 26.025 55.6177 26.058C55.5157 26.088 55.4287 26.1315 55.3567 26.1885C55.2847 26.2425 55.2292 26.3085 55.1902 26.3865C55.1512 26.4615 55.1317 26.5425 55.1317 26.6295C55.1317 26.7435 55.1647 26.838 55.2307 26.913C55.2997 26.988 55.3882 27.0525 55.4962 27.1065C55.6072 27.1605 55.7317 27.21 55.8697 27.255C56.0107 27.297 56.1532 27.342 56.2972 27.39C56.4442 27.438 56.5867 27.4935 56.7247 27.5565C56.8657 27.6165 56.9902 27.693 57.0982 27.786C57.2092 27.876 57.2977 27.9855 57.3637 28.1145C57.4327 28.2435 57.4672 28.401 57.4672 28.587C57.4672 28.8 57.4282 28.998 57.3502 29.181C57.2752 29.361 57.1627 29.517 57.0127 29.649C56.8657 29.781 56.6827 29.8845 56.4637 29.9595C56.2447 30.0345 55.9942 30.072 55.7122 30.072C55.3972 30.072 55.1062 30.0195 54.8392 29.9145C54.5722 29.8095 54.3487 29.676 54.1687 29.514L54.3757 29.1765C54.3997 29.1345 54.4297 29.103 54.4657 29.082C54.5017 29.058 54.5497 29.046 54.6097 29.046C54.6667 29.046 54.7252 29.067 54.7852 29.109C54.8452 29.151 54.9172 29.1975 55.0012 29.2485C55.0852 29.2965 55.1872 29.3415 55.3072 29.3835C55.4272 29.4225 55.5772 29.442 55.7572 29.442C55.9072 29.442 56.0377 29.424 56.1487 29.388C56.2597 29.349 56.3512 29.298 56.4232 29.235C56.4982 29.169 56.5537 29.094 56.5897 29.01C56.6257 28.926 56.6437 28.8375 56.6437 28.7445C56.6437 28.6245 56.6092 28.5255 56.5402 28.4475C56.4742 28.3665 56.3857 28.2975 56.2747 28.2405C56.1667 28.1835 56.0422 28.134 55.9012 28.092C55.7602 28.05 55.6162 28.005 55.4692 27.957C55.3222 27.909 55.1782 27.8535 55.0372 27.7905C54.8962 27.7275 54.7702 27.648 54.6592 27.552C54.5512 27.456 54.4627 27.339 54.3937 27.201C54.3277 27.063 54.2947 26.895 54.2947 26.697C54.2947 26.52 54.3307 26.3505 54.4027 26.1885C54.4777 26.0265 54.5842 25.884 54.7222 25.761C54.8632 25.638 55.0357 25.5405 55.2397 25.4685C55.4467 25.3935 55.6822 25.356 55.9462 25.356C56.2492 25.356 56.5222 25.404 56.7652 25.5C57.0112 25.596 57.2212 25.728 57.3952 25.896L57.2017 26.2155Z" fill="#0B2031"/>
</g>
<defs>
<filter id="filter0_d" x="0" y="0" width="82" height="108" filterUnits="userSpaceOnUse" color-interpolation-filters="sRGB">
<feFlood flood-opacity="0" result="BackgroundImageFix"/>
<feColorMatrix in="SourceAlpha" type="matrix" values="0 0 0 0 0 0 0 0 0 0 0 0 0 0 0 0 0 0 127 0"/>
<feOffset dy="9"/>
<feGaussianBlur stdDeviation="7"/>
<feColorMatrix type="matrix" values="0 0 0 0 0 0 0 0 0 0 0 0 0 0 0 0 0 0 0.235139 0"/>
<feBlend mode="normal" in2="BackgroundImageFix" result="effect1_dropShadow"/>
<feBlend mode="normal" in="SourceGraphic" in2="effect1_dropShadow" result="shape"/>
</filter>
</defs>
</svg>
