<svg width="82" height="106" viewBox="0 0 82 106" fill="none" xmlns="http://www.w3.org/2000/svg">
<g filter="url(#filter0_d)">
<path d="M14 9.54369C14 7.03428 16.0343 5 18.5437 5H63.4563C65.9657 5 68 7.03428 68 9.54369V56C68 70.9117 55.9117 83 41 83C26.0883 83 14 70.9117 14 56V9.54369Z" fill="#FCFEF6"/>
<path d="M17 39.8174C17 37.1568 19.1568 35 21.8174 35H60.1826C62.8432 35 65 37.1568 65 39.8174V55C65 68.2548 54.2548 79 41 79C27.7452 79 17 68.2548 17 55V39.8174Z" fill="#188161"/>
<path d="M34.3078 15.8545V18.3745C33.9808 18.6085 33.6328 18.784 33.2638 18.901C32.8948 19.015 32.4928 19.072 32.0578 19.072C31.5358 19.072 31.0633 18.991 30.6403 18.829C30.2203 18.667 29.8618 18.4405 29.5648 18.1495C29.2678 17.8585 29.0383 17.5105 28.8763 17.1055C28.7173 16.7005 28.6378 16.255 28.6378 15.769C28.6378 15.28 28.7143 14.833 28.8673 14.428C29.0233 14.02 29.2453 13.672 29.5333 13.384C29.8213 13.093 30.1693 12.868 30.5773 12.709C30.9883 12.547 31.4488 12.466 31.9588 12.466C32.2168 12.466 32.4553 12.4855 32.6743 12.5245C32.8963 12.5635 33.1018 12.619 33.2908 12.691C33.4798 12.763 33.6538 12.85 33.8128 12.952C33.9748 13.051 34.1248 13.1635 34.2628 13.2895L33.9883 13.7215C33.9463 13.7905 33.8908 13.834 33.8218 13.852C33.7528 13.87 33.6778 13.8535 33.5968 13.8025C33.5188 13.7575 33.4318 13.705 33.3358 13.645C33.2428 13.585 33.1303 13.5295 32.9983 13.4785C32.8693 13.4275 32.7178 13.384 32.5438 13.348C32.3698 13.312 32.1643 13.294 31.9273 13.294C31.5733 13.294 31.2538 13.3525 30.9688 13.4695C30.6838 13.5835 30.4408 13.7485 30.2398 13.9645C30.0388 14.1805 29.8843 14.4415 29.7763 14.7475C29.6683 15.0505 29.6143 15.391 29.6143 15.769C29.6143 16.165 29.6713 16.5205 29.7853 16.8355C29.8993 17.1475 30.0598 17.413 30.2668 17.632C30.4768 17.848 30.7303 18.013 31.0273 18.127C31.3273 18.241 31.6618 18.298 32.0308 18.298C32.1748 18.298 32.3083 18.2905 32.4313 18.2755C32.5573 18.2575 32.6773 18.2335 32.7913 18.2035C32.9053 18.1735 33.0148 18.136 33.1198 18.091C33.2278 18.046 33.3343 17.9965 33.4393 17.9425V16.588H32.4853C32.4253 16.588 32.3758 16.57 32.3368 16.534C32.3008 16.498 32.2828 16.453 32.2828 16.399V15.8545H34.3078ZM35.7769 15.3055C35.9239 15.0055 36.1009 14.77 36.3079 14.599C36.5149 14.428 36.7639 14.3425 37.0549 14.3425C37.1539 14.3425 37.2469 14.3545 37.3339 14.3785C37.4239 14.3995 37.5019 14.4325 37.5679 14.4775L37.5094 15.139C37.4884 15.22 37.4389 15.2605 37.3609 15.2605C37.3189 15.2605 37.2559 15.253 37.1719 15.238C37.0879 15.22 36.9979 15.211 36.9019 15.211C36.7609 15.211 36.6364 15.232 36.5284 15.274C36.4204 15.313 36.3229 15.373 36.2359 15.454C36.1519 15.532 36.0769 15.6295 36.0109 15.7465C35.9449 15.8605 35.8834 15.991 35.8264 16.138V19H34.9489V14.428H35.4529C35.5489 14.428 35.6134 14.446 35.6464 14.482C35.6824 14.515 35.7079 14.575 35.7229 14.662L35.7769 15.3055ZM40.2315 16.9705C39.8745 16.9825 39.5715 17.011 39.3225 17.056C39.0735 17.098 38.871 17.155 38.715 17.227C38.559 17.299 38.4465 17.3845 38.3775 17.4835C38.3085 17.5795 38.274 17.6875 38.274 17.8075C38.274 17.9215 38.292 18.0205 38.328 18.1045C38.367 18.1855 38.418 18.253 38.481 18.307C38.547 18.358 38.6235 18.3955 38.7105 18.4195C38.7975 18.4435 38.892 18.4555 38.994 18.4555C39.129 18.4555 39.252 18.442 39.363 18.415C39.477 18.388 39.5835 18.3505 39.6825 18.3025C39.7815 18.2515 39.876 18.19 39.966 18.118C40.056 18.046 40.1445 17.9635 40.2315 17.8705V16.9705ZM37.6575 15.067C37.9125 14.824 38.1885 14.6425 38.4855 14.5225C38.7855 14.4025 39.114 14.3425 39.471 14.3425C39.732 14.3425 39.963 14.386 40.164 14.473C40.365 14.557 40.5345 14.6755 40.6725 14.8285C40.8105 14.9815 40.914 15.1645 40.983 15.3775C41.055 15.5905 41.091 15.826 41.091 16.084V19H40.6995C40.6125 19 40.5465 18.9865 40.5015 18.9595C40.4565 18.9295 40.4205 18.8755 40.3935 18.7975L40.299 18.397C40.182 18.505 40.0665 18.601 39.9525 18.685C39.8385 18.766 39.7185 18.8365 39.5925 18.8965C39.4695 18.9535 39.3375 18.997 39.1965 19.027C39.0555 19.057 38.8995 19.072 38.7285 19.072C38.5485 19.072 38.379 19.048 38.22 19C38.064 18.949 37.9275 18.8725 37.8105 18.7705C37.6935 18.6685 37.6005 18.541 37.5315 18.388C37.4655 18.235 37.4325 18.0565 37.4325 17.8525C37.4325 17.6725 37.4805 17.5 37.5765 17.335C37.6755 17.167 37.8345 17.017 38.0535 16.885C38.2755 16.753 38.5635 16.645 38.9175 16.561C39.2745 16.477 39.7125 16.429 40.2315 16.417V16.084C40.2315 15.739 40.158 15.481 40.011 15.31C39.864 15.139 39.648 15.0535 39.363 15.0535C39.171 15.0535 39.009 15.0775 38.877 15.1255C38.748 15.1735 38.6355 15.2275 38.5395 15.2875C38.4465 15.3445 38.364 15.397 38.292 15.445C38.223 15.493 38.151 15.517 38.076 15.517C38.016 15.517 37.9635 15.5005 37.9185 15.4675C37.8765 15.4345 37.842 15.3955 37.815 15.3505L37.6575 15.067ZM44.5612 15.2155C44.5372 15.2545 44.5117 15.283 44.4847 15.301C44.4577 15.316 44.4232 15.3235 44.3812 15.3235C44.3332 15.3235 44.2792 15.307 44.2192 15.274C44.1622 15.241 44.0917 15.205 44.0077 15.166C43.9267 15.127 43.8307 15.091 43.7197 15.058C43.6087 15.025 43.4767 15.0085 43.3237 15.0085C43.1977 15.0085 43.0822 15.025 42.9772 15.058C42.8752 15.088 42.7882 15.1315 42.7162 15.1885C42.6442 15.2425 42.5887 15.3085 42.5497 15.3865C42.5107 15.4615 42.4912 15.5425 42.4912 15.6295C42.4912 15.7435 42.5242 15.838 42.5902 15.913C42.6592 15.988 42.7477 16.0525 42.8557 16.1065C42.9667 16.1605 43.0912 16.21 43.2292 16.255C43.3702 16.297 43.5127 16.342 43.6567 16.39C43.8037 16.438 43.9462 16.4935 44.0842 16.5565C44.2252 16.6165 44.3497 16.693 44.4577 16.786C44.5687 16.876 44.6572 16.9855 44.7232 17.1145C44.7922 17.2435 44.8267 17.401 44.8267 17.587C44.8267 17.8 44.7877 17.998 44.7097 18.181C44.6347 18.361 44.5222 18.517 44.3722 18.649C44.2252 18.781 44.0422 18.8845 43.8232 18.9595C43.6042 19.0345 43.3537 19.072 43.0717 19.072C42.7567 19.072 42.4657 19.0195 42.1987 18.9145C41.9317 18.8095 41.7082 18.676 41.5282 18.514L41.7352 18.1765C41.7592 18.1345 41.7892 18.103 41.8252 18.082C41.8612 18.058 41.9092 18.046 41.9692 18.046C42.0262 18.046 42.0847 18.067 42.1447 18.109C42.2047 18.151 42.2767 18.1975 42.3607 18.2485C42.4447 18.2965 42.5467 18.3415 42.6667 18.3835C42.7867 18.4225 42.9367 18.442 43.1167 18.442C43.2667 18.442 43.3972 18.424 43.5082 18.388C43.6192 18.349 43.7107 18.298 43.7827 18.235C43.8577 18.169 43.9132 18.094 43.9492 18.01C43.9852 17.926 44.0032 17.8375 44.0032 17.7445C44.0032 17.6245 43.9687 17.5255 43.8997 17.4475C43.8337 17.3665 43.7452 17.2975 43.6342 17.2405C43.5262 17.1835 43.4017 17.134 43.2607 17.092C43.1197 17.05 42.9757 17.005 42.8287 16.957C42.6817 16.909 42.5377 16.8535 42.3967 16.7905C42.2557 16.7275 42.1297 16.648 42.0187 16.552C41.9107 16.456 41.8222 16.339 41.7532 16.201C41.6872 16.063 41.6542 15.895 41.6542 15.697C41.6542 15.52 41.6902 15.3505 41.7622 15.1885C41.8372 15.0265 41.9437 14.884 42.0817 14.761C42.2227 14.638 42.3952 14.5405 42.5992 14.4685C42.8062 14.3935 43.0417 14.356 43.3057 14.356C43.6087 14.356 43.8817 14.404 44.1247 14.5C44.3707 14.596 44.5807 14.728 44.7547 14.896L44.5612 15.2155ZM47.8339 16.9705C47.4769 16.9825 47.1739 17.011 46.9249 17.056C46.6759 17.098 46.4734 17.155 46.3174 17.227C46.1614 17.299 46.0489 17.3845 45.9799 17.4835C45.9109 17.5795 45.8764 17.6875 45.8764 17.8075C45.8764 17.9215 45.8944 18.0205 45.9304 18.1045C45.9694 18.1855 46.0204 18.253 46.0834 18.307C46.1494 18.358 46.2259 18.3955 46.3129 18.4195C46.3999 18.4435 46.4944 18.4555 46.5964 18.4555C46.7314 18.4555 46.8544 18.442 46.9654 18.415C47.0794 18.388 47.1859 18.3505 47.2849 18.3025C47.3839 18.2515 47.4784 18.19 47.5684 18.118C47.6584 18.046 47.7469 17.9635 47.8339 17.8705V16.9705ZM45.2599 15.067C45.5149 14.824 45.7909 14.6425 46.0879 14.5225C46.3879 14.4025 46.7164 14.3425 47.0734 14.3425C47.3344 14.3425 47.5654 14.386 47.7664 14.473C47.9674 14.557 48.1369 14.6755 48.2749 14.8285C48.4129 14.9815 48.5164 15.1645 48.5854 15.3775C48.6574 15.5905 48.6934 15.826 48.6934 16.084V19H48.3019C48.2149 19 48.1489 18.9865 48.1039 18.9595C48.0589 18.9295 48.0229 18.8755 47.9959 18.7975L47.9014 18.397C47.7844 18.505 47.6689 18.601 47.5549 18.685C47.4409 18.766 47.3209 18.8365 47.1949 18.8965C47.0719 18.9535 46.9399 18.997 46.7989 19.027C46.6579 19.057 46.5019 19.072 46.3309 19.072C46.1509 19.072 45.9814 19.048 45.8224 19C45.6664 18.949 45.5299 18.8725 45.4129 18.7705C45.2959 18.6685 45.2029 18.541 45.1339 18.388C45.0679 18.235 45.0349 18.0565 45.0349 17.8525C45.0349 17.6725 45.0829 17.5 45.1789 17.335C45.2779 17.167 45.4369 17.017 45.6559 16.885C45.8779 16.753 46.1659 16.645 46.5199 16.561C46.8769 16.477 47.3149 16.429 47.8339 16.417V16.084C47.8339 15.739 47.7604 15.481 47.6134 15.31C47.4664 15.139 47.2504 15.0535 46.9654 15.0535C46.7734 15.0535 46.6114 15.0775 46.4794 15.1255C46.3504 15.1735 46.2379 15.2275 46.1419 15.2875C46.0489 15.3445 45.9664 15.397 45.8944 15.445C45.8254 15.493 45.7534 15.517 45.6784 15.517C45.6184 15.517 45.5659 15.5005 45.5209 15.4675C45.4789 15.4345 45.4444 15.3955 45.4174 15.3505L45.2599 15.067ZM52.1636 15.2155C52.1396 15.2545 52.1141 15.283 52.0871 15.301C52.0601 15.316 52.0256 15.3235 51.9836 15.3235C51.9356 15.3235 51.8816 15.307 51.8216 15.274C51.7646 15.241 51.6941 15.205 51.6101 15.166C51.5291 15.127 51.4331 15.091 51.3221 15.058C51.2111 15.025 51.0791 15.0085 50.9261 15.0085C50.8001 15.0085 50.6846 15.025 50.5796 15.058C50.4776 15.088 50.3906 15.1315 50.3186 15.1885C50.2466 15.2425 50.1911 15.3085 50.1521 15.3865C50.1131 15.4615 50.0936 15.5425 50.0936 15.6295C50.0936 15.7435 50.1266 15.838 50.1926 15.913C50.2616 15.988 50.3501 16.0525 50.4581 16.1065C50.5691 16.1605 50.6936 16.21 50.8316 16.255C50.9726 16.297 51.1151 16.342 51.2591 16.39C51.4061 16.438 51.5486 16.4935 51.6866 16.5565C51.8276 16.6165 51.9521 16.693 52.0601 16.786C52.1711 16.876 52.2596 16.9855 52.3256 17.1145C52.3946 17.2435 52.4291 17.401 52.4291 17.587C52.4291 17.8 52.3901 17.998 52.3121 18.181C52.2371 18.361 52.1246 18.517 51.9746 18.649C51.8276 18.781 51.6446 18.8845 51.4256 18.9595C51.2066 19.0345 50.9561 19.072 50.6741 19.072C50.3591 19.072 50.0681 19.0195 49.8011 18.9145C49.5341 18.8095 49.3106 18.676 49.1306 18.514L49.3376 18.1765C49.3616 18.1345 49.3916 18.103 49.4276 18.082C49.4636 18.058 49.5116 18.046 49.5716 18.046C49.6286 18.046 49.6871 18.067 49.7471 18.109C49.8071 18.151 49.8791 18.1975 49.9631 18.2485C50.0471 18.2965 50.1491 18.3415 50.2691 18.3835C50.3891 18.4225 50.5391 18.442 50.7191 18.442C50.8691 18.442 50.9996 18.424 51.1106 18.388C51.2216 18.349 51.3131 18.298 51.3851 18.235C51.4601 18.169 51.5156 18.094 51.5516 18.01C51.5876 17.926 51.6056 17.8375 51.6056 17.7445C51.6056 17.6245 51.5711 17.5255 51.5021 17.4475C51.4361 17.3665 51.3476 17.2975 51.2366 17.2405C51.1286 17.1835 51.0041 17.134 50.8631 17.092C50.7221 17.05 50.5781 17.005 50.4311 16.957C50.2841 16.909 50.1401 16.8535 49.9991 16.7905C49.8581 16.7275 49.7321 16.648 49.6211 16.552C49.5131 16.456 49.4246 16.339 49.3556 16.201C49.2896 16.063 49.2566 15.895 49.2566 15.697C49.2566 15.52 49.2926 15.3505 49.3646 15.1885C49.4396 15.0265 49.5461 14.884 49.6841 14.761C49.8251 14.638 49.9976 14.5405 50.2016 14.4685C50.4086 14.3935 50.6441 14.356 50.9081 14.356C51.2111 14.356 51.4841 14.404 51.7271 14.5C51.9731 14.596 52.1831 14.728 52.3571 14.896L52.1636 15.2155Z" fill="#0B2031"/>
</g>
<defs>
<filter id="filter0_d" x="0" y="0" width="82" height="108" filterUnits="userSpaceOnUse" color-interpolation-filters="sRGB">
<feFlood flood-opacity="0" result="BackgroundImageFix"/>
<feColorMatrix in="SourceAlpha" type="matrix" values="0 0 0 0 0 0 0 0 0 0 0 0 0 0 0 0 0 0 127 0"/>
<feOffset dy="9"/>
<feGaussianBlur stdDeviation="7"/>
<feColorMatrix type="matrix" values="0 0 0 0 0 0 0 0 0 0 0 0 0 0 0 0 0 0 0.235139 0"/>
<feBlend mode="normal" in2="BackgroundImageFix" result="effect1_dropShadow"/>
<feBlend mode="normal" in="SourceGraphic" in2="effect1_dropShadow" result="shape"/>
</filter>
</defs>
</svg>
