<svg width="82" height="106" viewBox="0 0 82 106" fill="none" xmlns="http://www.w3.org/2000/svg">
<g filter="url(#filter0_d)">
<path d="M14 9.54369C14 7.03428 16.0343 5 18.5437 5H63.4563C65.9657 5 68 7.03428 68 9.54369V56C68 70.9117 55.9117 83 41 83C26.0883 83 14 70.9117 14 56V9.54369Z" fill="#FCFEF6"/>
<path d="M17 39.8174C17 37.1568 19.1568 35 21.8174 35H60.1826C62.8432 35 65 37.1568 65 39.8174V55C65 68.2548 54.2548 79 41 79C27.7452 79 17 68.2548 17 55V39.8174Z" fill="#188161"/>
<path d="M26.1472 17.614C26.2012 17.614 26.2477 17.635 26.2867 17.677L26.6647 18.091C26.4007 18.403 26.0782 18.6445 25.6972 18.8155C25.3192 18.9865 24.8632 19.072 24.3292 19.072C23.8612 19.072 23.4367 18.991 23.0557 18.829C22.6777 18.667 22.3537 18.4405 22.0837 18.1495C21.8167 17.8585 21.6097 17.5105 21.4627 17.1055C21.3157 16.7005 21.2422 16.255 21.2422 15.769C21.2422 15.283 21.3187 14.8375 21.4717 14.4325C21.6277 14.0275 21.8452 13.6795 22.1242 13.3885C22.4032 13.0975 22.7362 12.871 23.1232 12.709C23.5132 12.547 23.9437 12.466 24.4147 12.466C24.8737 12.466 25.2817 12.541 25.6387 12.691C25.9957 12.841 26.3062 13.0405 26.5702 13.2895L26.2552 13.735C26.2342 13.768 26.2072 13.795 26.1742 13.816C26.1442 13.837 26.1037 13.8475 26.0527 13.8475C25.9957 13.8475 25.9282 13.819 25.8502 13.762C25.7752 13.705 25.6747 13.642 25.5487 13.573C25.4257 13.501 25.2727 13.4365 25.0897 13.3795C24.9067 13.3225 24.6787 13.294 24.4057 13.294C24.0847 13.294 23.7907 13.351 23.5237 13.465C23.2567 13.576 23.0257 13.738 22.8307 13.951C22.6387 14.161 22.4887 14.4205 22.3807 14.7295C22.2757 15.0355 22.2232 15.382 22.2232 15.769C22.2232 16.162 22.2787 16.5115 22.3897 16.8175C22.5007 17.1235 22.6537 17.383 22.8487 17.596C23.0437 17.809 23.2732 17.971 23.5372 18.082C23.8012 18.193 24.0862 18.2485 24.3922 18.2485C24.5782 18.2485 24.7447 18.238 24.8917 18.217C25.0417 18.193 25.1782 18.1585 25.3012 18.1135C25.4272 18.0685 25.5457 18.0115 25.6567 17.9425C25.7677 17.8705 25.8772 17.785 25.9852 17.686C26.0092 17.665 26.0347 17.6485 26.0617 17.6365C26.0887 17.6215 26.1172 17.614 26.1472 17.614ZM29.5048 16.9705C29.1478 16.9825 28.8448 17.011 28.5958 17.056C28.3468 17.098 28.1443 17.155 27.9883 17.227C27.8323 17.299 27.7198 17.3845 27.6508 17.4835C27.5818 17.5795 27.5473 17.6875 27.5473 17.8075C27.5473 17.9215 27.5653 18.0205 27.6013 18.1045C27.6403 18.1855 27.6913 18.253 27.7543 18.307C27.8203 18.358 27.8968 18.3955 27.9838 18.4195C28.0708 18.4435 28.1653 18.4555 28.2673 18.4555C28.4023 18.4555 28.5253 18.442 28.6363 18.415C28.7503 18.388 28.8568 18.3505 28.9558 18.3025C29.0548 18.2515 29.1493 18.19 29.2393 18.118C29.3293 18.046 29.4178 17.9635 29.5048 17.8705V16.9705ZM26.9308 15.067C27.1858 14.824 27.4618 14.6425 27.7588 14.5225C28.0588 14.4025 28.3873 14.3425 28.7443 14.3425C29.0053 14.3425 29.2363 14.386 29.4373 14.473C29.6383 14.557 29.8078 14.6755 29.9458 14.8285C30.0838 14.9815 30.1873 15.1645 30.2563 15.3775C30.3283 15.5905 30.3643 15.826 30.3643 16.084V19H29.9728C29.8858 19 29.8198 18.9865 29.7748 18.9595C29.7298 18.9295 29.6938 18.8755 29.6668 18.7975L29.5723 18.397C29.4553 18.505 29.3398 18.601 29.2258 18.685C29.1118 18.766 28.9918 18.8365 28.8658 18.8965C28.7428 18.9535 28.6108 18.997 28.4698 19.027C28.3288 19.057 28.1728 19.072 28.0018 19.072C27.8218 19.072 27.6523 19.048 27.4933 19C27.3373 18.949 27.2008 18.8725 27.0838 18.7705C26.9668 18.6685 26.8738 18.541 26.8048 18.388C26.7388 18.235 26.7058 18.0565 26.7058 17.8525C26.7058 17.6725 26.7538 17.5 26.8498 17.335C26.9488 17.167 27.1078 17.017 27.3268 16.885C27.5488 16.753 27.8368 16.645 28.1908 16.561C28.5478 16.477 28.9858 16.429 29.5048 16.417V16.084C29.5048 15.739 29.4313 15.481 29.2843 15.31C29.1373 15.139 28.9213 15.0535 28.6363 15.0535C28.4443 15.0535 28.2823 15.0775 28.1503 15.1255C28.0213 15.1735 27.9088 15.2275 27.8128 15.2875C27.7198 15.3445 27.6373 15.397 27.5653 15.445C27.4963 15.493 27.4243 15.517 27.3493 15.517C27.2893 15.517 27.2368 15.5005 27.1918 15.4675C27.1498 15.4345 27.1153 15.3955 27.0883 15.3505L26.9308 15.067ZM32.0391 12.358V19H31.1571V12.358H32.0391ZM34.8409 14.356C35.1769 14.356 35.4799 14.4115 35.7499 14.5225C36.0229 14.6305 36.2539 14.788 36.4429 14.995C36.6349 15.199 36.7819 15.4465 36.8839 15.7375C36.9859 16.0255 37.0369 16.3495 37.0369 16.7095C37.0369 17.0695 36.9859 17.395 36.8839 17.686C36.7819 17.977 36.6349 18.2245 36.4429 18.4285C36.2539 18.6325 36.0229 18.79 35.7499 18.901C35.4799 19.009 35.1769 19.063 34.8409 19.063C34.5019 19.063 34.1959 19.009 33.9229 18.901C33.6529 18.79 33.4219 18.6325 33.2299 18.4285C33.0379 18.2245 32.8894 17.977 32.7844 17.686C32.6824 17.395 32.6314 17.0695 32.6314 16.7095C32.6314 16.3495 32.6824 16.0255 32.7844 15.7375C32.8894 15.4465 33.0379 15.199 33.2299 14.995C33.4219 14.788 33.6529 14.6305 33.9229 14.5225C34.1959 14.4115 34.5019 14.356 34.8409 14.356ZM34.8409 18.379C35.2729 18.379 35.5954 18.2335 35.8084 17.9425C36.0214 17.6515 36.1279 17.242 36.1279 16.714C36.1279 16.186 36.0214 15.7765 35.8084 15.4855C35.5954 15.1915 35.2729 15.0445 34.8409 15.0445C34.4029 15.0445 34.0759 15.1915 33.8599 15.4855C33.6469 15.7765 33.5404 16.186 33.5404 16.714C33.5404 17.242 33.6469 17.6515 33.8599 17.9425C34.0759 18.2335 34.4029 18.379 34.8409 18.379ZM38.4444 15.3055C38.5914 15.0055 38.7684 14.77 38.9754 14.599C39.1824 14.428 39.4314 14.3425 39.7224 14.3425C39.8214 14.3425 39.9144 14.3545 40.0014 14.3785C40.0914 14.3995 40.1694 14.4325 40.2354 14.4775L40.1769 15.139C40.1559 15.22 40.1064 15.2605 40.0284 15.2605C39.9864 15.2605 39.9234 15.253 39.8394 15.238C39.7554 15.22 39.6654 15.211 39.5694 15.211C39.4284 15.211 39.3039 15.232 39.1959 15.274C39.0879 15.313 38.9904 15.373 38.9034 15.454C38.8194 15.532 38.7444 15.6295 38.6784 15.7465C38.6124 15.8605 38.5509 15.991 38.4939 16.138V19H37.6164V14.428H38.1204C38.2164 14.428 38.2809 14.446 38.3139 14.482C38.3499 14.515 38.3754 14.575 38.3904 14.662L38.4444 15.3055ZM41.4348 14.428V19H40.5528V14.428H41.4348ZM42.3888 12.466L41.3223 13.627C41.2773 13.678 41.2338 13.714 41.1918 13.735C41.1498 13.753 41.0943 13.762 41.0253 13.762H40.4943L41.1603 12.673C41.2023 12.604 41.2473 12.553 41.2953 12.52C41.3463 12.484 41.4243 12.466 41.5293 12.466H42.3888ZM44.7578 16.9705C44.4008 16.9825 44.0978 17.011 43.8488 17.056C43.5998 17.098 43.3973 17.155 43.2413 17.227C43.0853 17.299 42.9728 17.3845 42.9038 17.4835C42.8348 17.5795 42.8003 17.6875 42.8003 17.8075C42.8003 17.9215 42.8183 18.0205 42.8543 18.1045C42.8933 18.1855 42.9443 18.253 43.0073 18.307C43.0733 18.358 43.1498 18.3955 43.2368 18.4195C43.3238 18.4435 43.4183 18.4555 43.5203 18.4555C43.6553 18.4555 43.7783 18.442 43.8893 18.415C44.0033 18.388 44.1098 18.3505 44.2088 18.3025C44.3078 18.2515 44.4023 18.19 44.4923 18.118C44.5823 18.046 44.6708 17.9635 44.7578 17.8705V16.9705ZM42.1838 15.067C42.4388 14.824 42.7148 14.6425 43.0118 14.5225C43.3118 14.4025 43.6403 14.3425 43.9973 14.3425C44.2583 14.3425 44.4893 14.386 44.6903 14.473C44.8913 14.557 45.0608 14.6755 45.1988 14.8285C45.3368 14.9815 45.4403 15.1645 45.5093 15.3775C45.5813 15.5905 45.6173 15.826 45.6173 16.084V19H45.2258C45.1388 19 45.0728 18.9865 45.0278 18.9595C44.9828 18.9295 44.9468 18.8755 44.9198 18.7975L44.8253 18.397C44.7083 18.505 44.5928 18.601 44.4788 18.685C44.3648 18.766 44.2448 18.8365 44.1188 18.8965C43.9958 18.9535 43.8638 18.997 43.7228 19.027C43.5818 19.057 43.4258 19.072 43.2548 19.072C43.0748 19.072 42.9053 19.048 42.7463 19C42.5903 18.949 42.4538 18.8725 42.3368 18.7705C42.2198 18.6685 42.1268 18.541 42.0578 18.388C41.9918 18.235 41.9588 18.0565 41.9588 17.8525C41.9588 17.6725 42.0068 17.5 42.1028 17.335C42.2018 17.167 42.3608 17.017 42.5798 16.885C42.8018 16.753 43.0898 16.645 43.4438 16.561C43.8008 16.477 44.2388 16.429 44.7578 16.417V16.084C44.7578 15.739 44.6843 15.481 44.5373 15.31C44.3903 15.139 44.1743 15.0535 43.8893 15.0535C43.6973 15.0535 43.5353 15.0775 43.4033 15.1255C43.2743 15.1735 43.1618 15.2275 43.0658 15.2875C42.9728 15.3445 42.8903 15.397 42.8183 15.445C42.7493 15.493 42.6773 15.517 42.6023 15.517C42.5423 15.517 42.4898 15.5005 42.4448 15.4675C42.4028 15.4345 42.3683 15.3955 42.3413 15.3505L42.1838 15.067ZM49.0875 15.2155C49.0635 15.2545 49.038 15.283 49.011 15.301C48.984 15.316 48.9495 15.3235 48.9075 15.3235C48.8595 15.3235 48.8055 15.307 48.7455 15.274C48.6885 15.241 48.618 15.205 48.534 15.166C48.453 15.127 48.357 15.091 48.246 15.058C48.135 15.025 48.003 15.0085 47.85 15.0085C47.724 15.0085 47.6085 15.025 47.5035 15.058C47.4015 15.088 47.3145 15.1315 47.2425 15.1885C47.1705 15.2425 47.115 15.3085 47.076 15.3865C47.037 15.4615 47.0175 15.5425 47.0175 15.6295C47.0175 15.7435 47.0505 15.838 47.1165 15.913C47.1855 15.988 47.274 16.0525 47.382 16.1065C47.493 16.1605 47.6175 16.21 47.7555 16.255C47.8965 16.297 48.039 16.342 48.183 16.39C48.33 16.438 48.4725 16.4935 48.6105 16.5565C48.7515 16.6165 48.876 16.693 48.984 16.786C49.095 16.876 49.1835 16.9855 49.2495 17.1145C49.3185 17.2435 49.353 17.401 49.353 17.587C49.353 17.8 49.314 17.998 49.236 18.181C49.161 18.361 49.0485 18.517 48.8985 18.649C48.7515 18.781 48.5685 18.8845 48.3495 18.9595C48.1305 19.0345 47.88 19.072 47.598 19.072C47.283 19.072 46.992 19.0195 46.725 18.9145C46.458 18.8095 46.2345 18.676 46.0545 18.514L46.2615 18.1765C46.2855 18.1345 46.3155 18.103 46.3515 18.082C46.3875 18.058 46.4355 18.046 46.4955 18.046C46.5525 18.046 46.611 18.067 46.671 18.109C46.731 18.151 46.803 18.1975 46.887 18.2485C46.971 18.2965 47.073 18.3415 47.193 18.3835C47.313 18.4225 47.463 18.442 47.643 18.442C47.793 18.442 47.9235 18.424 48.0345 18.388C48.1455 18.349 48.237 18.298 48.309 18.235C48.384 18.169 48.4395 18.094 48.4755 18.01C48.5115 17.926 48.5295 17.8375 48.5295 17.7445C48.5295 17.6245 48.495 17.5255 48.426 17.4475C48.36 17.3665 48.2715 17.2975 48.1605 17.2405C48.0525 17.1835 47.928 17.134 47.787 17.092C47.646 17.05 47.502 17.005 47.355 16.957C47.208 16.909 47.064 16.8535 46.923 16.7905C46.782 16.7275 46.656 16.648 46.545 16.552C46.437 16.456 46.3485 16.339 46.2795 16.201C46.2135 16.063 46.1805 15.895 46.1805 15.697C46.1805 15.52 46.2165 15.3505 46.2885 15.1885C46.3635 15.0265 46.47 14.884 46.608 14.761C46.749 14.638 46.9215 14.5405 47.1255 14.4685C47.3325 14.3935 47.568 14.356 47.832 14.356C48.135 14.356 48.408 14.404 48.651 14.5C48.897 14.596 49.107 14.728 49.281 14.896L49.0875 15.2155ZM54.808 16.2055C54.808 16.0315 54.7825 15.871 54.7315 15.724C54.6835 15.577 54.6115 15.4495 54.5155 15.3415C54.4195 15.2335 54.3025 15.1495 54.1645 15.0895C54.0265 15.0295 53.8675 14.9995 53.6875 14.9995C53.3185 14.9995 53.0275 15.106 52.8145 15.319C52.6045 15.532 52.471 15.8275 52.414 16.2055H54.808ZM55.5325 18.3475C55.4245 18.4735 55.3 18.583 55.159 18.676C55.018 18.766 54.868 18.8395 54.709 18.8965C54.55 18.9535 54.385 18.9955 54.214 19.0225C54.046 19.0495 53.8795 19.063 53.7145 19.063C53.3995 19.063 53.107 19.0105 52.837 18.9055C52.57 18.7975 52.3375 18.6415 52.1395 18.4375C51.9445 18.2305 51.7915 17.9755 51.6805 17.6725C51.5725 17.3665 51.5185 17.0155 51.5185 16.6195C51.5185 16.3015 51.568 16.006 51.667 15.733C51.766 15.457 51.907 15.217 52.09 15.013C52.276 14.809 52.5025 14.6485 52.7695 14.5315C53.0365 14.4145 53.3365 14.356 53.6695 14.356C53.9485 14.356 54.205 14.4025 54.439 14.4955C54.676 14.5855 54.88 14.7175 55.051 14.8915C55.222 15.0655 55.3555 15.28 55.4515 15.535C55.5505 15.79 55.6 16.081 55.6 16.408C55.6 16.543 55.585 16.6345 55.555 16.6825C55.525 16.7275 55.4695 16.75 55.3885 16.75H52.3915C52.4005 17.023 52.4395 17.2615 52.5085 17.4655C52.5775 17.6665 52.672 17.8345 52.792 17.9695C52.915 18.1045 53.0605 18.205 53.2285 18.271C53.3965 18.337 53.584 18.37 53.791 18.37C53.986 18.37 54.154 18.3475 54.295 18.3025C54.439 18.2575 54.562 18.2095 54.664 18.1585C54.769 18.1045 54.856 18.055 54.925 18.01C54.997 17.965 55.06 17.9425 55.114 17.9425C55.186 17.9425 55.2415 17.9695 55.2805 18.0235L55.5325 18.3475ZM56.9667 15.0625C57.0657 14.9575 57.1692 14.8615 57.2772 14.7745C57.3852 14.6875 57.4992 14.614 57.6192 14.554C57.7422 14.491 57.8727 14.443 58.0107 14.41C58.1517 14.374 58.3017 14.356 58.4607 14.356C58.7127 14.356 58.9332 14.398 59.1222 14.482C59.3142 14.566 59.4747 14.6845 59.6037 14.8375C59.7327 14.9875 59.8302 15.169 59.8962 15.382C59.9622 15.595 59.9952 15.8305 59.9952 16.0885V19H59.1132V16.0885C59.1132 15.7615 59.0382 15.508 58.8882 15.328C58.7382 15.145 58.5087 15.0535 58.1997 15.0535C57.9747 15.0535 57.7632 15.1075 57.5652 15.2155C57.3702 15.3205 57.1887 15.4645 57.0207 15.6475V19H56.1432V14.428H56.6697C56.7927 14.428 56.8692 14.4865 56.8992 14.6035L56.9667 15.0625ZM31.6313 26.54H32.0408C32.2055 26.54 32.342 26.5183 32.4503 26.475C32.5587 26.4273 32.6518 26.3537 32.7298 26.254L35.3233 22.9715C35.4317 22.8328 35.5443 22.7375 35.6613 22.6855C35.7827 22.6292 35.9343 22.601 36.1163 22.601H37.6243L34.4588 26.5075C34.2725 26.7458 34.0797 26.9148 33.8803 27.0145C34.0233 27.0665 34.1512 27.1402 34.2638 27.2355C34.3808 27.3265 34.4913 27.4478 34.5953 27.5995L37.8583 32H36.3178C36.1098 32 35.9538 31.9718 35.8498 31.9155C35.7502 31.8548 35.6657 31.7682 35.5963 31.6555L32.9378 28.1845C32.8555 28.0675 32.7602 27.9852 32.6518 27.9375C32.5435 27.8898 32.3875 27.866 32.1838 27.866H31.6313V32H29.8828V22.601H31.6313V26.54ZM42.4365 26.7415C42.3888 26.8022 42.3412 26.8498 42.2935 26.8845C42.2502 26.9192 42.1852 26.9365 42.0985 26.9365C42.0162 26.9365 41.936 26.9127 41.858 26.865C41.78 26.813 41.6869 26.7567 41.5785 26.696C41.4702 26.631 41.3402 26.5747 41.1885 26.527C41.0412 26.475 40.857 26.449 40.636 26.449C40.3544 26.449 40.1073 26.501 39.895 26.605C39.6827 26.7047 39.505 26.8498 39.362 27.0405C39.2233 27.2312 39.1193 27.463 39.05 27.736C38.9807 28.0047 38.946 28.3102 38.946 28.6525C38.946 29.0078 38.9828 29.3242 39.0565 29.6015C39.1345 29.8788 39.245 30.1128 39.388 30.3035C39.531 30.4898 39.7043 30.6328 39.908 30.7325C40.1117 30.8278 40.3413 30.8755 40.597 30.8755C40.8527 30.8755 41.0585 30.8452 41.2145 30.7845C41.3748 30.7195 41.5092 30.6502 41.6175 30.5765C41.7258 30.4985 41.819 30.4292 41.897 30.3685C41.9794 30.3035 42.0704 30.271 42.17 30.271C42.3 30.271 42.3975 30.3208 42.4625 30.4205L42.924 31.0055C42.7463 31.2135 42.5535 31.389 42.3455 31.532C42.1375 31.6707 41.9208 31.7833 41.6955 31.87C41.4745 31.9523 41.2448 32.0108 41.0065 32.0455C40.7725 32.0802 40.5385 32.0975 40.3045 32.0975C39.8928 32.0975 39.505 32.0217 39.141 31.87C38.777 31.714 38.4585 31.4887 38.1855 31.194C37.9125 30.8993 37.6958 30.5397 37.5355 30.115C37.3795 29.686 37.3015 29.1985 37.3015 28.6525C37.3015 28.1628 37.3708 27.71 37.5095 27.294C37.6525 26.8737 37.8605 26.5118 38.1335 26.2085C38.4065 25.9008 38.7445 25.6603 39.1475 25.487C39.5505 25.3137 40.0142 25.227 40.5385 25.227C41.0368 25.227 41.4723 25.3072 41.845 25.4675C42.222 25.6278 42.56 25.8575 42.859 26.1565L42.4365 26.7415ZM47.0535 29.153C46.5898 29.1747 46.1998 29.2158 45.8835 29.2765C45.5672 29.3328 45.3137 29.4065 45.123 29.4975C44.9323 29.5885 44.7958 29.6947 44.7135 29.816C44.6312 29.9373 44.59 30.0695 44.59 30.2125C44.59 30.4942 44.6723 30.6957 44.837 30.817C45.006 30.9383 45.2248 30.999 45.4935 30.999C45.8228 30.999 46.1067 30.9405 46.345 30.8235C46.5877 30.7022 46.8238 30.5202 47.0535 30.2775V29.153ZM43.3745 26.2605C44.1415 25.5585 45.0645 25.2075 46.1435 25.2075C46.5335 25.2075 46.8823 25.2725 47.19 25.4025C47.4977 25.5282 47.7577 25.7058 47.97 25.9355C48.1823 26.1608 48.3427 26.4317 48.451 26.748C48.5637 27.0643 48.62 27.411 48.62 27.788V32H47.892C47.7403 32 47.6233 31.9783 47.541 31.935C47.4587 31.8873 47.3937 31.7942 47.346 31.6555L47.203 31.1745C47.034 31.3262 46.8693 31.4605 46.709 31.5775C46.5487 31.6902 46.3818 31.7855 46.2085 31.8635C46.0352 31.9415 45.8488 32 45.6495 32.039C45.4545 32.0823 45.2378 32.104 44.9995 32.104C44.7178 32.104 44.4578 32.0672 44.2195 31.9935C43.9812 31.9155 43.7753 31.8007 43.602 31.649C43.4287 31.4973 43.2943 31.3088 43.199 31.0835C43.1037 30.8582 43.056 30.596 43.056 30.297C43.056 30.128 43.0842 29.9612 43.1405 29.7965C43.1968 29.6275 43.2878 29.4672 43.4135 29.3155C43.5435 29.1638 43.7103 29.0208 43.914 28.8865C44.1177 28.7522 44.3668 28.6352 44.6615 28.5355C44.9605 28.4358 45.3072 28.3557 45.7015 28.295C46.0958 28.23 46.5465 28.191 47.0535 28.178V27.788C47.0535 27.3417 46.9582 27.0123 46.7675 26.8C46.5768 26.5833 46.3017 26.475 45.942 26.475C45.682 26.475 45.4653 26.5053 45.292 26.566C45.123 26.6267 44.9735 26.696 44.8435 26.774C44.7135 26.8477 44.5943 26.9148 44.486 26.9755C44.382 27.0362 44.265 27.0665 44.135 27.0665C44.0223 27.0665 43.927 27.0383 43.849 26.982C43.771 26.9213 43.7082 26.852 43.6605 26.774L43.3745 26.2605ZM51.3571 22.341V32H49.7516V22.341H51.3571Z" fill="#0B2031"/>
</g>
<defs>
<filter id="filter0_d" x="0" y="0" width="82" height="108" filterUnits="userSpaceOnUse" color-interpolation-filters="sRGB">
<feFlood flood-opacity="0" result="BackgroundImageFix"/>
<feColorMatrix in="SourceAlpha" type="matrix" values="0 0 0 0 0 0 0 0 0 0 0 0 0 0 0 0 0 0 127 0"/>
<feOffset dy="9"/>
<feGaussianBlur stdDeviation="7"/>
<feColorMatrix type="matrix" values="0 0 0 0 0 0 0 0 0 0 0 0 0 0 0 0 0 0 0.235139 0"/>
<feBlend mode="normal" in2="BackgroundImageFix" result="effect1_dropShadow"/>
<feBlend mode="normal" in="SourceGraphic" in2="effect1_dropShadow" result="shape"/>
</filter>
</defs>
</svg>
