<svg width="82" height="106" viewBox="0 0 82 106" fill="none" xmlns="http://www.w3.org/2000/svg">
<g filter="url(#filter0_d)">
<path d="M14 9.54369C14 7.03428 16.0343 5 18.5437 5H63.4563C65.9657 5 68 7.03428 68 9.54369V56C68 70.9117 55.9117 83 41 83C26.0883 83 14 70.9117 14 56V9.54369Z" fill="#FCFEF6"/>
<path d="M17 39.8174C17 37.1568 19.1568 35 21.8174 35H60.1826C62.8432 35 65 37.1568 65 39.8174V55C65 68.2548 54.2548 79 41 79C27.7452 79 17 68.2548 17 55V39.8174Z" fill="#188161"/>
<path d="M39.3007 13.591C39.2707 13.642 39.2392 13.6795 39.2062 13.7035C39.1732 13.7275 39.1312 13.7395 39.0802 13.7395C39.0262 13.7395 38.9647 13.7155 38.8957 13.6675C38.8267 13.6165 38.7397 13.561 38.6347 13.501C38.5327 13.438 38.4097 13.3825 38.2657 13.3345C38.1217 13.2835 37.9492 13.258 37.7482 13.258C37.5592 13.258 37.3927 13.2835 37.2487 13.3345C37.1077 13.3825 36.9892 13.45 36.8932 13.537C36.7972 13.621 36.7237 13.7215 36.6727 13.8385C36.6247 13.9525 36.6007 14.077 36.6007 14.212C36.6007 14.386 36.6442 14.53 36.7312 14.644C36.8212 14.758 36.9382 14.8555 37.0822 14.9365C37.2262 15.0175 37.3897 15.088 37.5727 15.148C37.7557 15.208 37.9432 15.271 38.1352 15.337C38.3272 15.4 38.5147 15.4735 38.6977 15.5575C38.8807 15.6415 39.0442 15.748 39.1882 15.877C39.3322 16.003 39.4477 16.159 39.5347 16.345C39.6247 16.528 39.6697 16.753 39.6697 17.02C39.6697 17.305 39.6202 17.572 39.5212 17.821C39.4252 18.07 39.2842 18.2875 39.0982 18.4735C38.9122 18.6595 38.6827 18.8065 38.4097 18.9145C38.1397 19.0195 37.8322 19.072 37.4872 19.072C37.2802 19.072 37.0792 19.051 36.8842 19.009C36.6892 18.97 36.5047 18.9145 36.3307 18.8425C36.1567 18.7675 35.9932 18.679 35.8402 18.577C35.6902 18.472 35.5552 18.355 35.4352 18.226L35.7097 17.767C35.7367 17.731 35.7682 17.701 35.8042 17.677C35.8432 17.653 35.8867 17.641 35.9347 17.641C35.9977 17.641 36.0697 17.674 36.1507 17.74C36.2347 17.806 36.3367 17.8795 36.4567 17.9605C36.5797 18.0385 36.7252 18.1105 36.8932 18.1765C37.0642 18.2425 37.2712 18.2755 37.5142 18.2755C37.7122 18.2755 37.8892 18.25 38.0452 18.199C38.2012 18.145 38.3317 18.07 38.4367 17.974C38.5447 17.875 38.6272 17.7565 38.6842 17.6185C38.7412 17.4805 38.7697 17.3275 38.7697 17.1595C38.7697 16.9705 38.7262 16.816 38.6392 16.696C38.5522 16.576 38.4367 16.4755 38.2927 16.3945C38.1487 16.3135 37.9852 16.2445 37.8022 16.1875C37.6192 16.1305 37.4317 16.072 37.2397 16.012C37.0477 15.949 36.8602 15.877 36.6772 15.796C36.4942 15.715 36.3307 15.61 36.1867 15.481C36.0427 15.349 35.9272 15.1855 35.8402 14.9905C35.7532 14.7925 35.7097 14.5495 35.7097 14.2615C35.7097 14.0305 35.7547 13.807 35.8447 13.591C35.9347 13.375 36.0652 13.1845 36.2362 13.0195C36.4102 12.8515 36.6232 12.718 36.8752 12.619C37.1272 12.517 37.4152 12.466 37.7392 12.466C38.1022 12.466 38.4352 12.5245 38.7382 12.6415C39.0442 12.7555 39.3097 12.9205 39.5347 13.1365L39.3007 13.591ZM42.6682 16.9705C42.3112 16.9825 42.0082 17.011 41.7592 17.056C41.5102 17.098 41.3077 17.155 41.1517 17.227C40.9957 17.299 40.8832 17.3845 40.8142 17.4835C40.7452 17.5795 40.7107 17.6875 40.7107 17.8075C40.7107 17.9215 40.7287 18.0205 40.7647 18.1045C40.8037 18.1855 40.8547 18.253 40.9177 18.307C40.9837 18.358 41.0602 18.3955 41.1472 18.4195C41.2342 18.4435 41.3287 18.4555 41.4307 18.4555C41.5657 18.4555 41.6887 18.442 41.7997 18.415C41.9137 18.388 42.0202 18.3505 42.1192 18.3025C42.2182 18.2515 42.3127 18.19 42.4027 18.118C42.4927 18.046 42.5812 17.9635 42.6682 17.8705V16.9705ZM40.0942 15.067C40.3492 14.824 40.6252 14.6425 40.9222 14.5225C41.2222 14.4025 41.5507 14.3425 41.9077 14.3425C42.1687 14.3425 42.3997 14.386 42.6007 14.473C42.8017 14.557 42.9712 14.6755 43.1092 14.8285C43.2472 14.9815 43.3507 15.1645 43.4197 15.3775C43.4917 15.5905 43.5277 15.826 43.5277 16.084V19H43.1362C43.0492 19 42.9832 18.9865 42.9382 18.9595C42.8932 18.9295 42.8572 18.8755 42.8302 18.7975L42.7357 18.397C42.6187 18.505 42.5032 18.601 42.3892 18.685C42.2752 18.766 42.1552 18.8365 42.0292 18.8965C41.9062 18.9535 41.7742 18.997 41.6332 19.027C41.4922 19.057 41.3362 19.072 41.1652 19.072C40.9852 19.072 40.8157 19.048 40.6567 19C40.5007 18.949 40.3642 18.8725 40.2472 18.7705C40.1302 18.6685 40.0372 18.541 39.9682 18.388C39.9022 18.235 39.8692 18.0565 39.8692 17.8525C39.8692 17.6725 39.9172 17.5 40.0132 17.335C40.1122 17.167 40.2712 17.017 40.4902 16.885C40.7122 16.753 41.0002 16.645 41.3542 16.561C41.7112 16.477 42.1492 16.429 42.6682 16.417V16.084C42.6682 15.739 42.5947 15.481 42.4477 15.31C42.3007 15.139 42.0847 15.0535 41.7997 15.0535C41.6077 15.0535 41.4457 15.0775 41.3137 15.1255C41.1847 15.1735 41.0722 15.2275 40.9762 15.2875C40.8832 15.3445 40.8007 15.397 40.7287 15.445C40.6597 15.493 40.5877 15.517 40.5127 15.517C40.4527 15.517 40.4002 15.5005 40.3552 15.4675C40.3132 15.4345 40.2787 15.3955 40.2517 15.3505L40.0942 15.067ZM45.2024 12.358V19H44.3204V12.358H45.2024Z" fill="#0B2031"/>
</g>
<defs>
<filter id="filter0_d" x="0" y="0" width="82" height="108" filterUnits="userSpaceOnUse" color-interpolation-filters="sRGB">
<feFlood flood-opacity="0" result="BackgroundImageFix"/>
<feColorMatrix in="SourceAlpha" type="matrix" values="0 0 0 0 0 0 0 0 0 0 0 0 0 0 0 0 0 0 127 0"/>
<feOffset dy="9"/>
<feGaussianBlur stdDeviation="7"/>
<feColorMatrix type="matrix" values="0 0 0 0 0 0 0 0 0 0 0 0 0 0 0 0 0 0 0.235139 0"/>
<feBlend mode="normal" in2="BackgroundImageFix" result="effect1_dropShadow"/>
<feBlend mode="normal" in="SourceGraphic" in2="effect1_dropShadow" result="shape"/>
</filter>
</defs>
</svg>
