<svg width="82" height="106" viewBox="0 0 82 106" fill="none" xmlns="http://www.w3.org/2000/svg">
<g filter="url(#filter0_d)">
<path d="M14 9.54369C14 7.03428 16.0343 5 18.5437 5H63.4563C65.9657 5 68 7.03428 68 9.54369V56C68 70.9117 55.9117 83 41 83C26.0883 83 14 70.9117 14 56V9.54369Z" fill="#FCFEF6"/>
<path d="M17 39.8174C17 37.1568 19.1568 35 21.8174 35H60.1826C62.8432 35 65 37.1568 65 39.8174V55C65 68.2548 54.2548 79 41 79C27.7452 79 17 68.2548 17 55V39.8174Z" fill="#188161"/>
<path d="M28.2047 16.5925L27.2462 14.086C27.1772 13.915 27.1082 13.699 27.0392 13.438C27.0062 13.567 26.9717 13.687 26.9357 13.798C26.9027 13.909 26.8697 14.008 26.8367 14.095L25.8827 16.5925H28.2047ZM30.0992 19H29.3612C29.2772 19 29.2082 18.979 29.1542 18.937C29.1002 18.895 29.0612 18.841 29.0372 18.775L28.4657 17.2765H25.6172L25.0457 18.775C25.0247 18.832 24.9857 18.8845 24.9287 18.9325C24.8717 18.9775 24.8027 19 24.7217 19H23.9837L26.5577 12.538H27.5252L30.0992 19ZM33.512 14.797C33.512 14.86 33.5 14.9215 33.476 14.9815C33.455 15.0415 33.4265 15.0925 33.3905 15.1345L30.992 18.3115H33.431V19H29.9615V18.631C29.9615 18.589 29.972 18.5395 29.993 18.4825C30.014 18.4225 30.044 18.367 30.083 18.316L32.495 15.1165H30.101V14.428H33.512V14.797ZM37.8154 14.428V19H37.2889C37.1689 19 37.0909 18.9415 37.0549 18.8245L36.9919 18.3655C36.8929 18.4705 36.7894 18.5665 36.6814 18.6535C36.5734 18.7405 36.4579 18.8155 36.3349 18.8785C36.2119 18.9385 36.0814 18.985 35.9434 19.018C35.8054 19.054 35.6569 19.072 35.4979 19.072C35.2459 19.072 35.0239 19.03 34.8319 18.946C34.6429 18.862 34.4839 18.745 34.3549 18.595C34.2259 18.442 34.1284 18.259 34.0624 18.046C33.9964 17.833 33.9634 17.5975 33.9634 17.3395V14.428H34.8454V17.3395C34.8454 17.6665 34.9204 17.9215 35.0704 18.1045C35.2204 18.2845 35.4499 18.3745 35.7589 18.3745C35.9839 18.3745 36.1939 18.322 36.3889 18.217C36.5839 18.109 36.7669 17.962 36.9379 17.776V14.428H37.8154ZM37.2889 12.466L36.2224 13.627C36.1774 13.678 36.1339 13.714 36.0919 13.735C36.0499 13.753 35.9944 13.762 35.9254 13.762H35.3944L36.0604 12.673C36.1024 12.604 36.1474 12.553 36.1954 12.52C36.2464 12.484 36.3244 12.466 36.4294 12.466H37.2889ZM41.8442 15.283C41.8172 15.316 41.7902 15.343 41.7632 15.364C41.7392 15.382 41.7032 15.391 41.6552 15.391C41.6072 15.391 41.5562 15.373 41.5022 15.337C41.4512 15.298 41.3852 15.2575 41.3042 15.2155C41.2262 15.1705 41.1302 15.13 41.0162 15.094C40.9052 15.055 40.7672 15.0355 40.6022 15.0355C40.3862 15.0355 40.1957 15.0745 40.0307 15.1525C39.8657 15.2305 39.7277 15.3415 39.6167 15.4855C39.5087 15.6295 39.4262 15.805 39.3692 16.012C39.3122 16.219 39.2837 16.4515 39.2837 16.7095C39.2837 16.9765 39.3137 17.215 39.3737 17.425C39.4337 17.632 39.5192 17.8075 39.6302 17.9515C39.7412 18.0925 39.8762 18.2005 40.0352 18.2755C40.1942 18.3475 40.3712 18.3835 40.5662 18.3835C40.7552 18.3835 40.9112 18.361 41.0342 18.316C41.1572 18.268 41.2592 18.217 41.3402 18.163C41.4212 18.109 41.4887 18.0595 41.5427 18.0145C41.5967 17.9665 41.6522 17.9425 41.7092 17.9425C41.7812 17.9425 41.8367 17.9695 41.8757 18.0235L42.1277 18.3475C42.0227 18.4765 41.9042 18.586 41.7722 18.676C41.6432 18.766 41.5052 18.8395 41.3582 18.8965C41.2112 18.9535 41.0567 18.9955 40.8947 19.0225C40.7357 19.0495 40.5737 19.063 40.4087 19.063C40.1237 19.063 39.8567 19.0105 39.6077 18.9055C39.3617 18.8005 39.1472 18.6475 38.9642 18.4465C38.7842 18.2455 38.6417 17.9995 38.5367 17.7085C38.4317 17.4145 38.3792 17.0815 38.3792 16.7095C38.3792 16.3705 38.4257 16.057 38.5187 15.769C38.6147 15.481 38.7542 15.2335 38.9372 15.0265C39.1232 14.8165 39.3512 14.653 39.6212 14.536C39.8912 14.416 40.2002 14.356 40.5482 14.356C40.8752 14.356 41.1632 14.4085 41.4122 14.5135C41.6612 14.6185 41.8832 14.767 42.0782 14.959L41.8442 15.283ZM45.0039 16.9705C44.6469 16.9825 44.3439 17.011 44.0949 17.056C43.8459 17.098 43.6434 17.155 43.4874 17.227C43.3314 17.299 43.2189 17.3845 43.1499 17.4835C43.0809 17.5795 43.0464 17.6875 43.0464 17.8075C43.0464 17.9215 43.0644 18.0205 43.1004 18.1045C43.1394 18.1855 43.1904 18.253 43.2534 18.307C43.3194 18.358 43.3959 18.3955 43.4829 18.4195C43.5699 18.4435 43.6644 18.4555 43.7664 18.4555C43.9014 18.4555 44.0244 18.442 44.1354 18.415C44.2494 18.388 44.3559 18.3505 44.4549 18.3025C44.5539 18.2515 44.6484 18.19 44.7384 18.118C44.8284 18.046 44.9169 17.9635 45.0039 17.8705V16.9705ZM42.4299 15.067C42.6849 14.824 42.9609 14.6425 43.2579 14.5225C43.5579 14.4025 43.8864 14.3425 44.2434 14.3425C44.5044 14.3425 44.7354 14.386 44.9364 14.473C45.1374 14.557 45.3069 14.6755 45.4449 14.8285C45.5829 14.9815 45.6864 15.1645 45.7554 15.3775C45.8274 15.5905 45.8634 15.826 45.8634 16.084V19H45.4719C45.3849 19 45.3189 18.9865 45.2739 18.9595C45.2289 18.9295 45.1929 18.8755 45.1659 18.7975L45.0714 18.397C44.9544 18.505 44.8389 18.601 44.7249 18.685C44.6109 18.766 44.4909 18.8365 44.3649 18.8965C44.2419 18.9535 44.1099 18.997 43.9689 19.027C43.8279 19.057 43.6719 19.072 43.5009 19.072C43.3209 19.072 43.1514 19.048 42.9924 19C42.8364 18.949 42.6999 18.8725 42.5829 18.7705C42.4659 18.6685 42.3729 18.541 42.3039 18.388C42.2379 18.235 42.2049 18.0565 42.2049 17.8525C42.2049 17.6725 42.2529 17.5 42.3489 17.335C42.4479 17.167 42.6069 17.017 42.8259 16.885C43.0479 16.753 43.3359 16.645 43.6899 16.561C44.0469 16.477 44.4849 16.429 45.0039 16.417V16.084C45.0039 15.739 44.9304 15.481 44.7834 15.31C44.6364 15.139 44.4204 15.0535 44.1354 15.0535C43.9434 15.0535 43.7814 15.0775 43.6494 15.1255C43.5204 15.1735 43.4079 15.2275 43.3119 15.2875C43.2189 15.3445 43.1364 15.397 43.0644 15.445C42.9954 15.493 42.9234 15.517 42.8484 15.517C42.7884 15.517 42.7359 15.5005 42.6909 15.4675C42.6489 15.4345 42.6144 15.3955 42.5874 15.3505L42.4299 15.067ZM47.4661 15.3055C47.6131 15.0055 47.7901 14.77 47.9971 14.599C48.2041 14.428 48.4531 14.3425 48.7441 14.3425C48.8431 14.3425 48.9361 14.3545 49.0231 14.3785C49.1131 14.3995 49.1911 14.4325 49.2571 14.4775L49.1986 15.139C49.1776 15.22 49.1281 15.2605 49.0501 15.2605C49.0081 15.2605 48.9451 15.253 48.8611 15.238C48.7771 15.22 48.6871 15.211 48.5911 15.211C48.4501 15.211 48.3256 15.232 48.2176 15.274C48.1096 15.313 48.0121 15.373 47.9251 15.454C47.8411 15.532 47.7661 15.6295 47.7001 15.7465C47.6341 15.8605 47.5726 15.991 47.5156 16.138V19H46.6381V14.428H47.1421C47.2381 14.428 47.3026 14.446 47.3356 14.482C47.3716 14.515 47.3971 14.575 47.4121 14.662L47.4661 15.3055ZM52.3955 16.2055C52.3955 16.0315 52.37 15.871 52.319 15.724C52.271 15.577 52.199 15.4495 52.103 15.3415C52.007 15.2335 51.89 15.1495 51.752 15.0895C51.614 15.0295 51.455 14.9995 51.275 14.9995C50.906 14.9995 50.615 15.106 50.402 15.319C50.192 15.532 50.0585 15.8275 50.0015 16.2055H52.3955ZM53.12 18.3475C53.012 18.4735 52.8875 18.583 52.7465 18.676C52.6055 18.766 52.4555 18.8395 52.2965 18.8965C52.1375 18.9535 51.9725 18.9955 51.8015 19.0225C51.6335 19.0495 51.467 19.063 51.302 19.063C50.987 19.063 50.6945 19.0105 50.4245 18.9055C50.1575 18.7975 49.925 18.6415 49.727 18.4375C49.532 18.2305 49.379 17.9755 49.268 17.6725C49.16 17.3665 49.106 17.0155 49.106 16.6195C49.106 16.3015 49.1555 16.006 49.2545 15.733C49.3535 15.457 49.4945 15.217 49.6775 15.013C49.8635 14.809 50.09 14.6485 50.357 14.5315C50.624 14.4145 50.924 14.356 51.257 14.356C51.536 14.356 51.7925 14.4025 52.0265 14.4955C52.2635 14.5855 52.4675 14.7175 52.6385 14.8915C52.8095 15.0655 52.943 15.28 53.039 15.535C53.138 15.79 53.1875 16.081 53.1875 16.408C53.1875 16.543 53.1725 16.6345 53.1425 16.6825C53.1125 16.7275 53.057 16.75 52.976 16.75H49.979C49.988 17.023 50.027 17.2615 50.096 17.4655C50.165 17.6665 50.2595 17.8345 50.3795 17.9695C50.5025 18.1045 50.648 18.205 50.816 18.271C50.984 18.337 51.1715 18.37 51.3785 18.37C51.5735 18.37 51.7415 18.3475 51.8825 18.3025C52.0265 18.2575 52.1495 18.2095 52.2515 18.1585C52.3565 18.1045 52.4435 18.055 52.5125 18.01C52.5845 17.965 52.6475 17.9425 52.7015 17.9425C52.7735 17.9425 52.829 17.9695 52.868 18.0235L53.12 18.3475ZM56.4262 15.2155C56.4022 15.2545 56.3767 15.283 56.3497 15.301C56.3227 15.316 56.2882 15.3235 56.2462 15.3235C56.1982 15.3235 56.1442 15.307 56.0842 15.274C56.0272 15.241 55.9567 15.205 55.8727 15.166C55.7917 15.127 55.6957 15.091 55.5847 15.058C55.4737 15.025 55.3417 15.0085 55.1887 15.0085C55.0627 15.0085 54.9472 15.025 54.8422 15.058C54.7402 15.088 54.6532 15.1315 54.5812 15.1885C54.5092 15.2425 54.4537 15.3085 54.4147 15.3865C54.3757 15.4615 54.3562 15.5425 54.3562 15.6295C54.3562 15.7435 54.3892 15.838 54.4552 15.913C54.5242 15.988 54.6127 16.0525 54.7207 16.1065C54.8317 16.1605 54.9562 16.21 55.0942 16.255C55.2352 16.297 55.3777 16.342 55.5217 16.39C55.6687 16.438 55.8112 16.4935 55.9492 16.5565C56.0902 16.6165 56.2147 16.693 56.3227 16.786C56.4337 16.876 56.5222 16.9855 56.5882 17.1145C56.6572 17.2435 56.6917 17.401 56.6917 17.587C56.6917 17.8 56.6527 17.998 56.5747 18.181C56.4997 18.361 56.3872 18.517 56.2372 18.649C56.0902 18.781 55.9072 18.8845 55.6882 18.9595C55.4692 19.0345 55.2187 19.072 54.9367 19.072C54.6217 19.072 54.3307 19.0195 54.0637 18.9145C53.7967 18.8095 53.5732 18.676 53.3932 18.514L53.6002 18.1765C53.6242 18.1345 53.6542 18.103 53.6902 18.082C53.7262 18.058 53.7742 18.046 53.8342 18.046C53.8912 18.046 53.9497 18.067 54.0097 18.109C54.0697 18.151 54.1417 18.1975 54.2257 18.2485C54.3097 18.2965 54.4117 18.3415 54.5317 18.3835C54.6517 18.4225 54.8017 18.442 54.9817 18.442C55.1317 18.442 55.2622 18.424 55.3732 18.388C55.4842 18.349 55.5757 18.298 55.6477 18.235C55.7227 18.169 55.7782 18.094 55.8142 18.01C55.8502 17.926 55.8682 17.8375 55.8682 17.7445C55.8682 17.6245 55.8337 17.5255 55.7647 17.4475C55.6987 17.3665 55.6102 17.2975 55.4992 17.2405C55.3912 17.1835 55.2667 17.134 55.1257 17.092C54.9847 17.05 54.8407 17.005 54.6937 16.957C54.5467 16.909 54.4027 16.8535 54.2617 16.7905C54.1207 16.7275 53.9947 16.648 53.8837 16.552C53.7757 16.456 53.6872 16.339 53.6182 16.201C53.5522 16.063 53.5192 15.895 53.5192 15.697C53.5192 15.52 53.5552 15.3505 53.6272 15.1885C53.7022 15.0265 53.8087 14.884 53.9467 14.761C54.0877 14.638 54.2602 14.5405 54.4642 14.4685C54.6712 14.3935 54.9067 14.356 55.1707 14.356C55.4737 14.356 55.7467 14.404 55.9897 14.5C56.2357 14.596 56.4457 14.728 56.6197 14.896L56.4262 15.2155Z" fill="#0B2031"/>
</g>
<defs>
<filter id="filter0_d" x="0" y="0" width="82" height="108" filterUnits="userSpaceOnUse" color-interpolation-filters="sRGB">
<feFlood flood-opacity="0" result="BackgroundImageFix"/>
<feColorMatrix in="SourceAlpha" type="matrix" values="0 0 0 0 0 0 0 0 0 0 0 0 0 0 0 0 0 0 127 0"/>
<feOffset dy="9"/>
<feGaussianBlur stdDeviation="7"/>
<feColorMatrix type="matrix" values="0 0 0 0 0 0 0 0 0 0 0 0 0 0 0 0 0 0 0.235139 0"/>
<feBlend mode="normal" in2="BackgroundImageFix" result="effect1_dropShadow"/>
<feBlend mode="normal" in="SourceGraphic" in2="effect1_dropShadow" result="shape"/>
</filter>
</defs>
</svg>

