<svg width="80" height="35" viewBox="0 0 80 35" fill="none" xmlns="http://www.w3.org/2000/svg">
<path d="M7.06 9V2H5.54V6.31L2.26 2H0.84V9H2.36V4.55L5.75 9H7.06ZM16.6304 5.5V5.48C16.6304 3.49 15.0804 1.88 12.9204 1.88C10.7604 1.88 9.19039 3.51 9.19039 5.5V5.52C9.19039 7.51 10.7404 9.12 12.9004 9.12C15.0604 9.12 16.6304 7.49 16.6304 5.5ZM15.0204 5.52C15.0204 6.72 14.1604 7.7 12.9204 7.7C11.6804 7.7 10.8004 6.7 10.8004 5.5V5.48C10.8004 4.28 11.6604 3.3 12.9004 3.3C14.1404 3.3 15.0204 4.3 15.0204 5.5V5.52ZM24.7273 2H23.0673L21.2373 6.93L19.4073 2H17.7073L20.5373 9.05H21.8973L24.7273 2ZM32.3912 9L29.3912 1.95H27.9712L24.9712 9H26.5412L27.1812 7.43H30.1412L30.7812 9H32.3912ZM29.5912 6.07H27.7312L28.6612 3.8L29.5912 6.07ZM35.6816 5.24V3.64H34.0616V5.24H35.6816ZM35.6816 9V7.4H34.0616V9H35.6816Z" fill="#706E7B"/>
<rect width="12" height="16" transform="translate(0 15)" fill="#5E8F4C"/>
<path opacity="0.7" d="M8.50207 25.9825V27H4.10207V25.9825H5.71357V21.346C5.71357 21.1627 5.71907 20.9738 5.73007 20.7795L4.58607 21.7365C4.52007 21.7878 4.45407 21.8208 4.38807 21.8355C4.32574 21.8465 4.26524 21.8465 4.20657 21.8355C4.15157 21.8245 4.10207 21.8062 4.05807 21.7805C4.01407 21.7512 3.98107 21.72 3.95907 21.687L3.53007 21.0985L5.95557 19.036H7.07207V25.9825H8.50207Z" fill="white"/>
<rect width="12" height="16" transform="translate(12 15)" fill="#EAE014"/>
<path opacity="0.7" d="M20.2051 25.735C20.3517 25.735 20.4672 25.7772 20.5516 25.8615C20.6396 25.9422 20.6836 26.0503 20.6836 26.186V27H15.2276V26.549C15.2276 26.4573 15.2459 26.362 15.2826 26.263C15.3229 26.1603 15.3852 26.0687 15.4696 25.988L17.8841 23.568C18.0857 23.3627 18.2654 23.1665 18.4231 22.9795C18.5844 22.7925 18.7182 22.6073 18.8246 22.424C18.9309 22.2407 19.0116 22.0555 19.0666 21.8685C19.1252 21.6778 19.1546 21.478 19.1546 21.269C19.1546 21.0783 19.1271 20.9115 19.0721 20.7685C19.0171 20.6218 18.9382 20.499 18.8356 20.4C18.7366 20.301 18.6156 20.2277 18.4726 20.18C18.3332 20.1287 18.1756 20.103 17.9996 20.103C17.8382 20.103 17.6879 20.1268 17.5486 20.1745C17.4129 20.2185 17.2919 20.2827 17.1856 20.367C17.0792 20.4477 16.9894 20.543 16.9161 20.653C16.8427 20.763 16.7877 20.884 16.7511 21.016C16.6887 21.1847 16.6081 21.2965 16.5091 21.3515C16.4101 21.4065 16.2671 21.4193 16.0801 21.39L15.3651 21.2635C15.4201 20.8822 15.5264 20.5485 15.6841 20.2625C15.8417 19.9728 16.0379 19.7327 16.2726 19.542C16.5109 19.3477 16.7822 19.2028 17.0866 19.1075C17.3946 19.0085 17.7246 18.959 18.0766 18.959C18.4432 18.959 18.7787 19.014 19.0831 19.124C19.3874 19.2303 19.6477 19.3825 19.8641 19.5805C20.0804 19.7785 20.2491 20.0168 20.3701 20.2955C20.4911 20.5742 20.5516 20.884 20.5516 21.225C20.5516 21.5183 20.5076 21.7897 20.4196 22.039C20.3352 22.2883 20.2197 22.5267 20.0731 22.754C19.9301 22.9813 19.7614 23.2013 19.5671 23.414C19.3727 23.6267 19.1692 23.843 18.9566 24.063L17.1636 25.8945C17.3359 25.8432 17.5064 25.8047 17.6751 25.779C17.8474 25.7497 18.0106 25.735 18.1646 25.735H20.2051Z" fill="white"/>
<rect width="12" height="16" transform="translate(24 15)" fill="#D68429"/>
<path opacity="0.7" d="M27.4036 21.2635C27.4586 20.8822 27.5649 20.5485 27.7226 20.2625C27.8802 19.9728 28.0764 19.7327 28.3111 19.542C28.5494 19.3477 28.8207 19.2028 29.1251 19.1075C29.4331 19.0085 29.7631 18.959 30.1151 18.959C30.4817 18.959 30.8117 19.0122 31.1051 19.1185C31.4021 19.2212 31.6551 19.366 31.8641 19.553C32.0731 19.7363 32.2326 19.9527 32.3426 20.202C32.4562 20.4513 32.5131 20.7208 32.5131 21.0105C32.5131 21.2635 32.4837 21.4872 32.4251 21.6815C32.3701 21.8722 32.2894 22.039 32.1831 22.182C32.0767 22.325 31.9447 22.446 31.7871 22.545C31.6294 22.644 31.4516 22.7265 31.2536 22.7925C31.7302 22.9428 32.0859 23.172 32.3206 23.48C32.5552 23.788 32.6726 24.1748 32.6726 24.6405C32.6726 25.0365 32.5992 25.3867 32.4526 25.691C32.3059 25.9953 32.1079 26.252 31.8586 26.461C31.6092 26.6663 31.3196 26.8222 30.9896 26.9285C30.6632 27.0348 30.3167 27.088 29.9501 27.088C29.5504 27.088 29.2021 27.0422 28.9051 26.9505C28.6081 26.8588 28.3496 26.7232 28.1296 26.5435C27.9096 26.3638 27.7226 26.1438 27.5686 25.8835C27.4146 25.6232 27.2826 25.3225 27.1726 24.9815L27.7721 24.734C27.9297 24.668 28.0764 24.6515 28.2121 24.6845C28.3514 24.7138 28.4522 24.7872 28.5146 24.9045C28.5806 25.0328 28.6521 25.1593 28.7291 25.284C28.8097 25.4087 28.9051 25.5205 29.0151 25.6195C29.1251 25.7148 29.2534 25.7937 29.4001 25.856C29.5504 25.9147 29.7282 25.944 29.9336 25.944C30.1646 25.944 30.3662 25.9073 30.5386 25.834C30.7109 25.757 30.8539 25.658 30.9676 25.537C31.0849 25.416 31.1711 25.2822 31.2261 25.1355C31.2847 24.9852 31.3141 24.8348 31.3141 24.6845C31.3141 24.4938 31.2939 24.3215 31.2536 24.1675C31.2132 24.0098 31.1289 23.876 31.0006 23.766C30.8722 23.656 30.6871 23.5698 30.4451 23.5075C30.2067 23.4452 29.8859 23.414 29.4826 23.414V22.446C29.8162 22.4423 30.0931 22.4112 30.3131 22.3525C30.5331 22.2938 30.7072 22.2132 30.8356 22.1105C30.9676 22.0042 31.0592 21.8777 31.1106 21.731C31.1619 21.5843 31.1876 21.423 31.1876 21.247C31.1876 20.873 31.0831 20.5888 30.8741 20.3945C30.6651 20.2002 30.3864 20.103 30.0381 20.103C29.8767 20.103 29.7282 20.1268 29.5926 20.1745C29.4569 20.2185 29.3341 20.2827 29.2241 20.367C29.1177 20.4477 29.0279 20.543 28.9546 20.653C28.8812 20.763 28.8262 20.884 28.7896 21.016C28.7272 21.1847 28.6447 21.2965 28.5421 21.3515C28.4431 21.4065 28.3019 21.4193 28.1186 21.39L27.4036 21.2635Z" fill="white"/>
<rect x="36.5" y="11.5" width="18" height="23" rx="3.5" fill="#CD4327" stroke="white"/>
<path d="M46.5234 25.3225V20.829C46.5234 20.4047 46.5519 19.936 46.6089 19.423L42.3434 25.3225H46.5234ZM50.2949 25.3225V26.681C50.2949 26.8077 50.2537 26.9185 50.1714 27.0135C50.089 27.1022 49.9719 27.1465 49.8199 27.1465H48.5659V30.5H46.5234V27.1465H40.7284C40.57 27.1465 40.4307 27.099 40.3104 27.004C40.19 26.9027 40.114 26.7792 40.0824 26.6335L39.8354 25.446L46.3429 16.7535H48.5659V25.3225H50.2949Z" fill="white"/>
</svg>
