<svg width="80" height="35" viewBox="0 0 80 35" fill="none" xmlns="http://www.w3.org/2000/svg">
<path d="M7.06 9V2H5.54V6.31L2.26 2H0.84V9H2.36V4.55L5.75 9H7.06ZM16.6304 5.5V5.48C16.6304 3.49 15.0804 1.88 12.9204 1.88C10.7604 1.88 9.19039 3.51 9.19039 5.5V5.52C9.19039 7.51 10.7404 9.12 12.9004 9.12C15.0604 9.12 16.6304 7.49 16.6304 5.5ZM15.0204 5.52C15.0204 6.72 14.1604 7.7 12.9204 7.7C11.6804 7.7 10.8004 6.7 10.8004 5.5V5.48C10.8004 4.28 11.6604 3.3 12.9004 3.3C14.1404 3.3 15.0204 4.3 15.0204 5.5V5.52ZM24.7273 2H23.0673L21.2373 6.93L19.4073 2H17.7073L20.5373 9.05H21.8973L24.7273 2ZM32.3912 9L29.3912 1.95H27.9712L24.9712 9H26.5412L27.1812 7.43H30.1412L30.7812 9H32.3912ZM29.5912 6.07H27.7312L28.6612 3.8L29.5912 6.07ZM35.6816 5.24V3.64H34.0616V5.24H35.6816ZM35.6816 9V7.4H34.0616V9H35.6816Z" fill="#706E7B"/>
<rect width="12" height="16" transform="translate(0 15)" fill="#5E8F4C"/>
<path opacity="0.7" d="M8.50207 25.9825V27H4.10207V25.9825H5.71357V21.346C5.71357 21.1627 5.71907 20.9738 5.73007 20.7795L4.58607 21.7365C4.52007 21.7878 4.45407 21.8208 4.38807 21.8355C4.32574 21.8465 4.26524 21.8465 4.20657 21.8355C4.15157 21.8245 4.10207 21.8062 4.05807 21.7805C4.01407 21.7512 3.98107 21.72 3.95907 21.687L3.53007 21.0985L5.95557 19.036H7.07207V25.9825H8.50207Z" fill="white"/>
<rect x="12.5" y="11.5" width="18" height="23" rx="3.5" fill="#EAE014" stroke="white"/>
<path d="M25.0789 28.315C25.3322 28.315 25.5317 28.3878 25.6774 28.5335C25.8294 28.6728 25.9054 28.8597 25.9054 29.094V30.5H16.4814V29.721C16.4814 29.5627 16.513 29.398 16.5764 29.227C16.646 29.0497 16.7537 28.8913 16.8994 28.752L21.0699 24.572C21.4182 24.2173 21.7285 23.8785 22.0009 23.5555C22.2795 23.2325 22.5107 22.9127 22.6944 22.596C22.878 22.2793 23.0174 21.9595 23.1124 21.6365C23.2137 21.3072 23.2644 20.962 23.2644 20.601C23.2644 20.2717 23.2169 19.9835 23.1219 19.7365C23.0269 19.4832 22.8907 19.271 22.7134 19.1C22.5424 18.929 22.3334 18.8023 22.0864 18.72C21.8457 18.6313 21.5734 18.587 21.2694 18.587C20.9907 18.587 20.731 18.6282 20.4904 18.7105C20.256 18.7865 20.047 18.8973 19.8634 19.043C19.6797 19.1823 19.5245 19.347 19.3979 19.537C19.2712 19.727 19.1762 19.936 19.1129 20.164C19.0052 20.4553 18.8659 20.6485 18.6949 20.7435C18.5239 20.8385 18.2769 20.8607 17.9539 20.81L16.7189 20.5915C16.8139 19.9328 16.9975 19.3565 17.2699 18.8625C17.5422 18.3622 17.881 17.9473 18.2864 17.618C18.698 17.2823 19.1667 17.0322 19.6924 16.8675C20.2244 16.6965 20.7944 16.611 21.4024 16.611C22.0357 16.611 22.6152 16.706 23.1409 16.896C23.6665 17.0797 24.1162 17.3425 24.4899 17.6845C24.8635 18.0265 25.1549 18.4382 25.3639 18.9195C25.5729 19.4008 25.6774 19.936 25.6774 20.525C25.6774 21.0317 25.6014 21.5003 25.4494 21.931C25.3037 22.3617 25.1042 22.7733 24.8509 23.166C24.6039 23.5587 24.3125 23.9387 23.9769 24.306C23.6412 24.6733 23.2897 25.047 22.9224 25.427L19.8254 28.5905C20.123 28.5018 20.4175 28.4353 20.7089 28.391C21.0065 28.3403 21.2884 28.315 21.5544 28.315H25.0789Z" fill="white"/>
<rect width="12" height="16" transform="translate(31 15)" fill="#D68429"/>
<path opacity="0.7" d="M34.4036 21.2635C34.4586 20.8822 34.5649 20.5485 34.7226 20.2625C34.8802 19.9728 35.0764 19.7327 35.3111 19.542C35.5494 19.3477 35.8207 19.2028 36.1251 19.1075C36.4331 19.0085 36.7631 18.959 37.1151 18.959C37.4817 18.959 37.8117 19.0122 38.1051 19.1185C38.4021 19.2212 38.6551 19.366 38.8641 19.553C39.0731 19.7363 39.2326 19.9527 39.3426 20.202C39.4562 20.4513 39.5131 20.7208 39.5131 21.0105C39.5131 21.2635 39.4837 21.4872 39.4251 21.6815C39.3701 21.8722 39.2894 22.039 39.1831 22.182C39.0767 22.325 38.9447 22.446 38.7871 22.545C38.6294 22.644 38.4516 22.7265 38.2536 22.7925C38.7302 22.9428 39.0859 23.172 39.3206 23.48C39.5552 23.788 39.6726 24.1748 39.6726 24.6405C39.6726 25.0365 39.5992 25.3867 39.4526 25.691C39.3059 25.9953 39.1079 26.252 38.8586 26.461C38.6092 26.6663 38.3196 26.8222 37.9896 26.9285C37.6632 27.0348 37.3167 27.088 36.9501 27.088C36.5504 27.088 36.2021 27.0422 35.9051 26.9505C35.6081 26.8588 35.3496 26.7232 35.1296 26.5435C34.9096 26.3638 34.7226 26.1438 34.5686 25.8835C34.4146 25.6232 34.2826 25.3225 34.1726 24.9815L34.7721 24.734C34.9297 24.668 35.0764 24.6515 35.2121 24.6845C35.3514 24.7138 35.4522 24.7872 35.5146 24.9045C35.5806 25.0328 35.6521 25.1593 35.7291 25.284C35.8097 25.4087 35.9051 25.5205 36.0151 25.6195C36.1251 25.7148 36.2534 25.7937 36.4001 25.856C36.5504 25.9147 36.7282 25.944 36.9336 25.944C37.1646 25.944 37.3662 25.9073 37.5386 25.834C37.7109 25.757 37.8539 25.658 37.9676 25.537C38.0849 25.416 38.1711 25.2822 38.2261 25.1355C38.2847 24.9852 38.3141 24.8348 38.3141 24.6845C38.3141 24.4938 38.2939 24.3215 38.2536 24.1675C38.2132 24.0098 38.1289 23.876 38.0006 23.766C37.8722 23.656 37.6871 23.5698 37.4451 23.5075C37.2067 23.4452 36.8859 23.414 36.4826 23.414V22.446C36.8162 22.4423 37.0931 22.4112 37.3131 22.3525C37.5331 22.2938 37.7072 22.2132 37.8356 22.1105C37.9676 22.0042 38.0592 21.8777 38.1106 21.731C38.1619 21.5843 38.1876 21.423 38.1876 21.247C38.1876 20.873 38.0831 20.5888 37.8741 20.3945C37.6651 20.2002 37.3864 20.103 37.0381 20.103C36.8767 20.103 36.7282 20.1268 36.5926 20.1745C36.4569 20.2185 36.3341 20.2827 36.2241 20.367C36.1177 20.4477 36.0279 20.543 35.9546 20.653C35.8812 20.763 35.8262 20.884 35.7896 21.016C35.7272 21.1847 35.6447 21.2965 35.5421 21.3515C35.4431 21.4065 35.3019 21.4193 35.1186 21.39L34.4036 21.2635Z" fill="white"/>
<rect width="12" height="16" transform="translate(43 15)" fill="#CD4327"/>
<path opacity="0.7" d="M49.7256 24.0025V21.401C49.7256 21.1553 49.7421 20.884 49.7751 20.587L47.3056 24.0025H49.7256ZM51.9091 24.0025V24.789C51.9091 24.8623 51.8852 24.9265 51.8376 24.9815C51.7899 25.0328 51.7221 25.0585 51.6341 25.0585H50.9081V27H49.7256V25.0585H46.3706C46.2789 25.0585 46.1982 25.031 46.1286 24.976C46.0589 24.9173 46.0149 24.8458 45.9966 24.7615L45.8536 24.074L49.6211 19.0415H50.9081V24.0025H51.9091Z" fill="white"/>
</svg>
