<svg width="80" height="35" viewBox="0 0 80 35" fill="none" xmlns="http://www.w3.org/2000/svg">
<path d="M7.06 9V2H5.54V6.31L2.26 2H0.84V9H2.36V4.55L5.75 9H7.06ZM16.6304 5.5V5.48C16.6304 3.49 15.0804 1.88 12.9204 1.88C10.7604 1.88 9.19039 3.51 9.19039 5.5V5.52C9.19039 7.51 10.7404 9.12 12.9004 9.12C15.0604 9.12 16.6304 7.49 16.6304 5.5ZM15.0204 5.52C15.0204 6.72 14.1604 7.7 12.9204 7.7C11.6804 7.7 10.8004 6.7 10.8004 5.5V5.48C10.8004 4.28 11.6604 3.3 12.9004 3.3C14.1404 3.3 15.0204 4.3 15.0204 5.5V5.52ZM24.7273 2H23.0673L21.2373 6.93L19.4073 2H17.7073L20.5373 9.05H21.8973L24.7273 2ZM32.3912 9L29.3912 1.95H27.9712L24.9712 9H26.5412L27.1812 7.43H30.1412L30.7812 9H32.3912ZM29.5912 6.07H27.7312L28.6612 3.8L29.5912 6.07ZM35.6816 5.24V3.64H34.0616V5.24H35.6816ZM35.6816 9V7.4H34.0616V9H35.6816Z" fill="#706E7B"/>
<rect width="12" height="16" transform="translate(0 15)" fill="#5E8F4C"/>
<path opacity="0.7" d="M8.50207 25.9825V27H4.10207V25.9825H5.71357V21.346C5.71357 21.1627 5.71907 20.9738 5.73007 20.7795L4.58607 21.7365C4.52007 21.7878 4.45407 21.8208 4.38807 21.8355C4.32574 21.8465 4.26524 21.8465 4.20657 21.8355C4.15157 21.8245 4.10207 21.8062 4.05807 21.7805C4.01407 21.7512 3.98107 21.72 3.95907 21.687L3.53007 21.0985L5.95557 19.036H7.07207V25.9825H8.50207Z" fill="white"/>
<rect width="12" height="16" transform="translate(12 15)" fill="#EAE014"/>
<path opacity="0.7" d="M20.2051 25.735C20.3517 25.735 20.4672 25.7772 20.5516 25.8615C20.6396 25.9422 20.6836 26.0503 20.6836 26.186V27H15.2276V26.549C15.2276 26.4573 15.2459 26.362 15.2826 26.263C15.3229 26.1603 15.3852 26.0687 15.4696 25.988L17.8841 23.568C18.0857 23.3627 18.2654 23.1665 18.4231 22.9795C18.5844 22.7925 18.7182 22.6073 18.8246 22.424C18.9309 22.2407 19.0116 22.0555 19.0666 21.8685C19.1252 21.6778 19.1546 21.478 19.1546 21.269C19.1546 21.0783 19.1271 20.9115 19.0721 20.7685C19.0171 20.6218 18.9382 20.499 18.8356 20.4C18.7366 20.301 18.6156 20.2277 18.4726 20.18C18.3332 20.1287 18.1756 20.103 17.9996 20.103C17.8382 20.103 17.6879 20.1268 17.5486 20.1745C17.4129 20.2185 17.2919 20.2827 17.1856 20.367C17.0792 20.4477 16.9894 20.543 16.9161 20.653C16.8427 20.763 16.7877 20.884 16.7511 21.016C16.6887 21.1847 16.6081 21.2965 16.5091 21.3515C16.4101 21.4065 16.2671 21.4193 16.0801 21.39L15.3651 21.2635C15.4201 20.8822 15.5264 20.5485 15.6841 20.2625C15.8417 19.9728 16.0379 19.7327 16.2726 19.542C16.5109 19.3477 16.7822 19.2028 17.0866 19.1075C17.3946 19.0085 17.7246 18.959 18.0766 18.959C18.4432 18.959 18.7787 19.014 19.0831 19.124C19.3874 19.2303 19.6477 19.3825 19.8641 19.5805C20.0804 19.7785 20.2491 20.0168 20.3701 20.2955C20.4911 20.5742 20.5516 20.884 20.5516 21.225C20.5516 21.5183 20.5076 21.7897 20.4196 22.039C20.3352 22.2883 20.2197 22.5267 20.0731 22.754C19.9301 22.9813 19.7614 23.2013 19.5671 23.414C19.3727 23.6267 19.1692 23.843 18.9566 24.063L17.1636 25.8945C17.3359 25.8432 17.5064 25.8047 17.6751 25.779C17.8474 25.7497 18.0106 25.735 18.1646 25.735H20.2051Z" fill="white"/>
<rect x="24.5" y="11.5" width="18" height="23" rx="3.5" fill="#D68429" stroke="white"/>
<path d="M28.7854 20.5915C28.8804 19.9328 29.064 19.3565 29.3364 18.8625C29.6087 18.3622 29.9475 17.9473 30.3529 17.618C30.7645 17.2823 31.2332 17.0322 31.7589 16.8675C32.2909 16.6965 32.8609 16.611 33.4689 16.611C34.1022 16.611 34.6722 16.7028 35.1789 16.8865C35.6919 17.0638 36.1289 17.314 36.4899 17.637C36.8509 17.9537 37.1264 18.3273 37.3164 18.758C37.5127 19.1887 37.6109 19.6542 37.6109 20.1545C37.6109 20.5915 37.5602 20.9778 37.4589 21.3135C37.3639 21.6428 37.2245 21.931 37.0409 22.178C36.8572 22.425 36.6292 22.634 36.3569 22.805C36.0845 22.976 35.7774 23.1185 35.4354 23.2325C36.2587 23.4922 36.873 23.888 37.2784 24.42C37.6837 24.952 37.8864 25.6202 37.8864 26.4245C37.8864 27.1085 37.7597 27.7133 37.5064 28.239C37.253 28.7647 36.911 29.208 36.4804 29.569C36.0497 29.9237 35.5494 30.1928 34.9794 30.3765C34.4157 30.5602 33.8172 30.652 33.1839 30.652C32.4935 30.652 31.8919 30.5728 31.3789 30.4145C30.8659 30.2562 30.4194 30.0218 30.0394 29.7115C29.6594 29.4012 29.3364 29.0212 29.0704 28.5715C28.8044 28.1218 28.5764 27.6025 28.3864 27.0135L29.4219 26.586C29.6942 26.472 29.9475 26.4435 30.1819 26.5005C30.4225 26.5512 30.5967 26.6778 30.7044 26.8805C30.8184 27.1022 30.9419 27.3207 31.0749 27.536C31.2142 27.7513 31.3789 27.9445 31.5689 28.1155C31.7589 28.2802 31.9805 28.4163 32.2339 28.524C32.4935 28.6253 32.8007 28.676 33.1554 28.676C33.5544 28.676 33.9027 28.6127 34.2004 28.486C34.498 28.353 34.745 28.182 34.9414 27.973C35.144 27.764 35.2929 27.5328 35.3879 27.2795C35.4892 27.0198 35.5399 26.7602 35.5399 26.5005C35.5399 26.1712 35.505 25.8735 35.4354 25.6075C35.3657 25.3352 35.22 25.104 34.9984 24.914C34.7767 24.724 34.4569 24.5752 34.0389 24.4675C33.6272 24.3598 33.073 24.306 32.3764 24.306V22.634C32.9527 22.6277 33.4309 22.5738 33.8109 22.4725C34.1909 22.3712 34.4917 22.2318 34.7134 22.0545C34.9414 21.8708 35.0997 21.6523 35.1884 21.399C35.277 21.1457 35.3214 20.867 35.3214 20.563C35.3214 19.917 35.1409 19.4262 34.7799 19.0905C34.4189 18.7548 33.9375 18.587 33.3359 18.587C33.0572 18.587 32.8007 18.6282 32.5664 18.7105C32.332 18.7865 32.1199 18.8973 31.9299 19.043C31.7462 19.1823 31.591 19.347 31.4644 19.537C31.3377 19.727 31.2427 19.936 31.1794 20.164C31.0717 20.4553 30.9292 20.6485 30.7519 20.7435C30.5809 20.8385 30.337 20.8607 30.0204 20.81L28.7854 20.5915Z" fill="white"/>
<rect width="12" height="16" transform="translate(43 15)" fill="#CD4327"/>
<path opacity="0.7" d="M49.7256 24.0025V21.401C49.7256 21.1553 49.7421 20.884 49.7751 20.587L47.3056 24.0025H49.7256ZM51.9091 24.0025V24.789C51.9091 24.8623 51.8852 24.9265 51.8376 24.9815C51.7899 25.0328 51.7221 25.0585 51.6341 25.0585H50.9081V27H49.7256V25.0585H46.3706C46.2789 25.0585 46.1982 25.031 46.1286 24.976C46.0589 24.9173 46.0149 24.8458 45.9966 24.7615L45.8536 24.074L49.6211 19.0415H50.9081V24.0025H51.9091Z" fill="white"/>
</svg>
