<svg width="80" height="35" viewBox="0 0 80 35" fill="none" xmlns="http://www.w3.org/2000/svg">
<path d="M7.06 9V2H5.54V6.31L2.26 2H0.84V9H2.36V4.55L5.75 9H7.06ZM16.6304 5.5V5.48C16.6304 3.49 15.0804 1.88 12.9204 1.88C10.7604 1.88 9.19039 3.51 9.19039 5.5V5.52C9.19039 7.51 10.7404 9.12 12.9004 9.12C15.0604 9.12 16.6304 7.49 16.6304 5.5ZM15.0204 5.52C15.0204 6.72 14.1604 7.7 12.9204 7.7C11.6804 7.7 10.8004 6.7 10.8004 5.5V5.48C10.8004 4.28 11.6604 3.3 12.9004 3.3C14.1404 3.3 15.0204 4.3 15.0204 5.5V5.52ZM24.7273 2H23.0673L21.2373 6.93L19.4073 2H17.7073L20.5373 9.05H21.8973L24.7273 2ZM32.3912 9L29.3912 1.95H27.9712L24.9712 9H26.5412L27.1812 7.43H30.1412L30.7812 9H32.3912ZM29.5912 6.07H27.7312L28.6612 3.8L29.5912 6.07ZM35.6816 5.24V3.64H34.0616V5.24H35.6816ZM35.6816 9V7.4H34.0616V9H35.6816Z" fill="#706E7B"/>
<rect x="0.5" y="11.5" width="17" height="23" rx="3.5" fill="#5E8F4C" stroke="white"/>
<path d="M13.5919 28.7425V30.5H5.99187V28.7425H8.77537V20.734C8.77537 20.4173 8.78487 20.0912 8.80387 19.7555L6.82787 21.4085C6.71387 21.4972 6.59987 21.5542 6.48587 21.5795C6.3782 21.5985 6.2737 21.5985 6.17237 21.5795C6.07737 21.5605 5.99187 21.5288 5.91587 21.4845C5.83987 21.4338 5.78287 21.38 5.74487 21.323L5.00387 20.3065L9.19337 16.744H11.1219V28.7425H13.5919Z" fill="white"/>
<rect width="12" height="16" transform="translate(18 15)" fill="#EAE014"/>
<path opacity="0.7" d="M26.2051 25.735C26.3517 25.735 26.4672 25.7772 26.5516 25.8615C26.6396 25.9422 26.6836 26.0503 26.6836 26.186V27H21.2276V26.549C21.2276 26.4573 21.2459 26.362 21.2826 26.263C21.3229 26.1603 21.3852 26.0687 21.4696 25.988L23.8841 23.568C24.0857 23.3627 24.2654 23.1665 24.4231 22.9795C24.5844 22.7925 24.7182 22.6073 24.8246 22.424C24.9309 22.2407 25.0116 22.0555 25.0666 21.8685C25.1252 21.6778 25.1546 21.478 25.1546 21.269C25.1546 21.0783 25.1271 20.9115 25.0721 20.7685C25.0171 20.6218 24.9382 20.499 24.8356 20.4C24.7366 20.301 24.6156 20.2277 24.4726 20.18C24.3332 20.1287 24.1756 20.103 23.9996 20.103C23.8382 20.103 23.6879 20.1268 23.5486 20.1745C23.4129 20.2185 23.2919 20.2827 23.1856 20.367C23.0792 20.4477 22.9894 20.543 22.9161 20.653C22.8427 20.763 22.7877 20.884 22.7511 21.016C22.6887 21.1847 22.6081 21.2965 22.5091 21.3515C22.4101 21.4065 22.2671 21.4193 22.0801 21.39L21.3651 21.2635C21.4201 20.8822 21.5264 20.5485 21.6841 20.2625C21.8417 19.9728 22.0379 19.7327 22.2726 19.542C22.5109 19.3477 22.7822 19.2028 23.0866 19.1075C23.3946 19.0085 23.7246 18.959 24.0766 18.959C24.4432 18.959 24.7787 19.014 25.0831 19.124C25.3874 19.2303 25.6477 19.3825 25.8641 19.5805C26.0804 19.7785 26.2491 20.0168 26.3701 20.2955C26.4911 20.5742 26.5516 20.884 26.5516 21.225C26.5516 21.5183 26.5076 21.7897 26.4196 22.039C26.3352 22.2883 26.2197 22.5267 26.0731 22.754C25.9301 22.9813 25.7614 23.2013 25.5671 23.414C25.3727 23.6267 25.1692 23.843 24.9566 24.063L23.1636 25.8945C23.3359 25.8432 23.5064 25.8047 23.6751 25.779C23.8474 25.7497 24.0106 25.735 24.1646 25.735H26.2051Z" fill="white"/>
<rect width="12" height="16" transform="translate(30 15)" fill="#D68429"/>
<path opacity="0.7" d="M33.4036 21.2635C33.4586 20.8822 33.5649 20.5485 33.7226 20.2625C33.8802 19.9728 34.0764 19.7327 34.3111 19.542C34.5494 19.3477 34.8207 19.2028 35.1251 19.1075C35.4331 19.0085 35.7631 18.959 36.1151 18.959C36.4817 18.959 36.8117 19.0122 37.1051 19.1185C37.4021 19.2212 37.6551 19.366 37.8641 19.553C38.0731 19.7363 38.2326 19.9527 38.3426 20.202C38.4562 20.4513 38.5131 20.7208 38.5131 21.0105C38.5131 21.2635 38.4837 21.4872 38.4251 21.6815C38.3701 21.8722 38.2894 22.039 38.1831 22.182C38.0767 22.325 37.9447 22.446 37.7871 22.545C37.6294 22.644 37.4516 22.7265 37.2536 22.7925C37.7302 22.9428 38.0859 23.172 38.3206 23.48C38.5552 23.788 38.6726 24.1748 38.6726 24.6405C38.6726 25.0365 38.5992 25.3867 38.4526 25.691C38.3059 25.9953 38.1079 26.252 37.8586 26.461C37.6092 26.6663 37.3196 26.8222 36.9896 26.9285C36.6632 27.0348 36.3167 27.088 35.9501 27.088C35.5504 27.088 35.2021 27.0422 34.9051 26.9505C34.6081 26.8588 34.3496 26.7232 34.1296 26.5435C33.9096 26.3638 33.7226 26.1438 33.5686 25.8835C33.4146 25.6232 33.2826 25.3225 33.1726 24.9815L33.7721 24.734C33.9297 24.668 34.0764 24.6515 34.2121 24.6845C34.3514 24.7138 34.4522 24.7872 34.5146 24.9045C34.5806 25.0328 34.6521 25.1593 34.7291 25.284C34.8097 25.4087 34.9051 25.5205 35.0151 25.6195C35.1251 25.7148 35.2534 25.7937 35.4001 25.856C35.5504 25.9147 35.7282 25.944 35.9336 25.944C36.1646 25.944 36.3662 25.9073 36.5386 25.834C36.7109 25.757 36.8539 25.658 36.9676 25.537C37.0849 25.416 37.1711 25.2822 37.2261 25.1355C37.2847 24.9852 37.3141 24.8348 37.3141 24.6845C37.3141 24.4938 37.2939 24.3215 37.2536 24.1675C37.2132 24.0098 37.1289 23.876 37.0006 23.766C36.8722 23.656 36.6871 23.5698 36.4451 23.5075C36.2067 23.4452 35.8859 23.414 35.4826 23.414V22.446C35.8162 22.4423 36.0931 22.4112 36.3131 22.3525C36.5331 22.2938 36.7072 22.2132 36.8356 22.1105C36.9676 22.0042 37.0592 21.8777 37.1106 21.731C37.1619 21.5843 37.1876 21.423 37.1876 21.247C37.1876 20.873 37.0831 20.5888 36.8741 20.3945C36.6651 20.2002 36.3864 20.103 36.0381 20.103C35.8767 20.103 35.7282 20.1268 35.5926 20.1745C35.4569 20.2185 35.3341 20.2827 35.2241 20.367C35.1177 20.4477 35.0279 20.543 34.9546 20.653C34.8812 20.763 34.8262 20.884 34.7896 21.016C34.7272 21.1847 34.6447 21.2965 34.5421 21.3515C34.4431 21.4065 34.3019 21.4193 34.1186 21.39L33.4036 21.2635Z" fill="white"/>
<rect width="12" height="16" transform="translate(42 15)" fill="#CD4327"/>
<path opacity="0.7" d="M48.7256 24.0025V21.401C48.7256 21.1553 48.7421 20.884 48.7751 20.587L46.3056 24.0025H48.7256ZM50.9091 24.0025V24.789C50.9091 24.8623 50.8852 24.9265 50.8376 24.9815C50.7899 25.0328 50.7221 25.0585 50.6341 25.0585H49.9081V27H48.7256V25.0585H45.3706C45.2789 25.0585 45.1982 25.031 45.1286 24.976C45.0589 24.9173 45.0149 24.8458 44.9966 24.7615L44.8536 24.074L48.6211 19.0415H49.9081V24.0025H50.9091Z" fill="white"/>
</svg>
