<svg width="98" height="35" viewBox="0 0 98 35" fill="none" xmlns="http://www.w3.org/2000/svg">
<path d="M7.06 9V2H5.54V6.31L2.26 2H0.84V9H2.36V4.55L5.75 9H7.06ZM15.4904 5.95V2H13.9504V6.01C13.9504 7.12 13.3804 7.69 12.4404 7.69C11.5004 7.69 10.9304 7.1 10.9304 5.96V2H9.39039V6C9.39039 8.06 10.5404 9.11 12.4204 9.11C14.3004 9.11 15.4904 8.07 15.4904 5.95ZM23.119 3.42V2H17.319V3.42H19.449V9H20.989V3.42H23.119ZM31.1134 9L29.4034 6.5C30.2934 6.17 30.9034 5.46 30.9034 4.33V4.31C30.9034 2.87 29.9134 2 28.2634 2H25.0634V9H26.6034V6.76H27.8134L29.3134 9H31.1134ZM29.3434 4.41C29.3434 5 28.9134 5.4 28.1634 5.4H26.6034V3.39H28.1334C28.8834 3.39 29.3434 3.73 29.3434 4.39V4.41ZM34.6599 9V2H33.1199V9H34.6599ZM42.2293 6.93V6.91C42.2293 5.69 41.4293 5.18 40.0093 4.81C38.7993 4.5 38.4993 4.35 38.4993 3.89V3.87C38.4993 3.53 38.8093 3.26 39.3993 3.26C39.9893 3.26 40.5993 3.52 41.2193 3.95L42.0193 2.79C41.3093 2.22 40.4393 1.9 39.4193 1.9C37.9893 1.9 36.9693 2.74 36.9693 4.01V4.03C36.9693 5.42 37.8793 5.81 39.2893 6.17C40.4593 6.47 40.6993 6.67 40.6993 7.06V7.08C40.6993 7.49 40.3193 7.74 39.6893 7.74C38.8893 7.74 38.2293 7.41 37.5993 6.89L36.6893 7.98C37.5293 8.73 38.5993 9.1 39.6593 9.1C41.1693 9.1 42.2293 8.32 42.2293 6.93ZM47.0658 6.63V5.17H43.9858V6.63H47.0658ZM55.3178 7.87L54.3378 6.88C53.7878 7.38 53.2978 7.7 52.4978 7.7C51.2978 7.7 50.4678 6.7 50.4678 5.5V5.48C50.4678 4.28 51.3178 3.3 52.4978 3.3C53.1978 3.3 53.7478 3.6 54.2878 4.09L55.2678 2.96C54.6178 2.32 53.8278 1.88 52.5078 1.88C50.3578 1.88 48.8578 3.51 48.8578 5.5V5.52C48.8578 7.53 50.3878 9.12 52.4478 9.12C53.7978 9.12 54.5978 8.64 55.3178 7.87ZM64.2453 5.5V5.48C64.2453 3.49 62.6953 1.88 60.5353 1.88C58.3753 1.88 56.8053 3.51 56.8053 5.5V5.52C56.8053 7.51 58.3553 9.12 60.5153 9.12C62.6753 9.12 64.2453 7.49 64.2453 5.5ZM62.6353 5.52C62.6353 6.72 61.7753 7.7 60.5353 7.7C59.2953 7.7 58.4153 6.7 58.4153 5.5V5.48C58.4153 4.28 59.2753 3.3 60.5153 3.3C61.7553 3.3 62.6353 4.3 62.6353 5.5V5.52ZM72.4214 9L70.7114 6.5C71.6014 6.17 72.2114 5.46 72.2114 4.33V4.31C72.2114 2.87 71.2214 2 69.5714 2H66.3714V9H67.9114V6.76H69.1214L70.6214 9H72.4214ZM70.6514 4.41C70.6514 5 70.2214 5.4 69.4714 5.4H67.9114V3.39H69.4414C70.1914 3.39 70.6514 3.73 70.6514 4.39V4.41ZM79.688 9V7.63H75.888V6.16H79.188V4.79H75.888V3.37H79.638V2H74.358V9H79.688ZM83.2672 5.24V3.64H81.6472V5.24H83.2672ZM83.2672 9V7.4H81.6472V9H83.2672Z" fill="#706E7B"/>
<rect x="0.5" y="11.5" width="17" height="23" rx="3.5" fill="#5E8F4C" stroke="white"/>
<path d="M10.6414 25.313L8.96942 20.7435C8.88709 20.5408 8.80159 20.3002 8.71292 20.0215C8.62425 19.7428 8.53559 19.442 8.44692 19.119C8.36459 19.442 8.27909 19.746 8.19042 20.031C8.10175 20.3097 8.01625 20.5535 7.93392 20.7625L6.27142 25.313H10.6414ZM15.1539 30.5H13.1779C12.9563 30.5 12.7758 30.4462 12.6364 30.3385C12.4971 30.2245 12.3926 30.0852 12.3229 29.9205L11.2969 27.118H5.60642L4.58042 29.9205C4.52975 30.0662 4.43159 30.1992 4.28592 30.3195C4.14025 30.4398 3.95975 30.5 3.74442 30.5H1.74942L7.15492 16.763H9.75792L15.1539 30.5Z" fill="white"/>
<rect width="12" height="16" transform="translate(18 15)" fill="#9ACB3E"/>
<path opacity="0.7" d="M24.2409 25.845C24.5159 25.845 24.7469 25.812 24.9339 25.746C25.1209 25.68 25.2694 25.592 25.3794 25.482C25.493 25.372 25.5737 25.2437 25.6214 25.097C25.6727 24.9503 25.6984 24.7945 25.6984 24.6295C25.6984 24.4572 25.6709 24.3032 25.6159 24.1675C25.5609 24.0282 25.4747 23.9108 25.3574 23.8155C25.24 23.7165 25.0879 23.6413 24.9009 23.59C24.7175 23.5387 24.4957 23.513 24.2354 23.513H22.7449V25.845H24.2409ZM22.7449 20.191V22.49H23.9219C24.4279 22.49 24.8092 22.3983 25.0659 22.215C25.3262 22.0317 25.4564 21.7402 25.4564 21.3405C25.4564 20.9262 25.339 20.631 25.1044 20.455C24.8697 20.279 24.503 20.191 24.0044 20.191H22.7449ZM24.0044 19.047C24.525 19.047 24.9705 19.0965 25.3409 19.1955C25.7112 19.2945 26.0137 19.4357 26.2484 19.619C26.4867 19.8023 26.6609 20.0242 26.7709 20.2845C26.8809 20.5448 26.9359 20.8382 26.9359 21.1645C26.9359 21.3515 26.9084 21.5312 26.8534 21.7035C26.7984 21.8722 26.7122 22.0317 26.5949 22.182C26.4812 22.3287 26.3345 22.4625 26.1549 22.5835C25.9789 22.7045 25.768 22.8072 25.5224 22.8915C26.615 23.1372 27.1614 23.7275 27.1614 24.6625C27.1614 24.9998 27.0972 25.3115 26.9689 25.5975C26.8406 25.8835 26.6536 26.131 26.4079 26.34C26.1622 26.5453 25.8597 26.7067 25.5004 26.824C25.141 26.9413 24.7304 27 24.2684 27H21.2654V19.047H24.0044Z" fill="white"/>
<rect width="12" height="16" transform="translate(30 15)" fill="#EAE014"/>
<path opacity="0.7" d="M38.7108 25.1245C38.7914 25.1245 38.8629 25.1557 38.9253 25.218L39.5083 25.8505C39.1856 26.2502 38.7878 26.5563 38.3148 26.769C37.8454 26.9817 37.2808 27.088 36.6208 27.088C36.0304 27.088 35.4988 26.9872 35.0258 26.7855C34.5564 26.5838 34.1549 26.3033 33.8213 25.944C33.4876 25.5847 33.2309 25.1557 33.0513 24.657C32.8753 24.1583 32.7873 23.6138 32.7873 23.0235C32.7873 22.4258 32.8826 21.8795 33.0733 21.3845C33.2639 20.8858 33.5316 20.4568 33.8763 20.0975C34.2246 19.7382 34.6389 19.4595 35.1193 19.2615C35.5996 19.0598 36.1313 18.959 36.7143 18.959C37.2936 18.959 37.8069 19.0543 38.2543 19.245C38.7053 19.4357 39.0884 19.685 39.4038 19.993L38.9088 20.6805C38.8794 20.7245 38.8409 20.763 38.7933 20.796C38.7493 20.829 38.6869 20.8455 38.6063 20.8455C38.5513 20.8455 38.4944 20.8308 38.4358 20.8015C38.3771 20.7685 38.3129 20.73 38.2433 20.686C38.1736 20.6383 38.0929 20.587 38.0013 20.532C37.9096 20.477 37.8033 20.4275 37.6823 20.3835C37.5613 20.3358 37.4201 20.2973 37.2588 20.268C37.1011 20.235 36.9178 20.2185 36.7088 20.2185C36.3531 20.2185 36.0268 20.2827 35.7298 20.411C35.4364 20.5357 35.1834 20.719 34.9708 20.961C34.7581 21.1993 34.5931 21.4927 34.4758 21.841C34.3584 22.1857 34.2998 22.5798 34.2998 23.0235C34.2998 23.4708 34.3621 23.8687 34.4868 24.217C34.6151 24.5653 34.7874 24.8587 35.0038 25.097C35.2201 25.3353 35.4749 25.5187 35.7683 25.647C36.0616 25.7717 36.3769 25.834 36.7143 25.834C36.9159 25.834 37.0974 25.823 37.2588 25.801C37.4238 25.779 37.5741 25.7442 37.7098 25.6965C37.8491 25.6488 37.9793 25.5883 38.1003 25.515C38.2249 25.438 38.3478 25.3445 38.4688 25.2345C38.5054 25.2015 38.5439 25.1758 38.5843 25.1575C38.6246 25.1355 38.6668 25.1245 38.7108 25.1245Z" fill="white"/>
<rect width="12" height="16" transform="translate(42 15)" fill="#D68429"/>
<path opacity="0.7" d="M51.7634 23.0235C51.7634 23.6065 51.6663 24.1418 51.4719 24.6295C51.2776 25.1172 51.0044 25.537 50.6524 25.889C50.3004 26.241 49.8769 26.5142 49.3819 26.7085C48.8869 26.9028 48.3369 27 47.7319 27H44.7014V19.047H47.7319C48.3369 19.047 48.8869 19.146 49.3819 19.344C49.8769 19.5383 50.3004 19.8115 50.6524 20.1635C51.0044 20.5118 51.2776 20.9298 51.4719 21.4175C51.6663 21.9052 51.7634 22.4405 51.7634 23.0235ZM50.2454 23.0235C50.2454 22.5872 50.1868 22.1967 50.0694 21.852C49.9558 21.5037 49.7889 21.2103 49.5689 20.972C49.3526 20.73 49.0886 20.5448 48.7769 20.4165C48.4689 20.2882 48.1206 20.224 47.7319 20.224H46.1864V25.823H47.7319C48.1206 25.823 48.4689 25.7588 48.7769 25.6305C49.0886 25.5022 49.3526 25.3188 49.5689 25.0805C49.7889 24.8385 49.9558 24.5452 50.0694 24.2005C50.1868 23.8522 50.2454 23.4598 50.2454 23.0235Z" fill="white"/>
<rect width="12" height="16" transform="translate(54 15)" fill="#CD4327"/>
<path opacity="0.7" d="M59.2069 20.224V22.4295H61.9899V23.568H59.2069V25.8175H62.7379V27H57.7219V19.047H62.7379V20.224H59.2069Z" fill="white"/>
</svg>
