<svg width="98" height="35" viewBox="0 0 98 35" fill="none" xmlns="http://www.w3.org/2000/svg">
<path d="M7.06 9V2H5.54V6.31L2.26 2H0.84V9H2.36V4.55L5.75 9H7.06ZM15.4904 5.95V2H13.9504V6.01C13.9504 7.12 13.3804 7.69 12.4404 7.69C11.5004 7.69 10.9304 7.1 10.9304 5.96V2H9.39039V6C9.39039 8.06 10.5404 9.11 12.4204 9.11C14.3004 9.11 15.4904 8.07 15.4904 5.95ZM23.119 3.42V2H17.319V3.42H19.449V9H20.989V3.42H23.119ZM31.1134 9L29.4034 6.5C30.2934 6.17 30.9034 5.46 30.9034 4.33V4.31C30.9034 2.87 29.9134 2 28.2634 2H25.0634V9H26.6034V6.76H27.8134L29.3134 9H31.1134ZM29.3434 4.41C29.3434 5 28.9134 5.4 28.1634 5.4H26.6034V3.39H28.1334C28.8834 3.39 29.3434 3.73 29.3434 4.39V4.41ZM34.6599 9V2H33.1199V9H34.6599ZM42.2293 6.93V6.91C42.2293 5.69 41.4293 5.18 40.0093 4.81C38.7993 4.5 38.4993 4.35 38.4993 3.89V3.87C38.4993 3.53 38.8093 3.26 39.3993 3.26C39.9893 3.26 40.5993 3.52 41.2193 3.95L42.0193 2.79C41.3093 2.22 40.4393 1.9 39.4193 1.9C37.9893 1.9 36.9693 2.74 36.9693 4.01V4.03C36.9693 5.42 37.8793 5.81 39.2893 6.17C40.4593 6.47 40.6993 6.67 40.6993 7.06V7.08C40.6993 7.49 40.3193 7.74 39.6893 7.74C38.8893 7.74 38.2293 7.41 37.5993 6.89L36.6893 7.98C37.5293 8.73 38.5993 9.1 39.6593 9.1C41.1693 9.1 42.2293 8.32 42.2293 6.93ZM47.0658 6.63V5.17H43.9858V6.63H47.0658ZM55.3178 7.87L54.3378 6.88C53.7878 7.38 53.2978 7.7 52.4978 7.7C51.2978 7.7 50.4678 6.7 50.4678 5.5V5.48C50.4678 4.28 51.3178 3.3 52.4978 3.3C53.1978 3.3 53.7478 3.6 54.2878 4.09L55.2678 2.96C54.6178 2.32 53.8278 1.88 52.5078 1.88C50.3578 1.88 48.8578 3.51 48.8578 5.5V5.52C48.8578 7.53 50.3878 9.12 52.4478 9.12C53.7978 9.12 54.5978 8.64 55.3178 7.87ZM64.2453 5.5V5.48C64.2453 3.49 62.6953 1.88 60.5353 1.88C58.3753 1.88 56.8053 3.51 56.8053 5.5V5.52C56.8053 7.51 58.3553 9.12 60.5153 9.12C62.6753 9.12 64.2453 7.49 64.2453 5.5ZM62.6353 5.52C62.6353 6.72 61.7753 7.7 60.5353 7.7C59.2953 7.7 58.4153 6.7 58.4153 5.5V5.48C58.4153 4.28 59.2753 3.3 60.5153 3.3C61.7553 3.3 62.6353 4.3 62.6353 5.5V5.52ZM72.4214 9L70.7114 6.5C71.6014 6.17 72.2114 5.46 72.2114 4.33V4.31C72.2114 2.87 71.2214 2 69.5714 2H66.3714V9H67.9114V6.76H69.1214L70.6214 9H72.4214ZM70.6514 4.41C70.6514 5 70.2214 5.4 69.4714 5.4H67.9114V3.39H69.4414C70.1914 3.39 70.6514 3.73 70.6514 4.39V4.41ZM79.688 9V7.63H75.888V6.16H79.188V4.79H75.888V3.37H79.638V2H74.358V9H79.688ZM83.2672 5.24V3.64H81.6472V5.24H83.2672ZM83.2672 9V7.4H81.6472V9H83.2672Z" fill="#706E7B"/>
<rect width="12" height="16" transform="translate(0 15)" fill="#5E8F4C"/>
<path opacity="0.7" d="M7.26865 23.997L6.30065 21.3515C6.25299 21.2342 6.20349 21.0948 6.15215 20.9335C6.10082 20.7722 6.04949 20.598 5.99815 20.411C5.95049 20.598 5.90099 20.774 5.84965 20.939C5.79832 21.1003 5.74882 21.2415 5.70115 21.3625L4.73865 23.997H7.26865ZM9.88115 27H8.73715C8.60882 27 8.50432 26.9688 8.42365 26.9065C8.34299 26.8405 8.28249 26.7598 8.24215 26.6645L7.64815 25.042H4.35365L3.75965 26.6645C3.73032 26.7488 3.67349 26.8258 3.58915 26.8955C3.50482 26.9652 3.40032 27 3.27565 27H2.12065L5.25015 19.047H6.75715L9.88115 27Z" fill="white"/>
<rect x="12.5" y="11.5" width="19" height="23" rx="3.5" fill="#9ACB3E" stroke="white"/>
<path d="M21.9161 28.005C22.3911 28.005 22.7901 27.948 23.1131 27.834C23.4361 27.72 23.6926 27.568 23.8826 27.378C24.0789 27.188 24.2182 26.9663 24.3006 26.713C24.3892 26.4597 24.4336 26.1905 24.4336 25.9055C24.4336 25.6078 24.3861 25.3418 24.2911 25.1075C24.1961 24.8668 24.0472 24.6642 23.8446 24.4995C23.6419 24.3285 23.3791 24.1987 23.0561 24.11C22.7394 24.0213 22.3562 23.977 21.9066 23.977H19.3321V28.005H21.9161ZM19.3321 18.239V22.21H21.3651C22.2391 22.21 22.8977 22.0517 23.3411 21.735C23.7907 21.4183 24.0156 20.9148 24.0156 20.2245C24.0156 19.5088 23.8129 18.999 23.4076 18.695C23.0022 18.391 22.3689 18.239 21.5076 18.239H19.3321ZM21.5076 16.263C22.4069 16.263 23.1764 16.3485 23.8161 16.5195C24.4557 16.6905 24.9782 16.9343 25.3836 17.251C25.7952 17.5677 26.0961 17.9508 26.2861 18.4005C26.4761 18.8502 26.5711 19.3568 26.5711 19.9205C26.5711 20.2435 26.5236 20.5538 26.4286 20.8515C26.3336 21.1428 26.1847 21.4183 25.9821 21.678C25.7857 21.9313 25.5324 22.1625 25.2221 22.3715C24.9181 22.5805 24.5539 22.7578 24.1296 22.9035C26.0169 23.3278 26.9606 24.3475 26.9606 25.9625C26.9606 26.5452 26.8497 27.0835 26.6281 27.5775C26.4064 28.0715 26.0834 28.499 25.6591 28.86C25.2347 29.2147 24.7122 29.4933 24.0916 29.696C23.4709 29.8987 22.7616 30 21.9636 30H16.7766V16.263H21.5076Z" fill="white"/>
<rect width="12" height="16" transform="translate(32 15)" fill="#EAE014"/>
<path opacity="0.7" d="M40.7108 25.1245C40.7914 25.1245 40.8629 25.1557 40.9253 25.218L41.5083 25.8505C41.1856 26.2502 40.7878 26.5563 40.3148 26.769C39.8454 26.9817 39.2808 27.088 38.6208 27.088C38.0304 27.088 37.4988 26.9872 37.0258 26.7855C36.5564 26.5838 36.1549 26.3033 35.8213 25.944C35.4876 25.5847 35.2309 25.1557 35.0513 24.657C34.8753 24.1583 34.7873 23.6138 34.7873 23.0235C34.7873 22.4258 34.8826 21.8795 35.0733 21.3845C35.2639 20.8858 35.5316 20.4568 35.8763 20.0975C36.2246 19.7382 36.6389 19.4595 37.1193 19.2615C37.5996 19.0598 38.1313 18.959 38.7143 18.959C39.2936 18.959 39.8069 19.0543 40.2543 19.245C40.7053 19.4357 41.0884 19.685 41.4038 19.993L40.9088 20.6805C40.8794 20.7245 40.8409 20.763 40.7933 20.796C40.7493 20.829 40.6869 20.8455 40.6063 20.8455C40.5513 20.8455 40.4944 20.8308 40.4358 20.8015C40.3771 20.7685 40.3129 20.73 40.2433 20.686C40.1736 20.6383 40.0929 20.587 40.0013 20.532C39.9096 20.477 39.8033 20.4275 39.6823 20.3835C39.5613 20.3358 39.4201 20.2973 39.2588 20.268C39.1011 20.235 38.9178 20.2185 38.7088 20.2185C38.3531 20.2185 38.0268 20.2827 37.7298 20.411C37.4364 20.5357 37.1834 20.719 36.9708 20.961C36.7581 21.1993 36.5931 21.4927 36.4758 21.841C36.3584 22.1857 36.2998 22.5798 36.2998 23.0235C36.2998 23.4708 36.3621 23.8687 36.4868 24.217C36.6151 24.5653 36.7874 24.8587 37.0038 25.097C37.2201 25.3353 37.4749 25.5187 37.7683 25.647C38.0616 25.7717 38.3769 25.834 38.7143 25.834C38.9159 25.834 39.0974 25.823 39.2588 25.801C39.4238 25.779 39.5741 25.7442 39.7098 25.6965C39.8491 25.6488 39.9793 25.5883 40.1003 25.515C40.2249 25.438 40.3478 25.3445 40.4688 25.2345C40.5054 25.2015 40.5439 25.1758 40.5843 25.1575C40.6246 25.1355 40.6668 25.1245 40.7108 25.1245Z" fill="white"/>
<rect width="12" height="16" transform="translate(44 15)" fill="#D68429"/>
<path opacity="0.7" d="M53.7634 23.0235C53.7634 23.6065 53.6663 24.1418 53.4719 24.6295C53.2776 25.1172 53.0044 25.537 52.6524 25.889C52.3004 26.241 51.8769 26.5142 51.3819 26.7085C50.8869 26.9028 50.3369 27 49.7319 27H46.7014V19.047H49.7319C50.3369 19.047 50.8869 19.146 51.3819 19.344C51.8769 19.5383 52.3004 19.8115 52.6524 20.1635C53.0044 20.5118 53.2776 20.9298 53.4719 21.4175C53.6663 21.9052 53.7634 22.4405 53.7634 23.0235ZM52.2454 23.0235C52.2454 22.5872 52.1868 22.1967 52.0694 21.852C51.9558 21.5037 51.7889 21.2103 51.5689 20.972C51.3526 20.73 51.0886 20.5448 50.7769 20.4165C50.4689 20.2882 50.1206 20.224 49.7319 20.224H48.1864V25.823H49.7319C50.1206 25.823 50.4689 25.7588 50.7769 25.6305C51.0886 25.5022 51.3526 25.3188 51.5689 25.0805C51.7889 24.8385 51.9558 24.5452 52.0694 24.2005C52.1868 23.8522 52.2454 23.4598 52.2454 23.0235Z" fill="white"/>
<rect width="12" height="16" transform="translate(56 15)" fill="#CD4327"/>
<path opacity="0.7" d="M61.2069 20.224V22.4295H63.9899V23.568H61.2069V25.8175H64.7379V27H59.7219V19.047H64.7379V20.224H61.2069Z" fill="white"/>
</svg>
