<svg width="98" height="35" viewBox="0 0 98 35" fill="none" xmlns="http://www.w3.org/2000/svg">
<path d="M7.06 9V2H5.54V6.31L2.26 2H0.84V9H2.36V4.55L5.75 9H7.06ZM15.4904 5.95V2H13.9504V6.01C13.9504 7.12 13.3804 7.69 12.4404 7.69C11.5004 7.69 10.9304 7.1 10.9304 5.96V2H9.39039V6C9.39039 8.06 10.5404 9.11 12.4204 9.11C14.3004 9.11 15.4904 8.07 15.4904 5.95ZM23.119 3.42V2H17.319V3.42H19.449V9H20.989V3.42H23.119ZM31.1134 9L29.4034 6.5C30.2934 6.17 30.9034 5.46 30.9034 4.33V4.31C30.9034 2.87 29.9134 2 28.2634 2H25.0634V9H26.6034V6.76H27.8134L29.3134 9H31.1134ZM29.3434 4.41C29.3434 5 28.9134 5.4 28.1634 5.4H26.6034V3.39H28.1334C28.8834 3.39 29.3434 3.73 29.3434 4.39V4.41ZM34.6599 9V2H33.1199V9H34.6599ZM39.9093 6.63V5.17H36.8293V6.63H39.9093ZM47.0713 6.93V6.91C47.0713 5.69 46.2713 5.18 44.8513 4.81C43.6413 4.5 43.3413 4.35 43.3413 3.89V3.87C43.3413 3.53 43.6513 3.26 44.2413 3.26C44.8313 3.26 45.4413 3.52 46.0613 3.95L46.8613 2.79C46.1513 2.22 45.2813 1.9 44.2613 1.9C42.8313 1.9 41.8113 2.74 41.8113 4.01V4.03C41.8113 5.42 42.7213 5.81 44.1313 6.17C45.3013 6.47 45.5413 6.67 45.5413 7.06V7.08C45.5413 7.49 45.1613 7.74 44.5313 7.74C43.7313 7.74 43.0713 7.41 42.4413 6.89L41.5313 7.98C42.3713 8.73 43.4413 9.1 44.5013 9.1C46.0113 9.1 47.0713 8.32 47.0713 6.93ZM55.3178 7.87L54.3378 6.88C53.7878 7.38 53.2978 7.7 52.4978 7.7C51.2978 7.7 50.4678 6.7 50.4678 5.5V5.48C50.4678 4.28 51.3178 3.3 52.4978 3.3C53.1978 3.3 53.7478 3.6 54.2878 4.09L55.2678 2.96C54.6178 2.32 53.8278 1.88 52.5078 1.88C50.3578 1.88 48.8578 3.51 48.8578 5.5V5.52C48.8578 7.53 50.3878 9.12 52.4478 9.12C53.7978 9.12 54.5978 8.64 55.3178 7.87ZM64.2453 5.5V5.48C64.2453 3.49 62.6953 1.88 60.5353 1.88C58.3753 1.88 56.8053 3.51 56.8053 5.5V5.52C56.8053 7.51 58.3553 9.12 60.5153 9.12C62.6753 9.12 64.2453 7.49 64.2453 5.5ZM62.6353 5.52C62.6353 6.72 61.7753 7.7 60.5353 7.7C59.2953 7.7 58.4153 6.7 58.4153 5.5V5.48C58.4153 4.28 59.2753 3.3 60.5153 3.3C61.7553 3.3 62.6353 4.3 62.6353 5.5V5.52ZM72.4214 9L70.7114 6.5C71.6014 6.17 72.2114 5.46 72.2114 4.33V4.31C72.2114 2.87 71.2214 2 69.5714 2H66.3714V9H67.9114V6.76H69.1214L70.6214 9H72.4214ZM70.6514 4.41C70.6514 5 70.2214 5.4 69.4714 5.4H67.9114V3.39H69.4414C70.1914 3.39 70.6514 3.73 70.6514 4.39V4.41ZM79.688 9V7.63H75.888V6.16H79.188V4.79H75.888V3.37H79.638V2H74.358V9H79.688ZM83.2672 5.24V3.64H81.6472V5.24H83.2672ZM83.2672 9V7.4H81.6472V9H83.2672Z" fill="#706E7B"/>
<rect width="12" height="16" transform="translate(0 15)" fill="#5E8F4C"/>
<path opacity="0.7" d="M7.26865 23.997L6.30065 21.3515C6.25299 21.2342 6.20349 21.0948 6.15215 20.9335C6.10082 20.7722 6.04949 20.598 5.99815 20.411C5.95049 20.598 5.90099 20.774 5.84965 20.939C5.79832 21.1003 5.74882 21.2415 5.70115 21.3625L4.73865 23.997H7.26865ZM9.88115 27H8.73715C8.60882 27 8.50432 26.9688 8.42365 26.9065C8.34299 26.8405 8.28249 26.7598 8.24215 26.6645L7.64815 25.042H4.35365L3.75965 26.6645C3.73032 26.7488 3.67349 26.8258 3.58915 26.8955C3.50482 26.9652 3.40032 27 3.27565 27H2.12065L5.25015 19.047H6.75715L9.88115 27Z" fill="white"/>
<rect width="12" height="16" transform="translate(12 15)" fill="#9ACB3E"/>
<path opacity="0.7" d="M18.2409 25.845C18.5159 25.845 18.7469 25.812 18.9339 25.746C19.1209 25.68 19.2694 25.592 19.3794 25.482C19.493 25.372 19.5737 25.2437 19.6214 25.097C19.6727 24.9503 19.6984 24.7945 19.6984 24.6295C19.6984 24.4572 19.6709 24.3032 19.6159 24.1675C19.5609 24.0282 19.4747 23.9108 19.3574 23.8155C19.24 23.7165 19.0879 23.6413 18.9009 23.59C18.7175 23.5387 18.4957 23.513 18.2354 23.513H16.7449V25.845H18.2409ZM16.7449 20.191V22.49H17.9219C18.4279 22.49 18.8092 22.3983 19.0659 22.215C19.3262 22.0317 19.4564 21.7402 19.4564 21.3405C19.4564 20.9262 19.339 20.631 19.1044 20.455C18.8697 20.279 18.503 20.191 18.0044 20.191H16.7449ZM18.0044 19.047C18.525 19.047 18.9705 19.0965 19.3409 19.1955C19.7112 19.2945 20.0137 19.4357 20.2484 19.619C20.4867 19.8023 20.6609 20.0242 20.7709 20.2845C20.8809 20.5448 20.9359 20.8382 20.9359 21.1645C20.9359 21.3515 20.9084 21.5312 20.8534 21.7035C20.7984 21.8722 20.7122 22.0317 20.5949 22.182C20.4812 22.3287 20.3345 22.4625 20.1549 22.5835C19.9789 22.7045 19.768 22.8072 19.5224 22.8915C20.615 23.1372 21.1614 23.7275 21.1614 24.6625C21.1614 24.9998 21.0972 25.3115 20.9689 25.5975C20.8406 25.8835 20.6536 26.131 20.4079 26.34C20.1622 26.5453 19.8597 26.7067 19.5004 26.824C19.141 26.9413 18.7304 27 18.2684 27H15.2654V19.047H18.0044Z" fill="white"/>
<rect x="24.5" y="11.5" width="19" height="23" rx="3.5" fill="#EAE014" stroke="white"/>
<path d="M38.1822 26.7605C38.3216 26.7605 38.4451 26.8143 38.5527 26.922L39.5597 28.0145C39.0024 28.7048 38.3152 29.2337 37.4982 29.601C36.6876 29.9683 35.7122 30.152 34.5722 30.152C33.5526 30.152 32.6342 29.9778 31.8172 29.6295C31.0066 29.2812 30.3131 28.7967 29.7367 28.176C29.1604 27.5553 28.7171 26.8143 28.4067 25.953C28.1027 25.0917 27.9507 24.1512 27.9507 23.1315C27.9507 22.0992 28.1154 21.1555 28.4447 20.3005C28.7741 19.4392 29.2364 18.6982 29.8317 18.0775C30.4334 17.4568 31.1491 16.9755 31.9787 16.6335C32.8084 16.2852 33.7267 16.111 34.7337 16.111C35.7344 16.111 36.6211 16.2757 37.3937 16.605C38.1727 16.9343 38.8346 17.365 39.3792 17.897L38.5242 19.0845C38.4736 19.1605 38.4071 19.227 38.3247 19.284C38.2487 19.341 38.1411 19.3695 38.0017 19.3695C37.9067 19.3695 37.8086 19.3442 37.7072 19.2935C37.6059 19.2365 37.4951 19.17 37.3747 19.094C37.2544 19.0117 37.1151 18.923 36.9567 18.828C36.7984 18.733 36.6147 18.6475 36.4057 18.5715C36.1967 18.4892 35.9529 18.4227 35.6742 18.372C35.4019 18.315 35.0852 18.2865 34.7242 18.2865C34.1099 18.2865 33.5462 18.3973 33.0332 18.619C32.5266 18.8343 32.0896 19.151 31.7222 19.569C31.3549 19.9807 31.0699 20.4873 30.8672 21.089C30.6646 21.6843 30.5632 22.3652 30.5632 23.1315C30.5632 23.9042 30.6709 24.5913 30.8862 25.193C31.1079 25.7947 31.4056 26.3013 31.7792 26.713C32.1529 27.1247 32.5931 27.4413 33.0997 27.663C33.6064 27.8783 34.1511 27.986 34.7337 27.986C35.0821 27.986 35.3956 27.967 35.6742 27.929C35.9592 27.891 36.2189 27.8308 36.4532 27.7485C36.6939 27.6662 36.9187 27.5617 37.1277 27.435C37.3431 27.302 37.5552 27.1405 37.7642 26.9505C37.8276 26.8935 37.8941 26.8492 37.9637 26.8175C38.0334 26.7795 38.1062 26.7605 38.1822 26.7605Z" fill="white"/>
<rect width="12" height="16" transform="translate(44 15)" fill="#D68429"/>
<path opacity="0.7" d="M53.7634 23.0235C53.7634 23.6065 53.6663 24.1418 53.4719 24.6295C53.2776 25.1172 53.0044 25.537 52.6524 25.889C52.3004 26.241 51.8769 26.5142 51.3819 26.7085C50.8869 26.9028 50.3369 27 49.7319 27H46.7014V19.047H49.7319C50.3369 19.047 50.8869 19.146 51.3819 19.344C51.8769 19.5383 52.3004 19.8115 52.6524 20.1635C53.0044 20.5118 53.2776 20.9298 53.4719 21.4175C53.6663 21.9052 53.7634 22.4405 53.7634 23.0235ZM52.2454 23.0235C52.2454 22.5872 52.1868 22.1967 52.0694 21.852C51.9558 21.5037 51.7889 21.2103 51.5689 20.972C51.3526 20.73 51.0886 20.5448 50.7769 20.4165C50.4689 20.2882 50.1206 20.224 49.7319 20.224H48.1864V25.823H49.7319C50.1206 25.823 50.4689 25.7588 50.7769 25.6305C51.0886 25.5022 51.3526 25.3188 51.5689 25.0805C51.7889 24.8385 51.9558 24.5452 52.0694 24.2005C52.1868 23.8522 52.2454 23.4598 52.2454 23.0235Z" fill="white"/>
<rect width="12" height="16" transform="translate(56 15)" fill="#CD4327"/>
<path opacity="0.7" d="M61.2069 20.224V22.4295H63.9899V23.568H61.2069V25.8175H64.7379V27H59.7219V19.047H64.7379V20.224H61.2069Z" fill="white"/>
</svg>
