<svg width="98" height="35" viewBox="0 0 98 35" fill="none" xmlns="http://www.w3.org/2000/svg">
<path d="M7.06 9V2H5.54V6.31L2.26 2H0.84V9H2.36V4.55L5.75 9H7.06ZM15.4904 5.95V2H13.9504V6.01C13.9504 7.12 13.3804 7.69 12.4404 7.69C11.5004 7.69 10.9304 7.1 10.9304 5.96V2H9.39039V6C9.39039 8.06 10.5404 9.11 12.4204 9.11C14.3004 9.11 15.4904 8.07 15.4904 5.95ZM23.119 3.42V2H17.319V3.42H19.449V9H20.989V3.42H23.119ZM31.1134 9L29.4034 6.5C30.2934 6.17 30.9034 5.46 30.9034 4.33V4.31C30.9034 2.87 29.9134 2 28.2634 2H25.0634V9H26.6034V6.76H27.8134L29.3134 9H31.1134ZM29.3434 4.41C29.3434 5 28.9134 5.4 28.1634 5.4H26.6034V3.39H28.1334C28.8834 3.39 29.3434 3.73 29.3434 4.39V4.41ZM34.6599 9V2H33.1199V9H34.6599ZM42.2293 6.93V6.91C42.2293 5.69 41.4293 5.18 40.0093 4.81C38.7993 4.5 38.4993 4.35 38.4993 3.89V3.87C38.4993 3.53 38.8093 3.26 39.3993 3.26C39.9893 3.26 40.5993 3.52 41.2193 3.95L42.0193 2.79C41.3093 2.22 40.4393 1.9 39.4193 1.9C37.9893 1.9 36.9693 2.74 36.9693 4.01V4.03C36.9693 5.42 37.8793 5.81 39.2893 6.17C40.4593 6.47 40.6993 6.67 40.6993 7.06V7.08C40.6993 7.49 40.3193 7.74 39.6893 7.74C38.8893 7.74 38.2293 7.41 37.5993 6.89L36.6893 7.98C37.5293 8.73 38.5993 9.1 39.6593 9.1C41.1693 9.1 42.2293 8.32 42.2293 6.93ZM47.0658 6.63V5.17H43.9858V6.63H47.0658ZM55.3178 7.87L54.3378 6.88C53.7878 7.38 53.2978 7.7 52.4978 7.7C51.2978 7.7 50.4678 6.7 50.4678 5.5V5.48C50.4678 4.28 51.3178 3.3 52.4978 3.3C53.1978 3.3 53.7478 3.6 54.2878 4.09L55.2678 2.96C54.6178 2.32 53.8278 1.88 52.5078 1.88C50.3578 1.88 48.8578 3.51 48.8578 5.5V5.52C48.8578 7.53 50.3878 9.12 52.4478 9.12C53.7978 9.12 54.5978 8.64 55.3178 7.87ZM64.2453 5.5V5.48C64.2453 3.49 62.6953 1.88 60.5353 1.88C58.3753 1.88 56.8053 3.51 56.8053 5.5V5.52C56.8053 7.51 58.3553 9.12 60.5153 9.12C62.6753 9.12 64.2453 7.49 64.2453 5.5ZM62.6353 5.52C62.6353 6.72 61.7753 7.7 60.5353 7.7C59.2953 7.7 58.4153 6.7 58.4153 5.5V5.48C58.4153 4.28 59.2753 3.3 60.5153 3.3C61.7553 3.3 62.6353 4.3 62.6353 5.5V5.52ZM72.4214 9L70.7114 6.5C71.6014 6.17 72.2114 5.46 72.2114 4.33V4.31C72.2114 2.87 71.2214 2 69.5714 2H66.3714V9H67.9114V6.76H69.1214L70.6214 9H72.4214ZM70.6514 4.41C70.6514 5 70.2214 5.4 69.4714 5.4H67.9114V3.39H69.4414C70.1914 3.39 70.6514 3.73 70.6514 4.39V4.41ZM79.688 9V7.63H75.888V6.16H79.188V4.79H75.888V3.37H79.638V2H74.358V9H79.688ZM83.2672 5.24V3.64H81.6472V5.24H83.2672ZM83.2672 9V7.4H81.6472V9H83.2672Z" fill="#706E7B"/>
<rect width="12" height="16" transform="translate(0 15)" fill="#5E8F4C"/>
<path opacity="0.7" d="M7.26865 23.997L6.30065 21.3515C6.25299 21.2342 6.20349 21.0948 6.15215 20.9335C6.10082 20.7722 6.04949 20.598 5.99815 20.411C5.95049 20.598 5.90099 20.774 5.84965 20.939C5.79832 21.1003 5.74882 21.2415 5.70115 21.3625L4.73865 23.997H7.26865ZM9.88115 27H8.73715C8.60882 27 8.50432 26.9688 8.42365 26.9065C8.34299 26.8405 8.28249 26.7598 8.24215 26.6645L7.64815 25.042H4.35365L3.75965 26.6645C3.73032 26.7488 3.67349 26.8258 3.58915 26.8955C3.50482 26.9652 3.40032 27 3.27565 27H2.12065L5.25015 19.047H6.75715L9.88115 27Z" fill="white"/>
<rect width="12" height="16" transform="translate(12 15)" fill="#9ACB3E"/>
<path opacity="0.7" d="M18.2409 25.845C18.5159 25.845 18.7469 25.812 18.9339 25.746C19.1209 25.68 19.2694 25.592 19.3794 25.482C19.493 25.372 19.5737 25.2437 19.6214 25.097C19.6727 24.9503 19.6984 24.7945 19.6984 24.6295C19.6984 24.4572 19.6709 24.3032 19.6159 24.1675C19.5609 24.0282 19.4747 23.9108 19.3574 23.8155C19.24 23.7165 19.0879 23.6413 18.9009 23.59C18.7175 23.5387 18.4957 23.513 18.2354 23.513H16.7449V25.845H18.2409ZM16.7449 20.191V22.49H17.9219C18.4279 22.49 18.8092 22.3983 19.0659 22.215C19.3262 22.0317 19.4564 21.7402 19.4564 21.3405C19.4564 20.9262 19.339 20.631 19.1044 20.455C18.8697 20.279 18.503 20.191 18.0044 20.191H16.7449ZM18.0044 19.047C18.525 19.047 18.9705 19.0965 19.3409 19.1955C19.7112 19.2945 20.0137 19.4357 20.2484 19.619C20.4867 19.8023 20.6609 20.0242 20.7709 20.2845C20.8809 20.5448 20.9359 20.8382 20.9359 21.1645C20.9359 21.3515 20.9084 21.5312 20.8534 21.7035C20.7984 21.8722 20.7122 22.0317 20.5949 22.182C20.4812 22.3287 20.3345 22.4625 20.1549 22.5835C19.9789 22.7045 19.768 22.8072 19.5224 22.8915C20.615 23.1372 21.1614 23.7275 21.1614 24.6625C21.1614 24.9998 21.0972 25.3115 20.9689 25.5975C20.8406 25.8835 20.6536 26.131 20.4079 26.34C20.1622 26.5453 19.8597 26.7067 19.5004 26.824C19.141 26.9413 18.7304 27 18.2684 27H15.2654V19.047H18.0044Z" fill="white"/>
<rect width="12" height="16" transform="translate(24 15)" fill="#EAE014"/>
<path opacity="0.7" d="M32.7108 25.1245C32.7914 25.1245 32.8629 25.1557 32.9253 25.218L33.5083 25.8505C33.1856 26.2502 32.7878 26.5563 32.3148 26.769C31.8454 26.9817 31.2808 27.088 30.6208 27.088C30.0304 27.088 29.4988 26.9872 29.0258 26.7855C28.5564 26.5838 28.1549 26.3033 27.8213 25.944C27.4876 25.5847 27.2309 25.1557 27.0513 24.657C26.8753 24.1583 26.7873 23.6138 26.7873 23.0235C26.7873 22.4258 26.8826 21.8795 27.0733 21.3845C27.2639 20.8858 27.5316 20.4568 27.8763 20.0975C28.2246 19.7382 28.6389 19.4595 29.1193 19.2615C29.5996 19.0598 30.1313 18.959 30.7143 18.959C31.2936 18.959 31.8069 19.0543 32.2543 19.245C32.7053 19.4357 33.0884 19.685 33.4038 19.993L32.9088 20.6805C32.8794 20.7245 32.8409 20.763 32.7933 20.796C32.7493 20.829 32.6869 20.8455 32.6063 20.8455C32.5513 20.8455 32.4944 20.8308 32.4358 20.8015C32.3771 20.7685 32.3129 20.73 32.2433 20.686C32.1736 20.6383 32.0929 20.587 32.0013 20.532C31.9096 20.477 31.8033 20.4275 31.6823 20.3835C31.5613 20.3358 31.4201 20.2973 31.2588 20.268C31.1011 20.235 30.9178 20.2185 30.7088 20.2185C30.3531 20.2185 30.0268 20.2827 29.7298 20.411C29.4364 20.5357 29.1834 20.719 28.9708 20.961C28.7581 21.1993 28.5931 21.4927 28.4758 21.841C28.3584 22.1857 28.2998 22.5798 28.2998 23.0235C28.2998 23.4708 28.3621 23.8687 28.4868 24.217C28.6151 24.5653 28.7874 24.8587 29.0038 25.097C29.2201 25.3353 29.4749 25.5187 29.7683 25.647C30.0616 25.7717 30.3769 25.834 30.7143 25.834C30.9159 25.834 31.0974 25.823 31.2588 25.801C31.4238 25.779 31.5741 25.7442 31.7098 25.6965C31.8491 25.6488 31.9793 25.5883 32.1003 25.515C32.2249 25.438 32.3478 25.3445 32.4688 25.2345C32.5054 25.2015 32.5439 25.1758 32.5843 25.1575C32.6246 25.1355 32.6668 25.1245 32.7108 25.1245Z" fill="white"/>
<rect x="36.5" y="11.5" width="19" height="23" rx="3.5" fill="#D68429" stroke="white"/>
<path d="M52.5004 23.1315C52.5004 24.1385 52.3326 25.0632 51.9969 25.9055C51.6613 26.7478 51.1894 27.473 50.5814 28.081C49.9734 28.689 49.2419 29.1608 48.387 29.4965C47.5319 29.8322 46.5819 30 45.5369 30H40.3024V16.263H45.5369C46.5819 16.263 47.5319 16.434 48.387 16.776C49.2419 17.1117 49.9734 17.5835 50.5814 18.1915C51.1894 18.7932 51.6613 19.5152 51.9969 20.3575C52.3326 21.1998 52.5004 22.1245 52.5004 23.1315ZM49.8784 23.1315C49.8784 22.3778 49.7771 21.7033 49.5745 21.108C49.3781 20.5063 49.0899 19.9997 48.7099 19.588C48.3363 19.17 47.8803 18.8502 47.3419 18.6285C46.8099 18.4068 46.2083 18.296 45.5369 18.296H42.8674V27.967H45.5369C46.2083 27.967 46.8099 27.8562 47.3419 27.6345C47.8803 27.4128 48.3363 27.0962 48.7099 26.6845C49.0899 26.2665 49.3781 25.7598 49.5745 25.1645C49.7771 24.5628 49.8784 23.8852 49.8784 23.1315Z" fill="white"/>
<rect width="12" height="16" transform="translate(56 15)" fill="#CD4327"/>
<path opacity="0.7" d="M61.2069 20.224V22.4295H63.9899V23.568H61.2069V25.8175H64.7379V27H59.7219V19.047H64.7379V20.224H61.2069Z" fill="white"/>
</svg>
