<svg width="37" height="40" viewBox="0 0 37 40" fill="none" xmlns="http://www.w3.org/2000/svg">
<g clip-path="url(#clip0)">
<path d="M4 29.5V31.5H8V29.5H4ZM4 25.5V27.5H14V25.5H4ZM10 29.5V31.5H14V29.5H10ZM16 25.5V27.5H20V25.5H16ZM16 29.5V31.5H20V29.5H16ZM2 33.5V19.5L7 23.5V19.5L12 23.5V19.5L17 23.5L18 13.5H21L21.5 23.5V33.5H2Z" fill="#A6DB12"/>
<path d="M26.5 9.5C28.7091 9.5 30.5 7.70914 30.5 5.5C30.5 3.29086 28.7091 1.5 26.5 1.5C24.2909 1.5 22.5 3.29086 22.5 5.5C22.5 7.70914 24.2909 9.5 26.5 9.5Z" fill="#A6DB12"/>
<path d="M35.1035 25.1197C34.9956 25.0385 34.8742 24.9822 34.7466 24.9542C34.6189 24.9261 34.4875 24.9269 34.3602 24.9564C34.2328 24.9859 34.1119 25.0436 34.0047 25.1261C33.8975 25.2085 33.8062 25.3141 33.7359 25.4366C32.7916 27.0009 31.6347 28.3908 30.3071 29.556C29.9848 29.8292 28.7832 30.8672 28.2753 30.6487C27.8213 30.4936 28.357 27.9237 28.4222 27.6001C28.5692 26.8708 30.376 13.9416 30.3563 13.1767C30.3367 12.4118 30.6982 9.05727 27.9337 9.54898C27.1815 9.63639 19.5522 10.74 19.4154 10.7509C19.2871 10.7603 19.1618 10.7978 19.0464 10.8613C18.9311 10.9248 18.8281 11.0131 18.7433 11.1212C18.6585 11.2293 18.5935 11.3549 18.5521 11.4911C18.5107 11.6272 18.4937 11.7711 18.5021 11.9146C18.5104 12.0581 18.5439 12.1984 18.6007 12.3274C18.6575 12.4564 18.7365 12.5716 18.8331 12.6665C18.9297 12.7614 19.042 12.834 19.1638 12.8803C19.2855 12.9266 19.4141 12.9456 19.5424 12.9363C19.5424 12.9363 22.473 12.5102 22.7954 12.4774C22.9605 12.4593 23.1268 12.4951 23.2741 12.5804C23.4214 12.6658 23.5435 12.7969 23.6257 12.9582C23.8027 13.5702 23.5768 14.0727 23.5573 14.8266C23.5379 15.5806 22.0136 28.5726 21.8866 29.3047C21.7504 29.9173 21.7882 30.5622 21.9948 31.1497C22.2014 31.7372 22.5664 32.2381 23.0393 32.5828C23.9268 33.2444 24.9835 33.5629 26.048 33.4897C27.0831 33.4755 28.1067 33.2458 29.0665 32.8122C31.4989 31.7195 34.0388 28.813 35.3771 26.5293C35.4923 26.2973 35.5281 26.0262 35.4778 25.7669C35.4274 25.5075 35.2944 25.2774 35.1035 25.1197Z" fill="#A6DB12"/>
</g>
<defs>
<clipPath id="clip0">
<rect width="36" height="40" fill="white" transform="translate(0.5)"/>
</clipPath>
</defs>
</svg>
