<svg width="53" height="42" viewBox="0 0 53 42" fill="none" xmlns="http://www.w3.org/2000/svg">
<g clip-path="url(#clip0)">
<path d="M33.2369 33.3124L29.9 29.842L31.6475 28.022L33.2369 29.6775L39.4263 23.2508L41.1702 25.0721L33.2369 33.3112V33.3124ZM28.2933 30.2135H17.1702V27.6428H28.2933V30.2135ZM33.2369 25.0721H17.1702V22.5015H33.2369V25.0721ZM33.2369 19.9308H17.1702V17.3601H33.2369V19.9308Z" fill="#FCFEF6"/>
<path d="M19.1702 12.68H15.1702V8.52002C14.1702 8.52002 13.6702 8.52002 12.6702 8.52002V12.68H8.67017L8.67016 15.28H12.6702V19.44H15.1702V15.28C15.1702 15.28 17.939 15.28 19.1702 15.28C19.1702 14.24 19.1702 13.2 19.1702 12.68Z" fill="#FCFEF6"/>
</g>
<defs>
<clipPath id="clip0">
<rect width="34" height="26" fill="white" transform="translate(8.17017 8)"/>
</clipPath>
</defs>
</svg>
