<svg width="36" height="36" viewBox="0 0 36 36" fill="none" xmlns="http://www.w3.org/2000/svg">
<path d="M17.766 1.75C16.9968 1.75 16.2325 2.00846 15.574 2.48108L13.5359 3.90385L11.1876 4.21154H11.1494L11.1113 4.24969C10.3411 4.42362 9.63599 4.81226 9.07768 5.37057C8.51938 5.92888 8.13073 6.63398 7.95681 7.40415L7.91989 7.44231V7.48046L7.61219 9.86569L6.18942 11.7118L6.15004 11.75V11.7882C5.28973 13.1629 5.25158 14.9377 6.18942 16.2497L7.65035 18.2878L8.03558 20.4048L4.07373 26.4417L2.80481 28.3272H8.68912L10.1119 31.6343L10.9968 33.75L12.2657 31.8263L16.15 25.9802C17.1937 26.4085 18.3716 26.4478 19.382 25.9802L23.2663 31.8263L24.5353 33.75L25.4202 31.6343L26.843 28.3272H32.7273L31.4583 26.4417L27.6122 20.5968L27.9199 18.2891L29.3427 16.2509L29.382 16.2128V16.1746C30.2423 14.7998 30.2805 13.0632 29.3427 11.7512L27.9199 9.71185L27.4583 7.40415H27.4965C27.4916 7.37462 27.4633 7.35492 27.4583 7.32662C27.2368 5.71677 25.963 4.40969 24.3433 4.21154H24.3039L21.9962 3.90385L19.958 2.48108C19.3215 2.01476 18.5551 1.75914 17.766 1.75ZM17.766 4.24969C18.0491 4.24969 18.3285 4.33585 18.5353 4.48108L20.7273 6.05769L20.9968 6.24969L21.3045 6.28908L23.9974 6.67308H24.0343C24.5882 6.73462 24.9722 7.11985 25.035 7.67369V7.75L25.5359 10.4811L25.5728 10.7506L25.766 10.9808L27.3427 13.1728C27.6368 13.5814 27.675 14.2743 27.3045 14.8651L25.574 17.2885L25.5347 17.5962L25.1507 20.2891V20.326C25.1302 20.5183 25.0644 20.7031 24.9587 20.8651L24.8811 20.9045V20.9414C24.6982 21.1611 24.4359 21.2996 24.1513 21.3266H24.0737L21.2663 21.8275L20.9587 21.8645L20.7273 22.0577L18.5353 23.6343C18.1267 23.9285 17.3956 23.9666 16.8048 23.5962L14.8048 22.0577L14.5734 21.8657L14.2276 21.8263L11.5347 21.4423H11.4977C11.3237 21.4269 11.1559 21.37 11.0085 21.2761C10.8612 21.1823 10.7385 21.0544 10.651 20.9032C10.5692 20.7613 10.5169 20.6043 10.4971 20.4417V20.3654L9.99742 17.558L9.95804 17.2503L9.76604 17.0189L8.18942 14.8269C7.89527 14.4183 7.85712 13.6872 8.22758 13.0965L9.76604 11.0965L9.95804 10.8651L9.99619 10.5192L10.3433 7.942C10.3482 7.92354 10.3765 7.92354 10.3814 7.90385C10.4582 7.60757 10.6127 7.33721 10.8291 7.1208C11.0456 6.90439 11.3159 6.74981 11.6122 6.67308C11.6319 6.66815 11.6319 6.63985 11.6503 6.63492L14.2276 6.28785L14.5353 6.25092L14.8048 6.05769L16.9968 4.48108C17.2036 4.33708 17.483 4.24969 17.766 4.24969ZM26.2657 22.9808L28.1513 25.8657H25.1876L24.8799 26.6349L24.0343 28.5955L21.419 24.5955L21.995 24.1734L24.4196 23.75V23.7882C24.4479 23.7832 24.4663 23.7549 24.4959 23.75C25.1437 23.6565 25.7545 23.3909 26.2645 22.9808H26.2657ZM9.26635 23.0189C9.80078 23.5048 10.4722 23.8138 11.1888 23.9038H11.227L13.574 24.2115L14.1119 24.6349L11.4965 28.5955L10.651 26.6349L10.3433 25.8657H7.38204L9.26635 23.0189Z" fill="#A6DB12"/>
</svg>
