<svg width="39" height="35" viewBox="0 0 39 35" fill="none" xmlns="http://www.w3.org/2000/svg">
<path d="M8.472 11V2.6H6.648V7.772L2.712 2.6H1.008V11H2.832V5.66L6.9 11H8.472ZM19.8045 6.8V6.776C19.8045 4.388 17.9445 2.456 15.3525 2.456C12.7605 2.456 10.8765 4.412 10.8765 6.8V6.824C10.8765 9.212 12.7365 11.144 15.3285 11.144C17.9205 11.144 19.8045 9.188 19.8045 6.8ZM17.8725 6.824C17.8725 8.264 16.8405 9.44 15.3525 9.44C13.8645 9.44 12.8085 8.24 12.8085 6.8V6.776C12.8085 5.336 13.8405 4.16 15.3285 4.16C16.8165 4.16 17.8725 5.36 17.8725 6.8V6.824ZM29.3687 2.6H27.3767L25.1807 8.516L22.9847 2.6H20.9447L24.3407 11.06H25.9727L29.3687 2.6ZM38.4134 11L34.8134 2.54H33.1094L29.5094 11H31.3934L32.1614 9.116H35.7134L36.4814 11H38.4134ZM35.0534 7.484H32.8214L33.9374 4.76L35.0534 7.484Z" fill="#767676"/>
<path d="M20.6252 20C20.3268 20 20.0406 20.1185 19.8297 20.3295C19.6187 20.5405 19.5002 20.8266 19.5002 21.125C19.5002 21.4234 19.6187 21.7095 19.8297 21.9205C20.0406 22.1315 20.3268 22.25 20.6252 22.25C20.9235 22.25 21.2097 22.1315 21.4207 21.9205C21.6316 21.7095 21.7502 21.4234 21.7502 21.125C21.7502 20.8266 21.6316 20.5405 21.4207 20.3295C21.2097 20.1185 20.9235 20 20.6252 20ZM20.3552 23.5775C19.4627 23.6525 17.0252 25.595 17.0252 25.595C16.8752 25.7075 16.9202 25.7 17.0402 25.91C17.1602 26.1125 17.1452 26.1275 17.2877 26.03C17.4377 25.9325 17.6852 25.775 18.0977 25.52C19.6877 24.5 18.3527 26.855 17.6702 30.8225C17.4002 32.7875 19.1702 31.775 19.6277 31.475C20.0777 31.1825 21.2852 30.35 21.4052 30.2675C21.5702 30.155 21.4502 30.065 21.3227 29.8775C21.2327 29.75 21.1427 29.84 21.1427 29.84C20.6552 30.1625 19.7627 30.8375 19.6427 30.41C19.5002 29.9825 20.4152 27.05 20.9177 25.0325C21.0002 24.5525 21.2252 23.5025 20.3552 23.5775Z" fill="#B0E9FC"/>
<rect x="11" y="17.5" width="17" height="17" rx="8.5" stroke="#B0E9FC"/>
</svg>
