<svg width="19" height="24" viewBox="0 0 19 24" fill="none" xmlns="http://www.w3.org/2000/svg">
<rect x="0.5" y="0.5" width="18" height="23" rx="3.5" fill="#EAE014" stroke="white"/>
<path d="M13.0788 17.315C13.3321 17.315 13.5316 17.3878 13.6773 17.5335C13.8293 17.6728 13.9053 17.8597 13.9053 18.094V19.5H4.48128V18.721C4.48128 18.5627 4.51294 18.398 4.57628 18.227C4.64594 18.0497 4.75361 17.8913 4.89928 17.752L9.06978 13.572C9.41811 13.2173 9.72844 12.8785 10.0008 12.5555C10.2794 12.2325 10.5106 11.9127 10.6943 11.596C10.8779 11.2793 11.0173 10.9595 11.1123 10.6365C11.2136 10.3072 11.2643 9.962 11.2643 9.601C11.2643 9.27167 11.2168 8.9835 11.1218 8.7365C11.0268 8.48317 10.8906 8.271 10.7133 8.1C10.5423 7.929 10.3333 7.80233 10.0863 7.72C9.84561 7.63133 9.57328 7.587 9.26928 7.587C8.99061 7.587 8.73094 7.62817 8.49028 7.7105C8.25594 7.7865 8.04694 7.89733 7.86328 8.043C7.67961 8.18233 7.52444 8.347 7.39778 8.537C7.27111 8.727 7.17611 8.936 7.11278 9.164C7.00511 9.45533 6.86578 9.6485 6.69478 9.7435C6.52378 9.8385 6.27678 9.86067 5.95378 9.81L4.71878 9.5915C4.81378 8.93283 4.99744 8.3565 5.26978 7.8625C5.54211 7.36217 5.88094 6.94733 6.28628 6.618C6.69794 6.28233 7.16661 6.03217 7.69228 5.8675C8.22428 5.6965 8.79428 5.611 9.40228 5.611C10.0356 5.611 10.6151 5.706 11.1408 5.896C11.6664 6.07967 12.1161 6.3425 12.4898 6.6845C12.8634 7.0265 13.1548 7.43817 13.3638 7.9195C13.5728 8.40083 13.6773 8.936 13.6773 9.525C13.6773 10.0317 13.6013 10.5003 13.4493 10.931C13.3036 11.3617 13.1041 11.7733 12.8508 12.166C12.6038 12.5587 12.3124 12.9387 11.9768 13.306C11.6411 13.6733 11.2896 14.047 10.9223 14.427L7.82528 17.5905C8.12294 17.5018 8.41744 17.4353 8.70878 17.391C9.00644 17.3403 9.28828 17.315 9.55428 17.315H13.0788Z" fill="white"/>
</svg>
