<svg width="19" height="24" viewBox="0 0 19 24" fill="none" xmlns="http://www.w3.org/2000/svg">
<rect x="0.5" y="0.5" width="18" height="23" rx="3.5" fill="#D68429" stroke="white"/>
<path d="M4.78528 9.5915C4.88028 8.93283 5.06394 8.3565 5.33628 7.8625C5.60861 7.36217 5.94744 6.94733 6.35278 6.618C6.76444 6.28233 7.23311 6.03217 7.75878 5.8675C8.29078 5.6965 8.86078 5.611 9.46878 5.611C10.1021 5.611 10.6721 5.70283 11.1788 5.8865C11.6918 6.06383 12.1288 6.314 12.4898 6.637C12.8508 6.95367 13.1263 7.32733 13.3163 7.758C13.5126 8.18867 13.6108 8.65417 13.6108 9.1545C13.6108 9.5915 13.5601 9.97783 13.4588 10.3135C13.3638 10.6428 13.2244 10.931 13.0408 11.178C12.8571 11.425 12.6291 11.634 12.3568 11.805C12.0844 11.976 11.7773 12.1185 11.4353 12.2325C12.2586 12.4922 12.8729 12.888 13.2783 13.42C13.6836 13.952 13.8863 14.6202 13.8863 15.4245C13.8863 16.1085 13.7596 16.7133 13.5063 17.239C13.2529 17.7647 12.9109 18.208 12.4803 18.569C12.0496 18.9237 11.5493 19.1928 10.9793 19.3765C10.4156 19.5602 9.81711 19.652 9.18378 19.652C8.49344 19.652 7.89178 19.5728 7.37878 19.4145C6.86578 19.2562 6.41928 19.0218 6.03928 18.7115C5.65928 18.4012 5.33628 18.0212 5.07028 17.5715C4.80428 17.1218 4.57628 16.6025 4.38628 16.0135L5.42178 15.586C5.69411 15.472 5.94744 15.4435 6.18178 15.5005C6.42244 15.5512 6.59661 15.6778 6.70428 15.8805C6.81828 16.1022 6.94178 16.3207 7.07478 16.536C7.21411 16.7513 7.37878 16.9445 7.56878 17.1155C7.75878 17.2802 7.98044 17.4163 8.23378 17.524C8.49344 17.6253 8.80061 17.676 9.15528 17.676C9.55428 17.676 9.90261 17.6127 10.2003 17.486C10.4979 17.353 10.7449 17.182 10.9413 16.973C11.1439 16.764 11.2928 16.5328 11.3878 16.2795C11.4891 16.0198 11.5398 15.7602 11.5398 15.5005C11.5398 15.1712 11.5049 14.8735 11.4353 14.6075C11.3656 14.3352 11.2199 14.104 10.9983 13.914C10.7766 13.724 10.4568 13.5752 10.0388 13.4675C9.62711 13.3598 9.07294 13.306 8.37628 13.306V11.634C8.95261 11.6277 9.43078 11.5738 9.81078 11.4725C10.1908 11.3712 10.4916 11.2318 10.7133 11.0545C10.9413 10.8708 11.0996 10.6523 11.1883 10.399C11.2769 10.1457 11.3213 9.867 11.3213 9.563C11.3213 8.917 11.1408 8.42617 10.7798 8.0905C10.4188 7.75483 9.93744 7.587 9.33578 7.587C9.05711 7.587 8.80061 7.62817 8.56628 7.7105C8.33194 7.7865 8.11978 7.89733 7.92978 8.043C7.74611 8.18233 7.59094 8.347 7.46428 8.537C7.33761 8.727 7.24261 8.936 7.17928 9.164C7.07161 9.45533 6.92911 9.6485 6.75178 9.7435C6.58078 9.8385 6.33694 9.86067 6.02028 9.81L4.78528 9.5915Z" fill="white"/>
</svg>
