<svg width="90" height="35" viewBox="0 0 90 35" fill="none" xmlns="http://www.w3.org/2000/svg">
<path d="M8.472 11V2.6H6.648V7.772L2.712 2.6H1.008V11H2.832V5.66L6.9 11H8.472ZM18.4365 7.34V2.6H16.5885V7.412C16.5885 8.744 15.9045 9.428 14.7765 9.428C13.6485 9.428 12.9645 8.72 12.9645 7.352V2.6H11.1165V7.4C11.1165 9.872 12.4965 11.132 14.7525 11.132C17.0085 11.132 18.4365 9.884 18.4365 7.34ZM27.4388 4.304V2.6H20.4788V4.304H23.0348V11H24.8828V4.304H27.4388ZM36.88 11L34.828 8C35.896 7.604 36.628 6.752 36.628 5.396V5.372C36.628 3.644 35.44 2.6 33.46 2.6H29.62V11H31.468V8.312H32.92L34.72 11H36.88ZM34.756 5.492C34.756 6.2 34.24 6.68 33.34 6.68H31.468V4.268H33.304C34.204 4.268 34.756 4.676 34.756 5.468V5.492ZM40.9839 11V2.6H39.1359V11H40.9839ZM49.9152 8.516V8.492C49.9152 7.028 48.9552 6.416 47.2512 5.972C45.7992 5.6 45.4392 5.42 45.4392 4.868V4.844C45.4392 4.436 45.8112 4.112 46.5192 4.112C47.2272 4.112 47.9592 4.424 48.7032 4.94L49.6632 3.548C48.8112 2.864 47.7672 2.48 46.5432 2.48C44.8272 2.48 43.6032 3.488 43.6032 5.012V5.036C43.6032 6.704 44.6952 7.172 46.3872 7.604C47.7912 7.964 48.0792 8.204 48.0792 8.672V8.696C48.0792 9.188 47.6232 9.488 46.8672 9.488C45.9072 9.488 45.1152 9.092 44.3592 8.468L43.2672 9.776C44.2752 10.676 45.5592 11.12 46.8312 11.12C48.6432 11.12 49.9152 10.184 49.9152 8.516ZM59.6589 9.644L58.4829 8.456C57.8229 9.056 57.2349 9.44 56.2749 9.44C54.8349 9.44 53.8389 8.24 53.8389 6.8V6.776C53.8389 5.336 54.8589 4.16 56.2749 4.16C57.1149 4.16 57.7749 4.52 58.4229 5.108L59.5989 3.752C58.8189 2.984 57.8709 2.456 56.2869 2.456C53.7069 2.456 51.9069 4.412 51.9069 6.8V6.824C51.9069 9.236 53.7429 11.144 56.2149 11.144C57.8349 11.144 58.7949 10.568 59.6589 9.644ZM70.2199 6.8V6.776C70.2199 4.388 68.3599 2.456 65.7679 2.456C63.1759 2.456 61.2919 4.412 61.2919 6.8V6.824C61.2919 9.212 63.1519 11.144 65.7439 11.144C68.3359 11.144 70.2199 9.188 70.2199 6.8ZM68.2879 6.824C68.2879 8.264 67.2559 9.44 65.7679 9.44C64.2799 9.44 63.2239 8.24 63.2239 6.8V6.776C63.2239 5.336 64.2559 4.16 65.7439 4.16C67.2319 4.16 68.2879 5.36 68.2879 6.8V6.824ZM79.8793 11L77.8273 8C78.8953 7.604 79.6273 6.752 79.6273 5.396V5.372C79.6273 3.644 78.4393 2.6 76.4593 2.6H72.6193V11H74.4673V8.312H75.9193L77.7193 11H79.8793ZM77.7553 5.492C77.7553 6.2 77.2393 6.68 76.3393 6.68H74.4673V4.268H76.3033C77.2033 4.268 77.7553 4.676 77.7553 5.468V5.492ZM88.4471 11V9.356H83.8871V7.592H87.8471V5.948H83.8871V4.244H88.3871V2.6H82.0511V11H88.4471Z" fill="#767676"/>
<path d="M46.1252 20C45.8268 20 45.5406 20.1185 45.3297 20.3295C45.1187 20.5405 45.0002 20.8266 45.0002 21.125C45.0002 21.4234 45.1187 21.7095 45.3297 21.9205C45.5406 22.1315 45.8268 22.25 46.1252 22.25C46.4235 22.25 46.7097 22.1315 46.9207 21.9205C47.1316 21.7095 47.2502 21.4234 47.2502 21.125C47.2502 20.8266 47.1316 20.5405 46.9207 20.3295C46.7097 20.1185 46.4235 20 46.1252 20ZM45.8552 23.5775C44.9627 23.6525 42.5252 25.595 42.5252 25.595C42.3752 25.7075 42.4202 25.7 42.5402 25.91C42.6602 26.1125 42.6452 26.1275 42.7877 26.03C42.9377 25.9325 43.1852 25.775 43.5977 25.52C45.1877 24.5 43.8527 26.855 43.1702 30.8225C42.9002 32.7875 44.6702 31.775 45.1277 31.475C45.5777 31.1825 46.7852 30.35 46.9052 30.2675C47.0702 30.155 46.9502 30.065 46.8227 29.8775C46.7327 29.75 46.6427 29.84 46.6427 29.84C46.1552 30.1625 45.2627 30.8375 45.1427 30.41C45.0002 29.9825 45.9152 27.05 46.4177 25.0325C46.5002 24.5525 46.7252 23.5025 45.8552 23.5775Z" fill="#B0E9FC"/>
<rect x="36.5" y="17.5" width="17" height="17" rx="8.5" stroke="#B0E9FC"/>
</svg>
