<svg width="20" height="24" viewBox="0 0 20 24" fill="none" xmlns="http://www.w3.org/2000/svg">
<rect x="0.5" y="0.5" width="19" height="23" rx="3.5" fill="#EAE014" stroke="white"/>
<path d="M14.1822 15.7605C14.3216 15.7605 14.4451 15.8143 14.5527 15.922L15.5597 17.0145C15.0024 17.7048 14.3152 18.2337 13.4982 18.601C12.6876 18.9683 11.7122 19.152 10.5722 19.152C9.55257 19.152 8.63424 18.9778 7.81724 18.6295C7.00657 18.2812 6.31307 17.7967 5.73674 17.176C5.16041 16.5553 4.71707 15.8143 4.40674 14.953C4.10274 14.0917 3.95074 13.1512 3.95074 12.1315C3.95074 11.0992 4.11541 10.1555 4.44474 9.3005C4.77407 8.43917 5.23641 7.69817 5.83174 7.0775C6.4334 6.45683 7.14907 5.9755 7.97874 5.6335C8.80841 5.28517 9.72674 5.111 10.7337 5.111C11.7344 5.111 12.6211 5.27567 13.3937 5.605C14.1727 5.93433 14.8346 6.365 15.3792 6.897L14.5242 8.0845C14.4736 8.1605 14.4071 8.227 14.3247 8.284C14.2487 8.341 14.1411 8.3695 14.0017 8.3695C13.9067 8.3695 13.8086 8.34417 13.7072 8.2935C13.6059 8.2365 13.4951 8.17 13.3747 8.094C13.2544 8.01167 13.1151 7.923 12.9567 7.828C12.7984 7.733 12.6147 7.6475 12.4057 7.5715C12.1967 7.48917 11.9529 7.42267 11.6742 7.372C11.4019 7.315 11.0852 7.2865 10.7242 7.2865C10.1099 7.2865 9.54624 7.39733 9.03324 7.619C8.52657 7.83433 8.08957 8.151 7.72224 8.569C7.35491 8.98067 7.06991 9.48733 6.86724 10.089C6.66457 10.6843 6.56324 11.3652 6.56324 12.1315C6.56324 12.9042 6.67091 13.5913 6.88624 14.193C7.10791 14.7947 7.40557 15.3013 7.77924 15.713C8.15291 16.1247 8.59307 16.4413 9.09974 16.663C9.60641 16.8783 10.1511 16.986 10.7337 16.986C11.0821 16.986 11.3956 16.967 11.6742 16.929C11.9592 16.891 12.2189 16.8308 12.4532 16.7485C12.6939 16.6662 12.9187 16.5617 13.1277 16.435C13.3431 16.302 13.5552 16.1405 13.7642 15.9505C13.8276 15.8935 13.8941 15.8492 13.9637 15.8175C14.0334 15.7795 14.1062 15.7605 14.1822 15.7605Z" fill="white"/>
</svg>
