<svg width="20" height="24" viewBox="0 0 20 24" fill="none" xmlns="http://www.w3.org/2000/svg">
<rect x="0.5" y="0.5" width="19" height="23" rx="3.5" fill="#5E8F4C" stroke="white"/>
<path d="M11.6913 13.813L10.0193 9.2435C9.93698 9.04083 9.85148 8.80017 9.76281 8.5215C9.67414 8.24283 9.58548 7.942 9.49681 7.619C9.41448 7.942 9.32898 8.246 9.24031 8.531C9.15164 8.80967 9.06614 9.0535 8.98381 9.2625L7.32131 13.813H11.6913ZM16.2038 19H14.2278C14.0061 19 13.8256 18.9462 13.6863 18.8385C13.547 18.7245 13.4425 18.5852 13.3728 18.4205L12.3468 15.618H6.65631L5.63031 18.4205C5.57964 18.5662 5.48148 18.6992 5.33581 18.8195C5.19014 18.9398 5.00964 19 4.79431 19H2.79931L8.20481 5.263H10.8078L16.2038 19Z" fill="white"/>
</svg>
