<svg width="20" height="24" viewBox="0 0 20 24" fill="none" xmlns="http://www.w3.org/2000/svg">
<rect x="0.5" y="0.5" width="19" height="23" rx="3.5" fill="#9ACB3E" stroke="white"/>
<path d="M9.91607 17.005C10.3911 17.005 10.7901 16.948 11.1131 16.834C11.4361 16.72 11.6926 16.568 11.8826 16.378C12.0789 16.188 12.2182 15.9663 12.3006 15.713C12.3892 15.4597 12.4336 15.1905 12.4336 14.9055C12.4336 14.6078 12.3861 14.3418 12.2911 14.1075C12.1961 13.8668 12.0472 13.6642 11.8446 13.4995C11.6419 13.3285 11.3791 13.1987 11.0561 13.11C10.7394 13.0213 10.3562 12.977 9.90657 12.977H7.33207V17.005H9.91607ZM7.33207 7.239V11.21H9.36507C10.2391 11.21 10.8977 11.0517 11.3411 10.735C11.7907 10.4183 12.0156 9.91483 12.0156 9.2245C12.0156 8.50883 11.8129 7.999 11.4076 7.695C11.0022 7.391 10.3689 7.239 9.50757 7.239H7.33207ZM9.50757 5.263C10.4069 5.263 11.1764 5.3485 11.8161 5.5195C12.4557 5.6905 12.9782 5.93433 13.3836 6.251C13.7952 6.56767 14.0961 6.95083 14.2861 7.4005C14.4761 7.85017 14.5711 8.35683 14.5711 8.9205C14.5711 9.2435 14.5236 9.55383 14.4286 9.8515C14.3336 10.1428 14.1847 10.4183 13.9821 10.678C13.7857 10.9313 13.5324 11.1625 13.2221 11.3715C12.9181 11.5805 12.5539 11.7578 12.1296 11.9035C14.0169 12.3278 14.9606 13.3475 14.9606 14.9625C14.9606 15.5452 14.8497 16.0835 14.6281 16.5775C14.4064 17.0715 14.0834 17.499 13.6591 17.86C13.2347 18.2147 12.7122 18.4933 12.0916 18.696C11.4709 18.8987 10.7616 19 9.96357 19H4.77657V5.263H9.50757Z" fill="white"/>
</svg>
