<svg width="20" height="24" viewBox="0 0 20 24" fill="none" xmlns="http://www.w3.org/2000/svg">
<rect x="0.5" y="0.5" width="19" height="23" rx="3.5" fill="#D68429" stroke="white"/>
<path d="M16.5004 12.1315C16.5004 13.1385 16.3326 14.0632 15.9969 14.9055C15.6613 15.7478 15.1894 16.473 14.5814 17.081C13.9734 17.689 13.2419 18.1608 12.387 18.4965C11.5319 18.8322 10.5819 19 9.53695 19H4.30245V5.263H9.53695C10.5819 5.263 11.5319 5.434 12.387 5.776C13.2419 6.11167 13.9734 6.5835 14.5814 7.1915C15.1894 7.79317 15.6613 8.51517 15.9969 9.3575C16.3326 10.1998 16.5004 11.1245 16.5004 12.1315ZM13.8784 12.1315C13.8784 11.3778 13.7771 10.7033 13.5745 10.108C13.3781 9.50633 13.0899 8.99967 12.7099 8.588C12.3363 8.17 11.8803 7.85017 11.3419 7.6285C10.8099 7.40683 10.2083 7.296 9.53695 7.296H6.86745V16.967H9.53695C10.2083 16.967 10.8099 16.8562 11.3419 16.6345C11.8803 16.4128 12.3363 16.0962 12.7099 15.6845C13.0899 15.2665 13.3781 14.7598 13.5745 14.1645C13.7771 13.5628 13.8784 12.8852 13.8784 12.1315Z" fill="white"/>
</svg>
